<?xml version="1.0" encoding="utf-8" ?>
<svg xmlns="http://www.w3.org/2000/svg" xmlns:xlink="http://www.w3.org/1999/xlink" width="1024" height="1024">
	<path fill="#926700" d="M266.131 149.969C264.689 149.868 262.607 151.66 261.942 151.302C263.723 149.358 266.104 148.04 268.324 146.641C280.84 138.749 295.73 133.977 310.546 133.339C318.848 132.981 327.317 133.585 335.643 133.545L405.702 133.498L582.033 133.607L675.352 133.21L701.829 132.844C711.06 132.627 720.257 131.941 729.443 133.257C742.428 135.117 753.29 141.218 762.801 150.116C781.056 167.192 789.654 192.017 790.422 216.604C790.779 228.047 790.05 239.612 790.024 251.077L789.976 333.775L789.687 599.223L789.47 737.766L789.468 775.655C789.501 787.377 789.806 799.072 788.217 810.723C785.836 828.187 778.326 845.908 766.077 858.764C748.154 877.575 724.244 882.429 699.406 882.863C691.148 883.007 682.89 882.466 674.631 882.386L626.5 882.352L434.521 882.313L355.739 882.29C337.615 882.353 319.094 883.786 301.136 880.81C285.686 878.249 271.651 870.8 260.396 859.964C243.227 843.434 236.316 821.238 236.015 797.92C235.879 787.365 236.488 776.79 236.516 766.225L236.699 667.369L236.649 412.623L236.761 279.694L236.744 245.941C236.705 236.995 236.362 227.885 237.57 219.001C239.593 204.124 248.984 181.565 259.433 170.684C261.272 168.769 263.235 167.022 264.981 165.014C265.17 160 265.928 155 266.131 149.969ZM262.411 828.356C265.224 831.937 267.585 835.839 270.505 839.338C276.537 846.569 284.387 850.426 291.987 855.665C292.167 855.832 292.336 856.011 292.526 856.164C299.302 861.625 311.45 863.516 319.846 864.136C328.377 864.765 337.004 864.538 345.554 864.516L392.943 864.043L514.175 863.988L640.439 864.007C662.519 864.103 684.879 865.756 706.925 864.057C727.176 862.496 745.4 853.051 758.546 837.49C767.196 827.25 772.229 815.772 773.642 802.444C775.023 789.425 774.228 776.182 774.077 763.118C773.895 747.378 774.018 731.626 774.018 715.885L774.039 533.823L774.399 331.487L774.512 271.254C774.559 259.462 775.207 247.289 774.22 235.547C772.396 213.847 762.623 193.445 745.799 179.359C736.125 171.26 723.506 165.708 710.995 164.053C701.213 162.76 691.347 162.982 681.505 162.983L647.02 163.005L529.303 163.003L380.51 163.175L336.997 163.448C327.942 163.459 318.867 162.871 309.832 163.73C292.271 165.398 276.098 173.149 264.834 186.963C256.817 196.793 252.723 208.36 251.514 220.902C250.334 233.134 251.006 245.627 251.07 257.907L251.161 313.839L251.077 509.69L251.018 705.329L250.986 764.73C250.982 777.109 250.441 789.809 251.751 802.133C252.655 810.633 254.839 822.25 261.81 827.876L262.411 828.356Z"/>
	<path fill="#1D1D1E" d="M266.131 149.969C267.749 153.316 268.706 155.076 271.896 157.117C270.119 158.986 267.59 161.09 266.576 163.466L265.857 164.723L264.981 165.014C265.17 160 265.928 155 266.131 149.969Z"/>
	<path fill="#FEFEFE" d="M266.576 163.466L266.921 163.235C269.802 161.257 272.357 158.822 275.099 156.659C282.734 150.635 291.186 146.227 300.894 144.771C310.384 143.347 320.262 143.745 329.83 143.869L357.486 144.023L473.888 144.014C536.286 144.014 598.78 143.235 661.166 144.22C681.041 144.534 702.109 142.153 721.747 145.62C726.001 146.371 730.02 147.503 734.073 148.981C711.124 146.137 688.831 146.3 665.746 146.488L622.757 146.521L440 146.455L347.531 146.536C332.4 146.526 314.829 144.853 300.067 147.13C291.647 148.429 283.759 152.357 277.023 157.475C273.614 160.065 270.032 163.556 265.857 164.723L266.576 163.466Z"/>
	<path fill="#1D1D1E" d="M262.411 828.356L261.81 827.876C254.839 822.25 252.655 810.633 251.751 802.133C250.441 789.809 250.982 777.109 250.986 764.73L251.018 705.329L251.077 509.69L251.161 313.839L251.07 257.907C251.006 245.627 250.334 233.134 251.514 220.902C252.723 208.36 256.817 196.793 264.834 186.963C276.098 173.149 292.271 165.398 309.832 163.73C318.867 162.871 327.942 163.459 336.997 163.448L380.51 163.175L529.303 163.003L647.02 163.005L681.505 162.983C691.347 162.982 701.213 162.76 710.995 164.053C723.506 165.708 736.125 171.26 745.799 179.359C762.623 193.445 772.396 213.847 774.22 235.547C775.207 247.289 774.559 259.462 774.512 271.254L774.399 331.487L774.039 533.823L774.018 715.885C774.018 731.626 773.895 747.378 774.077 763.118C774.228 776.182 775.023 789.425 773.642 802.444C772.229 815.772 767.196 827.25 758.546 837.49C745.4 853.051 727.176 862.496 706.925 864.057C684.879 865.756 662.519 864.103 640.439 864.007L514.175 863.988L392.943 864.043L345.554 864.516C337.004 864.538 328.377 864.765 319.846 864.136C311.45 863.516 299.302 861.625 292.526 856.164C292.336 856.011 292.167 855.832 291.987 855.665C284.387 850.426 276.537 846.569 270.505 839.338C267.585 835.839 265.224 831.937 262.411 828.356ZM252.999 784.834C253.315 802.762 251.907 812.595 262.411 828.356C265.224 831.937 267.585 835.839 270.505 839.338C276.537 846.569 284.387 850.426 291.987 855.665C300.55 858.905 311.119 862.275 320.343 859.877L320.257 859.422C318.824 859.102 317.391 858.789 315.952 858.499C298.459 857.261 282.906 845.073 271.86 832.371C265.258 825.15 260.98 816.822 257.687 807.665C254.551 801.186 253.366 792.13 253.551 784.977L252.999 784.834ZM252.993 693.174L252.958 757.015C252.942 765.446 251.802 776.739 252.999 784.834L253.551 784.977C254.657 775.38 253.723 764.64 253.685 754.924L253.538 693.034L252.993 693.174ZM252.993 693.174L253.538 693.034C254.242 656.66 253.493 620.13 253.279 583.746L252.99 648.615C252.944 663.453 252.617 678.346 252.993 693.174Z"/>
	<path fill="#1D1D1E" fill-opacity="0.79215688" d="M252.993 693.174C252.617 678.346 252.944 663.453 252.99 648.615L253.279 583.746C253.493 620.13 254.242 656.66 253.538 693.034L252.993 693.174Z"/>
	<path fill="#1D1D1E" fill-opacity="0.72156864" d="M252.993 693.174L253.538 693.034L253.685 754.924C253.723 764.64 254.657 775.38 253.551 784.977L252.999 784.834C251.802 776.739 252.942 765.446 252.958 757.015L252.993 693.174Z"/>
	<path fill="#926700" d="M335.697 169.071C347.518 168.723 359.388 168.994 371.217 168.998L432.364 168.946L603.548 168.849C627.09 168.991 650.702 168.467 674.26 168.482C686.882 168.491 700.165 167.762 712.636 169.782C725.623 171.885 738.011 178.041 747.538 187.106C753.38 192.665 758.02 198.931 761.306 206.302C766.982 215.185 768.262 225.387 768.8 235.717C769.557 250.232 768.991 264.997 768.939 279.535L768.594 360.908L768.235 606.067L768.053 751.521C767.859 770.129 770.32 789.346 766.339 807.714C762.79 824.09 752.563 838.145 738.497 847.106C729.998 852.52 720.48 856.023 710.482 857.321C696.974 859.075 682.972 858.514 669.368 858.508L610.999 858.469L412.075 858.255C387.249 858.259 362.433 858.144 337.608 858.56C330.469 858.68 323.021 858.032 315.952 858.499C298.459 857.261 282.906 845.073 271.86 832.371C265.258 825.15 260.98 816.822 257.687 807.665C255.395 796.167 255.867 784.86 255.921 773.217L255.971 742.323L255.999 628.288L256.017 362.645L256.027 280.809C256.001 264.687 255.656 248.517 256.049 232.402C256.209 225.79 256.638 219.118 258.297 212.692C262.517 196.348 272.581 184.959 286.852 176.459C303.253 167.785 317.655 168.581 335.697 169.071Z"/>
	<defs>
		<linearGradient id="gradient_0" gradientUnits="userSpaceOnUse" x1="527.11505" y1="158.91774" x2="525.71106" y2="182.58467">
			<stop offset="0" stop-color="#FFEF9A"/>
			<stop offset="1" stop-color="#FFFED8"/>
		</linearGradient>
	</defs>
	<path fill="url(#gradient_0)" d="M335.697 169.071C347.518 168.723 359.388 168.994 371.217 168.998L432.364 168.946L603.548 168.849C627.09 168.991 650.702 168.467 674.26 168.482C686.882 168.491 700.165 167.762 712.636 169.782C725.623 171.885 738.011 178.041 747.538 187.106C753.38 192.665 758.02 198.931 761.306 206.302C758.527 204.827 755.739 198.811 753.788 196.172C745.509 184.973 732.203 177.3 718.747 174.36C704.466 171.24 689.62 171.981 675.093 171.992L630.273 172.055L418.458 172.017L356.031 172.045C345.789 172.049 334.471 172.986 324.341 171.551C327.147 171.262 329.963 171.209 332.78 171.126C329.452 171.039 325.669 171.377 322.424 170.774C321.511 170.604 320.888 170.564 320.342 169.809C325.363 168.822 330.675 170.208 335.697 169.071Z"/>
	<path fill="#FEFEFE" d="M286.852 176.459C303.253 167.785 317.655 168.581 335.697 169.071C330.675 170.208 325.363 168.822 320.342 169.809C320.888 170.564 321.511 170.604 322.424 170.774C325.669 171.377 329.452 171.039 332.78 171.126C329.963 171.209 327.147 171.262 324.341 171.551C312.423 171.449 302.387 172.49 291.21 176.797C277.106 184.348 265.812 196.172 261.064 211.7C256.382 227.013 258.502 254.557 258.521 271.346L258.5 336.758L258.335 595.542L258.223 728.002L258.058 770.553C258.013 779.187 257.662 787.979 258.245 796.592C258.832 805.271 262.268 813.781 266.345 821.365C267.951 824.354 271.595 829.083 271.86 832.371C265.258 825.15 260.98 816.822 257.687 807.665C255.395 796.167 255.867 784.86 255.921 773.217L255.971 742.323L255.999 628.288L256.017 362.645L256.027 280.809C256.001 264.687 255.656 248.517 256.049 232.402C256.209 225.79 256.638 219.118 258.297 212.692C262.517 196.348 272.581 184.959 286.852 176.459Z"/>
	<path fill="#1D1D1E" d="M435.151 419.751C443.115 419.275 451.087 419.639 459.056 419.681C468.878 419.734 482.199 417.535 490.897 423.245C495.217 426.081 498.502 431.388 499.429 436.424C501.418 447.228 500.055 459.27 500.021 470.252C499.994 478.567 500.848 487.16 499.679 495.409C499.173 498.977 498.314 502.097 496.146 505.049C492.033 510.652 486.212 512.879 479.613 513.917C472.181 514.648 464.342 514.022 456.848 514.023C448.649 514.024 440.102 514.825 431.973 513.733C428.273 513.236 423.767 512.185 420.757 509.937C415.521 506.028 413.597 500.765 412.915 494.539C412.115 487.228 412.387 479.595 412.304 472.241C412.175 460.877 411.135 447.815 413.374 436.647C414.137 432.845 415.245 429.809 417.784 426.795C422.421 421.291 428.399 420.307 435.151 419.751Z"/>
	<defs>
		<linearGradient id="gradient_1" gradientUnits="userSpaceOnUse" x1="477.63727" y1="415.99985" x2="404.03409" y2="474.20816">
			<stop offset="0" stop-color="#FFD374"/>
			<stop offset="1" stop-color="#FFF39D"/>
		</linearGradient>
	</defs>
	<path fill="url(#gradient_1)" d="M418.231 495.497C416.655 486.804 417.617 477.311 417.619 468.508C417.62 458.177 416.684 447.318 418.424 437.092C419.168 432.719 421.4 429.482 425.161 427.003C427.105 425.722 429.177 425.233 431.458 424.923C439.774 423.792 474.745 423.367 481.937 424.913C486.913 425.983 489.893 429.472 492.422 433.611L491.444 435.327C488.397 435.581 485.666 430.996 482.491 430.406C476.543 429.301 437.282 429.436 431.575 430.751C429.294 431.277 427.491 432.247 426.015 434.091C417.85 444.294 424.074 475.295 421.59 488.905C420.639 491.318 419.624 493.308 418.231 495.497Z"/>
	<path fill="#926700" d="M494.202 437.554C495.602 448.039 494.967 458.707 495 469.261C495.026 477.573 495.803 486.707 494.414 494.889C493.925 497.775 492.955 500.631 491.135 502.959C487.888 507.113 482.814 508.525 477.771 508.98C470.625 509.624 463.414 509 456.254 509.024C448.401 509.049 439.937 510.118 432.166 508.794C429.104 508.273 426.245 507.422 423.819 505.41C420.921 503.006 418.706 499.254 418.231 495.497C419.624 493.308 420.639 491.318 421.59 488.905C423.642 492.588 425.576 495.468 428.692 498.303C437.606 499.755 476.374 500.517 483.813 497.396C486.227 496.383 487.972 494.884 489.066 492.476C493.133 483.524 490.348 461.023 490.135 450.414C490.07 447.226 489.681 442.542 491.148 439.652C491.983 438.007 492.586 438.081 494.202 437.554Z"/>
	<path fill="#D29D2D" d="M421.59 488.905C424.074 475.295 417.85 444.294 426.015 434.091C427.491 432.247 429.294 431.277 431.575 430.751C437.282 429.436 476.543 429.301 482.491 430.406C485.666 430.996 488.397 435.581 491.444 435.327L492.422 433.611C492.931 434.827 493.429 436.518 494.202 437.554C492.586 438.081 491.983 438.007 491.148 439.652C489.681 442.542 490.07 447.226 490.135 450.414C490.348 461.023 493.133 483.524 489.066 492.476C487.972 494.884 486.227 496.383 483.813 497.396C476.374 500.517 437.606 499.755 428.692 498.303C425.576 495.468 423.642 492.588 421.59 488.905Z"/>
	<path fill="#1D1D1E" d="M326.754 419.746C338.396 419.933 369.448 417.372 377.585 424.618C382.908 429.358 384.74 435.119 385.217 441.964C386.042 453.823 386.844 484.984 384.887 495.866C384.247 499.424 382.988 503.594 380.51 506.288C374.079 513.282 366.623 513.572 357.875 513.741C357.321 513.775 356.768 513.813 356.215 513.836C346.152 514.252 320.973 515.31 312.119 512.671C309.054 511.757 306.303 509.95 304.009 507.738C298.309 502.242 297.793 495.493 297.533 488.068C297.116 476.178 295.961 443.695 298.94 433.837C299.859 430.796 301.946 427.847 304.14 425.594C310.353 419.218 318.594 419.886 326.754 419.746Z"/>
	<defs>
		<linearGradient id="gradient_2" gradientUnits="userSpaceOnUse" x1="352.87943" y1="415.8858" x2="304.37589" y2="491.56137">
			<stop offset="0" stop-color="#FFD477"/>
			<stop offset="1" stop-color="#FFF9AD"/>
		</linearGradient>
	</defs>
	<path fill="url(#gradient_2)" d="M303.023 493.625L302.945 467.54C302.829 457.246 301.173 445.162 304.192 435.234C305.339 431.461 307.975 427.803 311.607 426.028C317.849 422.977 363.021 423.872 370.148 426.293C374.494 427.769 376.977 432.344 378.899 436.218C372.967 436.059 371.873 431.683 366.737 430.654C358.706 429.045 323.045 429.358 314.997 430.876C310.061 434.771 308.057 438.783 307.304 445.109C305.578 459.605 308.327 474.616 306.874 489.135C305.712 490.847 304.548 492.225 303.023 493.625Z"/>
	<path fill="#926700" d="M376.03 437.417C377.264 438.335 378.242 439.094 379.765 439.486C381.568 447.148 380.207 462.997 380.2 471.454C380.194 478.091 380.769 484.924 380.14 491.521C379.839 494.682 379.262 497.986 377.615 500.75C375.398 504.468 372.004 507.443 367.721 508.323C358.438 510.229 317.828 511.172 310.373 506.361C306.438 503.822 303.884 498.798 303.091 494.268C303.053 494.056 303.046 493.84 303.023 493.625C304.548 492.225 305.712 490.847 306.874 489.135C307.791 491.599 308.952 494.116 310.809 496.028C313.761 499.068 317.953 499.083 321.92 499.159C329.587 499.307 360.242 500.495 366.069 498.854C368.378 498.204 370.793 496.605 372.466 494.913C374.356 493.003 375.09 490.762 375.596 488.178C376.974 481.149 376.144 473.067 376.075 465.889L376.03 437.417Z"/>
	<path fill="#D29D2D" d="M314.997 430.876C323.045 429.358 358.706 429.045 366.737 430.654C371.873 431.683 372.967 436.059 378.899 436.218C379.238 437.315 379.561 438.353 379.765 439.486C378.242 439.094 377.264 438.335 376.03 437.417L376.075 465.889C376.144 473.067 376.974 481.149 375.596 488.178C375.09 490.762 374.356 493.003 372.466 494.913C370.793 496.605 368.378 498.204 366.069 498.854C360.242 500.495 329.587 499.307 321.92 499.159C317.953 499.083 313.761 499.068 310.809 496.028C308.952 494.116 307.791 491.599 306.874 489.135C308.327 474.616 305.578 459.605 307.304 445.109C308.057 438.783 310.061 434.771 314.997 430.876Z"/>
	<path fill="#1D1D1E" d="M429.954 556.546L459.285 556.38C466.738 556.319 474.728 555.815 482.113 556.789C485.035 557.174 488.121 557.951 490.572 559.649C494.967 562.694 498.399 567.098 499.268 572.43C501.206 584.322 501.429 621.93 499.426 633.579C498.88 636.757 497.998 639.734 496.036 642.348C492.632 646.883 486.996 649.901 481.451 650.791C469.72 651.761 434.155 652.654 424.355 648.817C419.673 646.984 415.762 642.459 413.913 637.827C410.88 630.231 411.713 586.2 412.676 576.4C412.969 573.42 413.439 569.869 414.714 567.152C417.545 561.117 424.023 558.45 429.954 556.546Z"/>
	<path fill="#FEF2A7" d="M417.354 627.451C417.128 617.071 417.324 606.729 417.268 596.354C417.236 590.28 416.74 584.019 417.196 577.968C417.385 575.457 417.845 572.809 418.781 570.463C420.236 566.815 423.542 564.078 427.118 562.624C435.326 559.287 479.936 560.038 486.99 563.342C490.514 564.992 492.526 568.821 493.7 572.325C492.189 572.213 491.179 571.041 490.08 570.098C487.212 568.531 484.385 567.5 481.166 566.979C473.341 565.714 437.619 565.406 430.422 567.714C427.443 568.67 425.23 571.085 423.868 573.831C418.373 584.918 422.608 616.332 421.645 629.702C420.169 629.056 418.767 628.226 417.354 627.451Z"/>
	<path fill="#926700" d="M490.08 570.098C491.179 571.041 492.189 572.213 493.7 572.325C496.503 580.911 494.355 596.716 494.436 606.004C494.501 613.405 495.365 621.052 494.612 628.422C494.274 631.737 493.485 634.926 491.986 637.92C490.096 641.696 487.315 643.225 483.333 644.416C474.916 646.932 431.866 647.423 424.962 643.259C421.284 641.041 418.972 637.22 418.006 633.098C417.58 631.278 417.419 629.318 417.354 627.451C418.767 628.226 420.169 629.056 421.645 629.702C425.94 632.753 429.115 634.441 434.532 634.923C441.073 635.504 447.652 634.731 454.197 634.612C461.465 634.479 478.852 636.517 484.63 631.408C493.025 623.985 489.869 596.89 489.627 585.888C489.512 580.643 489.912 575.344 490.08 570.098Z"/>
	<path fill="#D29D2D" d="M421.645 629.702C422.608 616.332 418.373 584.918 423.868 573.831C425.23 571.085 427.443 568.67 430.422 567.714C437.619 565.406 473.341 565.714 481.166 566.979C484.385 567.5 487.212 568.531 490.08 570.098C489.912 575.344 489.512 580.643 489.627 585.888C489.869 596.89 493.025 623.985 484.63 631.408C478.852 636.517 461.465 634.479 454.197 634.612C447.652 634.731 441.073 635.504 434.532 634.923C429.115 634.441 425.94 632.753 421.645 629.702Z"/>
	<path fill="#1D1D1E" d="M316.38 556.781C325.843 556.287 335.379 556.459 344.857 556.437C352.189 556.42 360.055 555.813 367.278 557.085C371.102 557.758 374.669 558.95 377.674 561.495C382.587 565.654 384.897 570.218 385.419 576.579C386.451 589.167 386.05 602.189 385.813 614.812C385.686 621.551 386.046 628.788 384.683 635.415C384.038 638.548 382.957 641.188 380.802 643.588C376.995 647.831 371.586 650.408 365.913 650.678C357.316 651.138 348.641 651.015 340.031 651.139C332.157 651.253 323.733 651.908 315.938 650.715C312.505 650.19 308.897 649.178 306.084 647.083C301.156 643.413 298.81 638.364 297.855 632.461C296.44 623.717 297.454 614.556 297.433 605.741C297.41 595.719 296.251 584.976 297.996 575.092C298.66 571.328 300.023 567.699 302.324 564.622C305.846 559.911 310.67 557.644 316.38 556.781Z"/>
	<defs>
		<linearGradient id="gradient_3" gradientUnits="userSpaceOnUse" x1="377.44669" y1="572.26886" x2="294.63834" y2="600.58124">
			<stop offset="0" stop-color="#FFCF70"/>
			<stop offset="1" stop-color="#FFF09D"/>
		</linearGradient>
	</defs>
	<path fill="url(#gradient_3)" d="M302.802 627.685C302.222 622.17 302.585 616.209 302.517 610.64C302.391 600.433 301.812 589.85 302.778 579.687C303.09 576.399 303.632 573.03 304.872 569.953C306.084 566.944 308.618 564.097 311.665 562.876C319.299 559.816 364.183 559.805 371.327 563.116C375.947 565.256 378.114 569.908 379.682 574.454C378.08 574.012 375.355 570.405 374.011 569.167C371.5 567.773 368.998 567.133 366.183 566.731C357.159 565.441 323.889 565.125 315.775 567.339C312.845 568.138 310.916 569.803 309.434 572.444C308.164 574.707 307.539 577.277 307.219 579.835C306.579 584.958 306.936 590.479 306.949 595.644C306.98 607.352 307.347 619.168 306.873 630.861C305.63 629.687 304.175 628.704 302.802 627.685Z"/>
	<path fill="#926700" d="M374.011 569.167C375.355 570.405 378.08 574.012 379.682 574.454C381.21 581.286 381.053 623.147 380.066 630.681C379.698 633.493 378.915 636.382 377.392 638.802C375.373 642.008 371.71 644.422 368.024 645.235C360.011 647.003 316.187 647.701 309.952 643.402C305.859 640.58 303.885 635.66 303.192 630.903C303.037 629.835 302.9 628.759 302.802 627.685C304.175 628.704 305.63 629.687 306.873 630.861C310.25 634.298 317.593 634.859 322.236 635.015C329.043 635.242 335.922 634.944 342.743 635.014C349.692 635.085 357.926 636.034 364.749 634.789C366.448 634.479 367.895 633.706 369.116 632.485C371.499 630.106 372.66 626.718 373.282 623.48C374.641 616.417 374.075 608.696 374.07 601.523L374.011 569.167Z"/>
	<path fill="#D29D2D" d="M306.873 630.861C307.347 619.168 306.98 607.352 306.949 595.644C306.936 590.479 306.579 584.958 307.219 579.835C307.539 577.277 308.164 574.707 309.434 572.444C310.916 569.803 312.845 568.138 315.775 567.339C323.889 565.125 357.159 565.441 366.183 566.731C368.998 567.133 371.5 567.773 374.011 569.167L374.07 601.523C374.075 608.696 374.641 616.417 373.282 623.48C372.66 626.718 371.499 630.106 369.116 632.485C367.895 633.706 366.448 634.479 364.749 634.789C357.926 636.034 349.692 635.085 342.743 635.014C335.922 634.944 329.043 635.242 322.236 635.015C317.593 634.859 310.25 634.298 306.873 630.861Z"/>
	<path fill="#1D1D1E" d="M542.804 419.689C551.242 418.675 560.253 419.488 568.758 419.506C576.211 419.521 584.033 418.867 591.429 419.836C594.782 420.275 598.109 421.159 601.042 422.884C605.806 425.685 608.567 430.14 609.773 435.455C612.064 445.562 610.419 457.405 610.46 467.78C610.496 476.879 611.392 486.268 610.234 495.317C609.802 498.693 608.968 502.074 607.041 504.93C603.375 510.36 597.275 512.774 591.095 513.944C582.981 514.091 574.865 514.001 566.754 514.154C558.681 514.306 550.362 514.95 542.342 513.946C538.534 513.47 533.409 512.436 530.375 509.977C525.925 506.369 523.614 501.033 522.929 495.468C521.809 486.379 522.478 477.139 522.473 468.004C522.468 458.605 521.638 448.973 522.849 439.634C523.408 435.328 524.281 430.409 527.073 426.967C531.295 421.762 536.435 420.399 542.804 419.689Z"/>
	<defs>
		<linearGradient id="gradient_4" gradientUnits="userSpaceOnUse" x1="586.58881" y1="414.94653" x2="513.83838" y2="475.33786">
			<stop offset="0" stop-color="#FFD173"/>
			<stop offset="1" stop-color="#FFF09A"/>
		</linearGradient>
	</defs>
	<path fill="url(#gradient_4)" d="M528.047 495.652L527.595 461.177C527.484 453.455 526.58 444.571 528.273 437.007C529.219 432.783 531.545 428.715 535.389 426.523C537.9 425.092 540.857 424.743 543.69 424.487C550.58 423.865 557.572 424.534 564.477 424.59C573.569 424.663 583.764 423.33 592.64 425.58C595.991 426.429 599.169 427.716 600.991 430.806C601.01 432.137 601.384 434.822 600.652 435.833C598.219 433.92 596.063 432.284 592.997 431.484C584.476 429.26 553.97 429.419 544.582 430.666C541.316 431.099 537.483 431.963 535.429 434.771C533.667 437.181 532.814 440.051 532.394 442.975C530.946 453.043 532.191 464.397 532.267 474.608C532.304 479.56 531.753 484.634 532.026 489.559C530.868 491.817 529.808 493.781 528.047 495.652Z"/>
	<path fill="#926700" d="M532.026 489.559C534.205 493.28 535.98 496.485 540.276 498.074C545.744 500.097 581.144 499.941 588.657 499.046C590.6 498.814 592.427 498.412 594.192 497.543C596.837 496.242 598.736 494.074 599.783 491.323C602.457 484.297 601.346 461.038 601.14 452.634C601.028 448.099 600.285 442.69 601.662 438.337C602.889 437.824 603.649 438.432 604.861 438.866C605.782 450.277 605.245 461.928 605.188 473.372C605.15 480.941 605.881 488.756 604.485 496.236C603.973 498.974 603.097 501.282 601.264 503.424C597.443 507.89 591.857 508.784 586.3 509.095C579.472 509.479 572.684 509.001 565.859 509C555.91 508.998 540.832 512.049 532.616 504.785C530.092 502.554 528.323 499.013 528.047 495.652C529.808 493.781 530.868 491.817 532.026 489.559Z"/>
	<path fill="#D29D2D" d="M532.026 489.559C531.753 484.634 532.304 479.56 532.267 474.608C532.191 464.397 530.946 453.043 532.394 442.975C532.814 440.051 533.667 437.181 535.429 434.771C537.483 431.963 541.316 431.099 544.582 430.666C553.97 429.419 584.476 429.26 592.997 431.484C596.063 432.284 598.219 433.92 600.652 435.833C601.384 434.822 601.01 432.137 600.991 430.806C603.067 433.42 604.177 435.603 604.861 438.866C603.649 438.432 602.889 437.824 601.662 438.337C600.285 442.69 601.028 448.099 601.14 452.634C601.346 461.038 602.457 484.297 599.783 491.323C598.736 494.074 596.837 496.242 594.192 497.543C592.427 498.412 590.6 498.814 588.657 499.046C581.144 499.941 545.744 500.097 540.276 498.074C535.98 496.485 534.205 493.28 532.026 489.559Z"/>
	<path fill="#1D1D1E" d="M581.862 556.236C589.282 556.231 598.058 555.861 603.939 561.183C610.952 567.53 610.567 576.718 610.888 585.374C611.345 597.701 612.891 626.766 609.548 637.07C608.675 639.762 606.831 642.235 604.884 644.247C601.809 647.424 598.035 649.412 593.723 650.368C587.318 651.787 579.893 651.061 573.329 651.035C566.232 651.007 559.139 651.131 552.044 651.269C543.914 651.112 535.175 650.477 528.868 644.721C523.592 639.905 522.783 632.644 522.477 625.896C521.907 613.31 521.069 581.687 523.85 570.593C524.581 567.675 526.183 564.893 528.259 562.723C531.264 559.58 535.177 557.979 539.375 557.098C544.991 555.919 551.212 556.42 556.924 556.44C565.243 556.468 573.547 556.546 581.862 556.236Z"/>
	<defs>
		<linearGradient id="gradient_5" gradientUnits="userSpaceOnUse" x1="578.63885" y1="551.42212" x2="525.5495" y2="631.0321">
			<stop offset="0" stop-color="#FFDC84"/>
			<stop offset="1" stop-color="#FFFBB8"/>
		</linearGradient>
	</defs>
	<path fill="url(#gradient_5)" d="M530.76 637.583C530.427 636.937 530.101 636.289 529.807 635.624C528.497 632.663 527.902 629.472 527.617 626.264C526.878 617.959 527.636 609.307 527.628 600.957C527.621 593.301 526.933 585.521 527.476 577.88C527.657 575.339 528.078 572.744 529.051 570.379C530.539 566.761 533.682 563.804 537.325 562.425C544.901 559.556 590.921 559.524 598.005 563.256C601.526 565.11 603.583 569.522 604.826 573.1C603.185 572.864 602.322 571.998 601.108 570.969C596.903 566.682 590.129 566.035 584.413 565.967C574.238 565.847 541.443 564.109 535.063 570.221C532.919 572.275 531.781 575.84 531.323 578.69C530.179 585.803 531.126 593.598 531.162 600.785C531.201 608.644 530.787 616.505 531.007 624.362C531.034 625.295 531.041 626.041 531.286 626.947C531.41 630.324 531.963 634.365 530.76 637.583Z"/>
	<path fill="#926700" d="M601.108 570.969C602.322 571.998 603.185 572.864 604.826 573.1C607.458 583.756 605.396 596.042 605.441 606.951C605.471 614.246 606.334 621.823 605.498 629.071C605.149 632.099 604.343 635.456 602.714 638.067C600.627 641.414 596.797 644.128 592.961 644.959C583.886 646.924 542.78 647.562 535.881 642.995C533.716 641.562 532.033 639.839 530.76 637.583C531.963 634.365 531.41 630.324 531.286 626.947C532.127 627.911 532.973 628.872 533.846 629.807C537.467 633.688 542.389 635.022 547.574 635.13C553.091 635.245 558.628 634.944 564.149 634.957C572.844 634.978 582.634 636.051 591.117 634.231C593.228 633.778 595.025 632.839 596.552 631.297C598.864 628.962 600.127 625.826 600.72 622.638C601.812 616.762 601.265 610.128 601.227 604.162C601.157 593.098 600.882 582.032 601.108 570.969Z"/>
	<path fill="#D29D2D" d="M531.286 626.947C531.041 626.041 531.034 625.295 531.007 624.362C530.787 616.505 531.201 608.644 531.162 600.785C531.126 593.598 530.179 585.803 531.323 578.69C531.781 575.84 532.919 572.275 535.063 570.221C541.443 564.109 574.238 565.847 584.413 565.967C590.129 566.035 596.903 566.682 601.108 570.969C600.882 582.032 601.157 593.098 601.227 604.162C601.265 610.128 601.812 616.762 600.72 622.638C600.127 625.826 598.864 628.962 596.552 631.297C595.025 632.839 593.228 633.778 591.117 634.231C582.634 636.051 572.844 634.978 564.149 634.957C558.628 634.944 553.091 635.245 547.574 635.13C542.389 635.022 537.467 633.688 533.846 629.807C532.973 628.872 532.127 627.911 531.286 626.947Z"/>
	<path fill="#1D1D1E" d="M698.709 419.239C707.082 419.279 718.035 419.254 724.438 425.551C729.278 430.31 730.324 436.283 730.498 442.786C730.797 453.931 731.568 489.724 729.23 498.611C728.221 502.446 725.811 506.362 723.04 509.188C716.074 516.294 699.706 514.275 690.745 514.117C685.368 514.022 680 514.122 674.625 514.26C667.115 514.356 655.907 514.787 649.845 509.668C644.432 505.097 642.39 499.412 641.967 492.506C641.225 480.404 640.287 446.128 642.425 435.584C643.117 432.169 644.737 428.735 647.112 426.163C655.273 417.323 673.409 419.542 684.304 419.624C689.104 419.661 693.914 419.429 698.709 419.239Z"/>
	<defs>
		<linearGradient id="gradient_6" gradientUnits="userSpaceOnUse" x1="693.54626" y1="417.12808" x2="658.38177" y2="495.7489">
			<stop offset="0" stop-color="#FFAA7B"/>
			<stop offset="1" stop-color="#FFEB90"/>
		</linearGradient>
	</defs>
	<path fill="url(#gradient_6)" d="M646.828 489.365C646.809 489.306 646.774 489.251 646.772 489.189C646.583 482.911 646.825 476.555 646.691 470.255C646.482 460.466 645.637 450.222 646.86 440.505C647.289 437.097 648.074 433.55 649.968 430.637C651.802 427.815 654.504 425.909 657.816 425.349C664.686 424.189 671.881 424.948 678.814 424.848C689.514 424.693 701.001 423.421 711.595 425.105C714.362 425.545 716.74 426.271 718.98 428.032C722.576 430.858 724.301 434.947 724.769 439.396C722.292 436.859 719.797 434.087 716.75 432.236C709.747 428.679 669.941 430.691 659.615 431.124C655.775 433.541 652.851 436.24 651.725 440.801C649.977 447.881 650.971 456.598 651.009 463.889C651.065 474.261 651.155 484.628 650.993 495C649.628 493.129 648.322 491.13 646.828 489.365Z"/>
	<path fill="#DB1404" d="M716.75 432.236C719.797 434.087 722.292 436.859 724.769 439.396C726.089 449.536 725.004 460.896 724.98 471.175C724.962 478.623 725.82 486.465 724.791 493.835C724.342 497.049 723.295 500.177 721.362 502.812C718.451 506.779 714.108 508.187 709.399 508.763C700.322 509.873 690.515 508.99 681.34 508.95C675.158 508.923 668.685 509.527 662.542 508.889C660.162 508.642 657.323 508.261 655.291 506.873C655.116 506.753 654.964 506.603 654.8 506.469C654.205 502.897 652.849 499.368 651.736 495.92C655.834 497.362 659.825 498.762 664.138 499.428C671.117 500.507 697.564 500.793 704.587 499.679C708.412 499.072 712.137 497.574 714.428 494.295C715.981 492.073 716.633 489.437 716.967 486.781C717.928 479.14 716.96 470.83 716.945 463.121C716.927 454.184 718.098 440.436 716.75 432.236Z"/>
	<path fill="#FE5734" d="M659.615 431.124C669.941 430.691 709.747 428.679 716.75 432.236C718.098 440.436 716.927 454.184 716.945 463.121C716.96 470.83 717.928 479.14 716.967 486.781C716.633 489.437 715.981 492.073 714.428 494.295C712.137 497.574 708.412 499.072 704.587 499.679C697.564 500.793 671.117 500.507 664.138 499.428C659.825 498.762 655.834 497.362 651.736 495.92C652.849 499.368 654.205 502.897 654.8 506.469C652.942 505.308 651.291 504.166 649.92 502.426C646.808 498.478 646.269 494.225 646.828 489.365C648.322 491.13 649.628 493.129 650.993 495C651.155 484.628 651.065 474.261 651.009 463.889C650.971 456.598 649.977 447.881 651.725 440.801C652.851 436.24 655.775 433.541 659.615 431.124Z"/>
	<path fill="#1D1D1E" d="M316.83 691.669C324.595 690.965 332.788 691.472 340.598 691.453C348.819 691.432 357.556 690.688 365.698 691.805C369.06 692.267 372.768 693.218 375.627 695.07C380.186 698.022 383.315 704.261 384.458 709.466C386.271 717.729 385.825 759.006 384.657 767.64C384.131 771.533 383.372 775.435 381.117 778.736C377.354 784.246 371.744 786.701 365.411 787.938C356.942 787.955 348.468 787.93 340.001 788.085C332.96 788.215 325.569 788.778 318.568 787.939C314.972 787.509 310.891 786.588 307.714 784.809C303.499 782.449 299.588 777.425 298.434 772.729C295.894 762.388 296.144 722.808 297.821 711.083C298.268 707.951 299.195 704.21 300.907 701.537C304.638 695.713 310.431 693.291 316.83 691.669Z"/>
	<path fill="#FEF2A7" d="M302.403 767.696C302.819 754.203 299.967 717.609 303.779 707.131C305.088 703.534 307.575 700.072 311.161 698.488C314.19 697.15 318.311 696.936 321.605 696.764C329.371 696.359 337.233 696.947 345.011 697.012C351.141 697.063 357.431 696.549 363.537 697.069C365.77 697.26 367.997 697.662 370.068 698.544C374.617 700.483 377.045 704.01 378.733 708.509C375.443 705.83 372.507 703.672 368.308 702.547C359.178 700.101 348.68 702.156 339.329 702.092C332.961 702.049 326.495 701.048 320.148 701.73C316.526 702.119 312.593 702.682 310.148 705.635C308.172 708.021 307.195 711.051 306.637 714.052C305.44 720.481 305.966 727.638 305.988 734.18C306.028 745.656 306.216 757.151 306.049 768.626L302.403 767.696Z"/>
	<path fill="#926700" d="M306.049 768.626C307.049 769.267 308.068 769.898 309.177 770.335C316.949 773.396 361.434 772.988 368.774 769.407C370.022 768.798 371.164 768.046 371.883 766.823C375.431 760.785 375.116 737.766 374.853 730.264C374.645 724.309 373.274 715.861 375.092 710.214C375.87 710.118 375.458 710.084 376.352 710.443C377.424 710.873 378.49 711.125 379.615 711.379C380.015 718.957 379.472 726.551 379.53 734.136C379.614 745.038 381.212 758.504 379.173 769.091C378.539 772.381 377.398 774.967 375.151 777.497C370.452 782.79 364.519 782.867 357.97 783.1C347.987 783.455 314.958 785.613 308.127 778.965C305.087 776.007 303.608 771.666 302.403 767.696L306.049 768.626Z"/>
	<path fill="#D29D2D" d="M306.049 768.626C306.216 757.151 306.028 745.656 305.988 734.18C305.966 727.638 305.44 720.481 306.637 714.052C307.195 711.051 308.172 708.021 310.148 705.635C312.593 702.682 316.526 702.119 320.148 701.73C326.495 701.048 332.961 702.049 339.329 702.092C348.68 702.156 359.178 700.101 368.308 702.547C372.507 703.672 375.443 705.83 378.733 708.509L379.615 711.379C378.49 711.125 377.424 710.873 376.352 710.443C375.458 710.084 375.87 710.118 375.092 710.214C373.274 715.861 374.645 724.309 374.853 730.264C375.116 737.766 375.431 760.785 371.883 766.823C371.164 768.046 370.022 768.798 368.774 769.407C361.434 772.988 316.949 773.396 309.177 770.335C308.068 769.898 307.049 769.267 306.049 768.626Z"/>
	<path fill="#1D1D1E" d="M469.673 691.233C477.368 691.317 486.825 690.963 492.821 696.546C498.648 701.971 500.252 708.049 500.539 715.674C501.029 728.666 502.238 760.646 499.39 772.228C498.52 775.767 496.692 779.123 494.157 781.747C486.536 789.636 471.697 788.037 461.65 788.02C455.804 788.011 449.969 788.089 444.125 788.267C435.842 788.349 425.665 788.179 419.145 782.306C413.199 776.949 412.501 770.816 412.155 763.304C411.814 755.893 412.396 748.447 412.394 741.029C412.391 729.638 411.075 717.171 413.698 706.002C414.425 702.902 416.031 700.132 418.214 697.826C420.952 694.933 424.275 693.234 428.124 692.301C437.296 690.078 458.674 691.724 469.673 691.233Z"/>
	<path fill="#FEF2A7" d="M417.678 769.386C416.832 758.171 415.504 712.749 419.484 704.591C421.114 701.252 424.376 699.091 427.807 697.917C435.532 695.274 481.069 695.524 488.124 699.457C491.738 701.472 493.676 706.309 494.782 710.059C493.38 709.118 492.55 707.906 491.556 706.56C487.484 702.034 481.067 702.061 475.421 701.757C465.224 701.207 439.037 700.319 430.085 702.41C428.624 702.751 427.294 703.389 426.157 704.374C421.763 708.18 421.301 715.645 421.121 721.075C420.602 736.675 420.992 752.472 421.157 768.082C419.833 769.139 419.312 769.128 417.678 769.386Z"/>
	<path fill="#926700" d="M428.104 771.443C436.667 771.763 478.492 772.667 484.04 770.182C485.991 769.308 487.822 767.759 488.719 765.789C494.005 754.194 486.998 717.737 491.369 706.993C491.428 706.848 491.494 706.704 491.556 706.56C492.55 707.906 493.38 709.118 494.782 710.059C495.781 720.14 495.546 730.369 495.642 740.489C495.722 748.948 496.414 758.251 495.129 766.575C494.58 770.129 493.765 773.853 491.445 776.702C487.449 781.609 482.504 782.244 476.58 782.697C466.496 783.466 431.174 785.346 423.75 778.923C420.779 776.352 419.039 772.994 417.678 769.386C419.312 769.128 419.833 769.139 421.157 768.082L421.509 767.376L422.178 767.193C424.26 768.488 426.169 769.945 428.104 771.443Z"/>
	<path fill="#D29D2D" d="M421.157 768.082C420.992 752.472 420.602 736.675 421.121 721.075C421.301 715.645 421.763 708.18 426.157 704.374C427.294 703.389 428.624 702.751 430.085 702.41C439.037 700.319 465.224 701.207 475.421 701.757C481.067 702.061 487.484 702.034 491.556 706.56C491.494 706.704 491.428 706.848 491.369 706.993C486.998 717.737 494.005 754.194 488.719 765.789C487.822 767.759 485.991 769.308 484.04 770.182C478.492 772.667 436.667 771.763 428.104 771.443C426.169 769.945 424.26 768.488 422.178 767.193L421.509 767.376L421.157 768.082Z"/>
	<path fill="#1D1D1E" d="M554.017 691.232C563.939 691.546 573.848 691.171 583.77 691.361C591.607 691.51 598.98 692.198 604.654 698.342C606.885 700.759 608.708 703.704 609.612 706.882C612.49 716.992 611.494 746.781 611.25 758.02C611.058 766.855 610.581 776.029 603.587 782.428C596.819 788.62 588.232 788.607 579.625 788.388C574.92 788.19 570.191 788.003 565.482 788.067C554.707 788.212 539.009 790.134 530.283 782.488C523.748 776.762 522.651 768.887 522.317 760.722C522.012 753.291 522.451 745.838 522.431 738.404C522.404 728.739 521.027 717.43 523.026 707.988C523.812 704.278 525.724 700.617 528.386 697.907C535.527 690.635 544.702 691.395 554.017 691.232Z"/>
	<defs>
		<linearGradient id="gradient_7" gradientUnits="userSpaceOnUse" x1="568.80969" y1="691.4389" x2="546.75928" y2="771.05695">
			<stop offset="0" stop-color="#FFEA9C"/>
			<stop offset="1" stop-color="#FFFFCD"/>
		</linearGradient>
	</defs>
	<path fill="url(#gradient_7)" d="M527.279 766.741C527.008 756.112 525.297 714.036 528.477 706.108C529.851 702.683 533.469 699.159 536.931 697.858C543.764 695.291 590.551 695.739 596.653 698.65C601.373 700.901 603.19 704.642 604.718 709.34C603.45 708.699 602.521 707.187 601.631 706.07C595.453 699.701 580.856 701.25 572.556 701.109C563.37 700.953 540.973 699.951 534.361 706.102C528.714 711.355 530.382 744.756 530.492 753.02C530.552 757.588 530.734 762.326 531.322 766.856C529.466 767.515 529.12 767.25 527.279 766.741Z"/>
	<path fill="#926700" d="M601.631 706.07C602.521 707.187 603.45 708.699 604.718 709.34C606.545 716.402 606.729 757.046 605.797 765.515C605.435 768.803 604.759 772.127 603.098 775.029C601.25 778.257 597.596 781.136 593.941 781.941C584.601 783.998 552.082 783.67 542.648 782.201C540.065 781.799 537.541 781.251 535.32 779.806C531.218 777.137 528.162 772.137 527.343 767.316C527.311 767.126 527.301 766.933 527.279 766.741C529.12 767.25 529.466 767.515 531.322 766.856C533.943 767.161 536.059 769.56 537.992 771.213C547.505 771.879 588.203 772.623 595.293 769.374C597.889 768.184 599.082 765.921 599.888 763.28C602.203 755.692 601.361 730.043 600.99 721.44C600.792 716.847 599.677 711.36 601.286 706.96C601.395 706.661 601.516 706.367 601.631 706.07Z"/>
	<path fill="#D29D2D" d="M531.322 766.856C530.734 762.326 530.552 757.588 530.492 753.02C530.382 744.756 528.714 711.355 534.361 706.102C540.973 699.951 563.37 700.953 572.556 701.109C580.856 701.25 595.453 699.701 601.631 706.07C601.516 706.367 601.395 706.661 601.286 706.96C599.677 711.36 600.792 716.847 600.99 721.44C601.361 730.043 602.203 755.692 599.888 763.28C599.082 765.921 597.889 768.184 595.293 769.374C588.203 772.623 547.505 771.879 537.992 771.213C536.059 769.56 533.943 767.161 531.322 766.856Z"/>
	<path fill="#1D1D1E" d="M675.278 556.264C685.713 556.073 704.667 555.007 714.326 557.249C717.781 558.05 721.132 559.46 723.753 561.91C728.296 566.155 729.886 571.218 730.182 577.21C730.815 590.017 730.105 602.937 730.019 615.752L729.993 683.134L730.002 736.36C729.999 746.719 730.624 757.491 729.354 767.771C728.706 773.01 727.272 776.952 723.56 780.904C716.128 788.814 706.36 788.115 696.445 788.321C695.547 788.371 694.655 788.416 693.755 788.437C682.031 788.707 655.886 790.731 647.624 782.427C642.429 777.207 641.457 770.649 641.302 763.671C641.04 751.889 641.499 739.984 641.507 728.186L641.515 642.198L641.285 598.634C641.241 590.591 640.726 582.139 641.526 574.157C642.006 569.377 642.633 565.871 646.191 562.35C653.682 554.938 665.625 556.266 675.278 556.264Z"/>
	<path fill="#FE5734" d="M646.655 600.248C646.216 592.536 645.281 576.374 647.894 569.452C649.115 566.217 652.318 563.444 655.503 562.226C659.894 560.548 699.321 560.168 706.483 560.694C709.711 560.931 713.573 561.323 716.487 562.777C719.939 564.498 722.169 568.375 723.298 571.897C724.055 573.599 724.353 575.166 724.452 577.005C725.336 593.429 724.814 610.086 724.816 626.534C724.818 652.808 724.923 679.081 724.551 705.351C724.272 725.078 725.498 745.153 724.327 764.821C724.189 767.131 723.819 769.351 722.938 771.506C721.23 775.686 718.414 779.096 714.198 780.851C705.061 784.656 691.503 782.255 681.762 782.441C675.609 782.559 669.395 783.415 663.246 782.978C660.736 782.799 658.212 782.347 655.886 781.359C653.292 780.257 649.245 777.471 648.235 774.746C647.258 772.111 646.915 768.843 646.747 766.048C646.334 759.141 646.62 752.093 646.619 745.169L646.619 707.553L646.655 600.248Z"/>
	<path fill="#FECA8D" d="M646.655 600.248C646.216 592.536 645.281 576.374 647.894 569.452C649.115 566.217 652.318 563.444 655.503 562.226C659.894 560.548 699.321 560.168 706.483 560.694C709.711 560.931 713.573 561.323 716.487 562.777C719.939 564.498 722.169 568.375 723.298 571.897C723.09 571.816 722.882 571.74 722.676 571.656C720.059 570.588 718.034 567.608 715.344 566.851C709.789 565.29 673.027 565.54 665.377 566.198C662.825 566.418 660.259 566.869 657.87 567.815C655.161 568.886 653.202 570.797 652.088 573.51C649.713 579.298 650.992 608.177 651.008 615.927L650.999 712.236C651.006 728.319 651.75 744.758 651.088 760.805C651.006 762.813 650.813 765.526 649.651 767.21L648.724 767.154C647.355 764.994 646.977 762.76 646.79 760.231C646.481 756.044 646.819 751.705 646.842 747.505L646.857 723.026L646.851 642.839C646.85 628.722 647.436 614.33 646.655 600.248Z"/>
	<path fill="#1D1D1E" d="M504.516 224.252L654.955 224.264L695.647 224.234C704.802 224.229 714.66 223.609 723.696 225.152C729.858 226.204 735.157 229.457 739.567 233.788C747.899 241.973 750.397 252.528 750.469 263.923C750.537 274.676 750.259 285.44 750.321 296.201C750.396 309.263 752.005 329.037 748.819 341.274C747.286 347.164 744.24 352.399 739.95 356.707C734.973 361.704 728.779 365.015 721.809 366.21C713.257 367.676 704.215 367.068 695.561 367.039L658.708 366.984L522.25 367.268L370.263 367.284L328.475 367.553C320.202 367.597 311.356 368.236 303.166 366.922C296.204 365.805 289.667 362.331 284.617 357.439C280.424 353.377 277.723 348.382 276.395 342.723C273.817 331.737 275.327 309.437 275.464 297.442C275.57 288.206 275.133 279.018 275.044 269.789C274.919 256.866 275.524 244.25 285.161 234.581C289.901 229.826 296.25 226.422 302.872 225.262C311.59 223.734 320.69 224.393 329.504 224.443L364.975 224.504L504.516 224.252Z"/>
	<defs>
		<linearGradient id="gradient_8" gradientUnits="userSpaceOnUse" x1="513.24799" y1="236.95992" x2="512.9447" y2="355.01746">
			<stop offset="0" stop-color="#BD3500"/>
			<stop offset="1" stop-color="#D65B0B"/>
		</linearGradient>
	</defs>
	<path fill="url(#gradient_8)" d="M718.502 236.253C723.488 236.114 727.966 238.086 731.539 241.529C740.368 250.038 738.775 264.706 738.777 276.011C738.778 286.621 738.46 297.221 738.529 307.835C738.589 317.12 739.851 327.605 737.934 336.734C736.95 341.416 734.843 345.95 731.38 349.314C727.457 353.125 722.045 354.809 716.701 355.288C710.519 355.842 704.079 355.499 697.863 355.504L663.111 355.507L552.765 355.503L388.748 355.497L335.954 355.495C327.617 355.504 319.256 355.928 310.925 355.597C304.152 355.329 297.66 354.286 292.864 348.977C288.968 344.665 287.671 339.155 287.486 333.496C289.406 333.041 291.44 332.834 293.392 332.528C298.926 334.27 318.126 333.009 324.892 333.026L389.354 333.4L628.836 334.057C643.9 334.052 658.981 333.909 674.044 334.1C685.411 334.244 697.37 335.294 708.672 333.85C715.176 333.018 720.648 329.078 724.372 323.817C727.102 319.961 728.68 315.414 729.585 310.808C731.568 300.708 731.973 262.962 730.281 252.678C728.971 244.715 724.76 240.682 718.502 236.253Z"/>
	<path fill="#FE8A60" d="M287.486 333.496C287.494 311.077 287.026 288.599 287.258 266.19C287.346 257.723 288.045 248.731 294.526 242.494C298.285 238.877 302.978 236.682 308.142 236.036C319.166 234.658 330.972 235.697 342.082 235.726L405.275 235.734L527.132 235.715C549.405 235.707 571.777 235.27 594.036 235.842C583.59 244.884 542.759 250.928 527.837 255.108C505.765 261.289 483.715 267.948 461.828 274.769C426.096 285.904 390.415 297.907 355.134 310.401C334.542 317.694 314.102 325.612 293.392 332.528C291.44 332.834 289.406 333.041 287.486 333.496Z"/>
	<path fill="#FEFEFE" d="M320.359 245.246C335.349 244.885 350.471 245.612 365.487 245.47L551.349 245.521C543.986 248.858 536.053 252.16 528.115 253.773C518.272 255.773 508.334 255.079 498.366 255.059L462.389 255.036C446.225 255.62 430.001 255.331 413.828 255.328C379.14 255.321 344.4 254.957 309.717 255.514C307.849 257.022 305.99 258.753 304.855 260.894C297.625 274.523 305.198 312.026 299.01 319.394L298.325 319.339C297.84 318.354 297.724 317.526 297.612 316.447C296.642 307.114 297.111 297.616 296.922 288.242C296.741 279.3 295.377 269.002 296.754 260.165C297.269 256.859 298.407 253.72 300.644 251.178C305.638 245.5 313.414 245.568 320.359 245.246Z"/>
	<path fill="#FE5734" d="M594.036 235.842C604.618 235.282 615.257 235.493 625.851 235.493L672.399 235.483L698.113 235.462C704.945 235.425 711.762 234.877 718.502 236.253C724.76 240.682 728.971 244.715 730.281 252.678C731.973 262.962 731.568 300.708 729.585 310.808C728.68 315.414 727.102 319.961 724.372 323.817C720.648 329.078 715.176 333.018 708.672 333.85C697.37 335.294 685.411 334.244 674.044 334.1C658.981 333.909 643.9 334.052 628.836 334.057L389.354 333.4L324.892 333.026C318.126 333.009 298.926 334.27 293.392 332.528C314.102 325.612 334.542 317.694 355.134 310.401C390.415 297.907 426.096 285.904 461.828 274.769C483.715 267.948 505.765 261.289 527.837 255.108C542.759 250.928 583.59 244.884 594.036 235.842Z"/>
</svg>
