<?xml version="1.0" encoding="UTF-8"?>
<!DOCTYPE svg PUBLIC "-//W3C//DTD SVG 1.1//EN" "http://www.w3.org/Graphics/SVG/1.1/DTD/svg11.dtd">
<svg xmlns="http://www.w3.org/2000/svg" version="1.1" width="512px" height="512px" style="shape-rendering:geometricPrecision; text-rendering:geometricPrecision; image-rendering:optimizeQuality; fill-rule:evenodd; clip-rule:evenodd" xmlns:xlink="http://www.w3.org/1999/xlink">
<g><path style="opacity:0.99" fill="#f5ac37" d="M 20.5,7.5 C 86.1675,7.33334 151.834,7.5 217.5,8C 224.106,10.2718 228.273,14.7718 230,21.5C 230.667,86.5 230.667,151.5 230,216.5C 228.167,223.667 223.667,228.167 216.5,230C 151.5,230.667 86.5,230.667 21.5,230C 14.7718,228.273 10.2718,224.106 8,217.5C 7.33333,151.833 7.33333,86.1667 8,20.5C 10.3531,14.3154 14.5198,9.98203 20.5,7.5 Z"/></g>
<g><path style="opacity:0.99" fill="#f5ac37" d="M 293.5,7.5 C 359.168,7.33334 424.834,7.5 490.5,8C 496.667,10.1667 500.833,14.3333 503,20.5C 503.667,86.1667 503.667,151.833 503,217.5C 500.728,224.106 496.228,228.273 489.5,230C 424.5,230.667 359.5,230.667 294.5,230C 287.333,228.167 282.833,223.667 281,216.5C 280.333,151.5 280.333,86.5 281,21.5C 282.917,14.753 287.084,10.0863 293.5,7.5 Z"/></g>
<g><path style="opacity:1" fill="#fffefe" d="M 115.5,59.5 C 120.635,58.4262 124.468,60.0928 127,64.5C 127.5,79.8297 127.667,95.163 127.5,110.5C 142.504,110.333 157.504,110.5 172.5,111C 176.666,111.985 178.666,114.652 178.5,119C 178.68,123.31 176.68,125.976 172.5,127C 157.504,127.5 142.504,127.667 127.5,127.5C 127.667,142.504 127.5,157.504 127,172.5C 124.163,178.542 119.663,180.042 113.5,177C 112.107,175.829 111.273,174.329 111,172.5C 110.5,157.504 110.333,142.504 110.5,127.5C 95.163,127.667 79.8297,127.5 64.5,127C 59.391,123.634 58.2243,119.134 61,113.5C 61.9025,112.299 63.0692,111.465 64.5,111C 79.8297,110.5 95.163,110.333 110.5,110.5C 110.333,95.163 110.5,79.8297 111,64.5C 112.025,62.313 113.525,60.6464 115.5,59.5 Z"/></g>
<g><path style="opacity:1" fill="#fffefe" d="M 337.5,110.5 C 373.502,110.333 409.502,110.5 445.5,111C 449.666,111.985 451.666,114.652 451.5,119C 451.666,123.348 449.666,126.015 445.5,127C 409.5,127.667 373.5,127.667 337.5,127C 332.391,123.634 331.224,119.134 334,113.5C 335.145,112.364 336.312,111.364 337.5,110.5 Z"/></g>
<g><path style="opacity:0.99" fill="#f5ac37" d="M 21.5,280.5 C 86.5009,280.333 151.501,280.5 216.5,281C 223.667,282.833 228.167,287.333 230,294.5C 230.667,359.5 230.667,424.5 230,489.5C 228.273,496.228 224.106,500.728 217.5,503C 151.833,503.667 86.1667,503.667 20.5,503C 14.3333,500.833 10.1667,496.667 8,490.5C 7.33333,424.833 7.33333,359.167 8,293.5C 10.4509,286.88 14.9509,282.546 21.5,280.5 Z"/></g>
<g><path style="opacity:0.99" fill="#deedf3" d="M 294.5,280.5 C 359.501,280.333 424.501,280.5 489.5,281C 496.228,282.727 500.728,286.894 503,293.5C 503.667,359.167 503.667,424.833 503,490.5C 500.833,496.667 496.667,500.833 490.5,503C 424.833,503.667 359.167,503.667 293.5,503C 286.894,500.728 282.727,496.228 281,489.5C 280.333,424.5 280.333,359.5 281,294.5C 283.017,287.318 287.517,282.652 294.5,280.5 Z"/></g>
<g><path style="opacity:1" fill="#fffcf8" d="M 159.5,340.5 C 168.117,341.11 171.284,345.443 169,353.5C 156.863,366.638 144.363,379.471 131.5,392C 143.333,403.833 155.167,415.667 167,427.5C 169.886,431.598 170.219,435.931 168,440.5C 163.965,444.219 159.798,444.385 155.5,441C 143.333,428.833 131.167,416.667 119,404.5C 106.833,416.667 94.6667,428.833 82.5,441C 74.6302,445.398 69.6302,443.231 67.5,434.5C 67.6221,432.209 68.4554,430.209 70,428.5C 82.1667,416.333 94.3333,404.167 106.5,392C 94.3333,379.833 82.1667,367.667 70,355.5C 66.6667,351.5 66.6667,347.5 70,343.5C 74.6229,340.725 79.1229,340.891 83.5,344C 95.3333,355.833 107.167,367.667 119,379.5C 132.092,365.905 145.592,352.905 159.5,340.5 Z"/></g>
<g><path style="opacity:1" fill="#b0ccdd" d="M 338.5,357.5 C 374.168,357.333 409.835,357.5 445.5,358C 452.705,362.442 453.372,367.775 447.5,374C 410.5,374.667 373.5,374.667 336.5,374C 330.674,367.622 331.341,362.122 338.5,357.5 Z"/></g>
<g><path style="opacity:1" fill="#afccdd" d="M 337.5,409.5 C 373.835,409.333 410.168,409.5 446.5,410C 451.689,412.913 452.856,417.08 450,422.5C 448.786,424.049 447.286,425.215 445.5,426C 409.833,426.667 374.167,426.667 338.5,426C 330.937,420.827 330.604,415.327 337.5,409.5 Z"/></g>
</svg>
