<?xml version="1.0" encoding="utf-8" ?>
<svg xmlns="http://www.w3.org/2000/svg" xmlns:xlink="http://www.w3.org/1999/xlink" width="1024" height="1024">
	<path fill="#1D1D1E" fill-opacity="0.023529412" d="M302.599 351.433C302.83 351.525 303.066 351.606 303.293 351.71C303.973 352.02 304.164 352.2 304.94 352.312Q304.691 341.032 304.755 329.75C304.791 334.079 304.641 338.454 304.491 342.781C304.463 342.738 304.422 342.701 304.408 342.651C303.443 339.322 303.41 232.803 304.835 226.499C305.891 234.214 305.633 246.115 305.242 254.006C305.842 252.662 305.688 249.825 305.816 248.279C305.919 252.607 305.877 256.997 306.292 261.306L306.892 261.106L306.927 279.4C306.328 288.072 306.594 296.896 306.576 305.592C306.54 322.056 306.657 338.534 306.432 354.996C305.861 355.674 306.199 355.371 305.196 355.951C304.137 356.563 304.382 356.412 303.332 356.13C302.411 354.531 302.542 353.239 302.599 351.433Z"/>
	<path fill="#926700" d="M128.996 717.4C132.703 715.109 136.253 710.819 139.358 707.706C148.759 698.282 157.825 688.509 167.121 678.977L229.827 615.935C230.764 633.797 230.28 651.83 230.255 669.716Q249.147 669.643 268.033 670.114L202.607 736.515C188.122 750.967 172.935 764.987 159.202 780.156Q157.581 778.817 156.003 777.428Q154.424 776.039 152.891 774.601Q151.357 773.163 149.869 771.677Q148.381 770.192 146.94 768.66Q145.5 767.129 144.108 765.553Q142.716 763.977 141.375 762.358Q140.033 760.739 138.743 759.079Q137.453 757.419 136.216 755.719Q134.979 754.019 133.795 752.281Q132.612 750.543 131.484 748.768Q130.356 746.994 129.284 745.185Q128.212 743.377 127.198 741.535Q126.183 739.693 125.227 737.821Q124.271 735.948 123.374 734.047Q122.477 732.145 121.64 730.216Q120.804 728.287 120.028 726.333C122.935 723.356 125.787 720.04 128.996 717.4Z"/>
	<path fill="#926700" d="M230.624 501.65C231.663 503.21 231.195 506.567 231.134 508.495C231.283 509.91 231.74 511.503 231.649 512.885C230.195 512.884 229.299 512.825 228.066 513.73C227.754 514.602 227.513 514.753 227.809 515.664C229.039 516.029 229.961 516.081 231.226 516.08C231.845 517.821 230.529 520.673 230.47 522.705C229.982 531.034 230.289 539.535 230.297 547.883C230.315 567.924 230.742 588.05 230.247 608.082C225.166 614.926 218.476 620.974 212.47 627.028L180.939 658.5Q163.787 675.56 146.832 692.814C137.51 702.31 128.297 712.094 118.324 720.911C116.181 714.348 114.658 707.78 113.861 700.915C112.398 688.331 112.994 675.386 113.016 662.722C113.035 651.557 112.674 640.247 113.18 629.099C115.958 625.681 119.151 622.631 121.923 619.241C120.507 618.583 118.513 619.554 116.924 619.755L115.968 619.87C120.1 615.056 124.872 610.631 129.345 606.124L153.46 581.883C168.894 566.428 184.038 550.111 200.159 535.389L210.565 524.865C212.993 522.958 222.694 514.098 223.584 511.816C224.201 510.921 224.785 510.007 225.375 509.095C226.283 509.842 227.386 510.717 228.572 510.875C229.312 510.973 229.448 510.638 229.978 510.216C230.959 507.607 230.614 504.414 230.624 501.65ZM200.159 535.389C184.038 550.111 168.894 566.428 153.46 581.883L129.345 606.124C124.872 610.631 120.1 615.056 115.968 619.87L116.924 619.755C118.513 619.554 120.507 618.583 121.923 619.241C125.591 616.741 129.292 611.937 132.474 608.688L155.753 585.022L188.362 552.357C194.087 546.609 200.381 540.889 205.516 534.617C203.788 535.104 202.629 536.264 200.835 536.601L200.159 535.389ZM230.624 501.65C230.614 504.414 230.959 507.607 229.978 510.216C229.448 510.638 229.312 510.973 228.572 510.875C227.386 510.717 226.283 509.842 225.375 509.095C224.785 510.007 224.201 510.921 223.584 511.816C222.694 514.098 212.993 522.958 210.565 524.865L200.159 535.389L200.835 536.601C202.629 536.264 203.788 535.104 205.516 534.617C210.38 530.657 219.849 517.892 225.416 516.421C226.344 516.176 227.267 516.281 228.03 516.866C229.923 518.318 230.124 520.492 230.47 522.705C230.529 520.673 231.845 517.821 231.226 516.08C229.961 516.081 229.039 516.029 227.809 515.664C227.513 514.753 227.754 514.602 228.066 513.73C229.299 512.825 230.195 512.884 231.649 512.885C231.74 511.503 231.283 509.91 231.134 508.495C231.195 506.567 231.663 503.21 230.624 501.65Z"/>
	<path fill="#1D1D1E" fill-opacity="0.10980392" d="M230.624 501.65C231.663 503.21 231.195 506.567 231.134 508.495C231.283 509.91 231.74 511.503 231.649 512.885C230.195 512.884 229.299 512.825 228.066 513.73C227.754 514.602 227.513 514.753 227.809 515.664C229.039 516.029 229.961 516.081 231.226 516.08C231.845 517.821 230.529 520.673 230.47 522.705C230.124 520.492 229.923 518.318 228.03 516.866C227.267 516.281 226.344 516.176 225.416 516.421C219.849 517.892 210.38 530.657 205.516 534.617C203.788 535.104 202.629 536.264 200.835 536.601L200.159 535.389L210.565 524.865C212.993 522.958 222.694 514.098 223.584 511.816C224.201 510.921 224.785 510.007 225.375 509.095C226.283 509.842 227.386 510.717 228.572 510.875C229.312 510.973 229.448 510.638 229.978 510.216C230.959 507.607 230.614 504.414 230.624 501.65Z"/>
	<defs>
		<linearGradient id="gradient_0" gradientUnits="userSpaceOnUse" x1="126.99327" y1="609.82666" x2="128.69633" y2="611.24951">
			<stop offset="0" stop-color="#1D1E1C" stop-opacity="0.1254902"/>
			<stop offset="1" stop-color="#1D1D1E" stop-opacity="0.15686275"/>
		</linearGradient>
	</defs>
	<path fill="url(#gradient_0)" d="M200.159 535.389L200.835 536.601C202.629 536.264 203.788 535.104 205.516 534.617C200.381 540.889 194.087 546.609 188.362 552.357L155.753 585.022L132.474 608.688C129.292 611.937 125.591 616.741 121.923 619.241C120.507 618.583 118.513 619.554 116.924 619.755L115.968 619.87C120.1 615.056 124.872 610.631 129.345 606.124L153.46 581.883C168.894 566.428 184.038 550.111 200.159 535.389Z"/>
	<path fill="#926700" d="M113.054 402.195C119.211 408.328 125.496 414.351 131.531 420.604C135.733 424.959 141.978 432.888 146.662 436.057C148.711 436.118 149.697 437.21 151.253 438.423C151.515 438.628 151.783 438.825 152.047 439.027C157.5 443.213 164.048 452.753 169.688 455.394C170.689 455.863 171.853 455.859 172.934 455.859C178.754 461.649 189.043 470.588 193.527 476.896C197.476 480.459 216.147 498.317 218.039 501.614Q221.674 505.387 225.375 509.095C224.785 510.007 224.201 510.921 223.584 511.816C222.694 514.098 212.993 522.958 210.565 524.865L200.159 535.389C184.038 550.111 168.894 566.428 153.46 581.883L129.345 606.124C124.872 610.631 120.1 615.056 115.968 619.87C114.891 620.673 113.838 621.919 112.862 622.865C112.225 612.932 112.908 602.637 112.94 592.654L112.936 534.959L112.886 449.55C112.88 433.788 112.511 417.944 113.054 402.195ZM146.662 436.057C171.286 461.895 197.033 486.777 222.312 511.978C218.456 515.819 213.228 520.136 210.565 524.865C212.993 522.958 222.694 514.098 223.584 511.816C224.201 510.921 224.785 510.007 225.375 509.095Q221.674 505.387 218.039 501.614C216.147 498.317 197.476 480.459 193.527 476.896C189.043 470.588 178.754 461.649 172.934 455.859C171.853 455.859 170.689 455.863 169.688 455.394C164.048 452.753 157.5 443.213 152.047 439.027C151.783 438.825 151.515 438.628 151.253 438.423C149.697 437.21 148.711 436.118 146.662 436.057Z"/>
	<defs>
		<linearGradient id="gradient_1" gradientUnits="userSpaceOnUse" x1="180.0639" y1="464.77264" x2="178.50047" y2="466.20889">
			<stop offset="0" stop-color="#1B1A1A" stop-opacity="0.56470591"/>
			<stop offset="1" stop-color="#1B1A1A" stop-opacity="0.59607846"/>
		</linearGradient>
	</defs>
	<path fill="url(#gradient_1)" d="M146.662 436.057C148.711 436.118 149.697 437.21 151.253 438.423C151.515 438.628 151.783 438.825 152.047 439.027C157.5 443.213 164.048 452.753 169.688 455.394C170.689 455.863 171.853 455.859 172.934 455.859C178.754 461.649 189.043 470.588 193.527 476.896C197.476 480.459 216.147 498.317 218.039 501.614Q221.674 505.387 225.375 509.095C224.785 510.007 224.201 510.921 223.584 511.816C222.694 514.098 212.993 522.958 210.565 524.865C213.228 520.136 218.456 515.819 222.312 511.978C197.033 486.777 171.286 461.895 146.662 436.057ZM215.688 503.973L215.827 502.877C216.707 501.831 216.69 501.849 218.039 501.614C216.147 498.317 197.476 480.459 193.527 476.896L190.382 475.726L190.56 476.045L189.86 475.758C192.681 479.158 196.013 481.942 198.981 485.18C201.052 487.439 202.628 490.267 204.509 492.702C206.95 495.861 209.811 498.576 212.7 501.314C213.555 502.124 214.664 503.447 215.688 503.973ZM215.688 503.973Q219.764 507.766 223.584 511.816C224.201 510.921 224.785 510.007 225.375 509.095Q221.674 505.387 218.039 501.614C216.69 501.849 216.707 501.831 215.827 502.877L215.688 503.973Z"/>
	<path fill="#1D1D1E" fill-opacity="0.074509807" d="M215.688 503.973L215.827 502.877C216.707 501.831 216.69 501.849 218.039 501.614Q221.674 505.387 225.375 509.095C224.785 510.007 224.201 510.921 223.584 511.816Q219.764 507.766 215.688 503.973Z"/>
	<path fill="#1D1D1E" fill-opacity="0.50196081" d="M215.688 503.973C214.664 503.447 213.555 502.124 212.7 501.314C209.811 498.576 206.95 495.861 204.509 492.702C202.628 490.267 201.052 487.439 198.981 485.18C196.013 481.942 192.681 479.158 189.86 475.758L190.56 476.045L190.382 475.726L193.527 476.896C197.476 480.459 216.147 498.317 218.039 501.614C216.69 501.849 216.707 501.831 215.827 502.877L215.688 503.973Z"/>
	<path fill="#926700" d="M274.741 669.992Q290.348 670.065 305.955 669.908L306.033 805.637L256.938 805.643C220.189 805.687 195.191 804.585 163.144 782.879C164.675 781.106 166.234 778.862 168.02 777.376C174.338 773.111 185.593 760.043 191.819 753.892C219.785 726.261 247.006 697.862 274.741 669.992Z"/>
	<path fill="#926700" d="M162.944 239.566C172.825 232.727 182.927 227.745 194.373 224.031Q200.698 221.96 207.213 220.596Q213.727 219.231 220.352 218.589C227.879 217.83 298.925 216.539 301.938 218.077L302.085 219.421C303.325 234.346 302.518 249.956 302.527 264.95L302.599 351.433C302.542 353.239 302.411 354.531 303.332 356.13C304.382 356.412 304.137 356.563 305.196 355.951C306.199 355.371 305.861 355.674 306.432 354.996L306.935 357.02C310.309 358.968 343.429 358.617 349.765 358.54C335.133 361.043 317.438 356.786 303.322 360.006C297.741 360.071 291.435 359.642 285.959 360.559C282.965 360.752 280.011 360.673 277.015 360.582C269.456 359.781 261.456 360.324 253.849 360.358C247.858 360.386 241.335 359.866 235.423 360.714C234.577 362.148 234.635 363.463 234.584 365.072C234.438 364.507 234.3 363.77 234.05 363.231C233.534 362.12 233.487 361.852 232.349 361.431C231.086 362.556 230.987 363.548 230.469 365.136L230.464 366.905C231.478 383.081 230.344 399.631 230.423 415.851Q230.668 433.28 230.666 450.711C230.68 456.606 231.009 462.749 230.444 468.617C230.423 479.605 230.26 490.669 230.624 501.65C230.614 504.414 230.959 507.607 229.978 510.216C229.448 510.638 229.312 510.973 228.572 510.875C227.386 510.717 226.283 509.842 225.375 509.095Q221.674 505.387 218.039 501.614C216.147 498.317 197.476 480.459 193.527 476.896C189.043 470.588 178.754 461.649 172.934 455.859C171.853 455.859 170.689 455.863 169.688 455.394C164.048 452.753 157.5 443.213 152.047 439.027C151.783 438.825 151.515 438.628 151.253 438.423C149.697 437.21 148.711 436.118 146.662 436.057C141.978 432.888 135.733 424.959 131.531 420.604C125.496 414.351 119.211 408.328 113.054 402.195C113.445 400.049 113.414 398.098 113.335 395.931C111.554 392.416 112.886 335.931 113.677 326.733C114.312 319.333 115.613 312.133 117.058 304.859L117.664 304.146C118.746 304.679 118.19 304.468 119.329 304.786C120.039 303.792 120.25 303.564 120.37 302.367C120.12 302.228 119.175 301.721 118.991 301.543C118.17 300.749 118.464 300.541 118.614 299.608Q120.058 295.387 121.804 291.281C128.772 274.937 139.527 260.867 152.183 248.551C154.031 246.753 156.72 243.578 159.163 242.802C159.906 242.567 160.138 242.98 160.736 243.363C161.699 242.717 162.654 242.127 163.447 241.269L162.944 239.566ZM118.614 299.608C118.464 300.541 118.17 300.749 118.991 301.543C119.175 301.721 120.12 302.228 120.37 302.367C120.25 303.564 120.039 303.792 119.329 304.786C118.19 304.468 118.746 304.679 117.664 304.146L117.058 304.859C115.613 312.133 114.312 319.333 113.677 326.733C112.886 335.931 111.554 392.416 113.335 395.931C113.414 398.098 113.445 400.049 113.054 402.195C119.211 408.328 125.496 414.351 131.531 420.604C135.733 424.959 141.978 432.888 146.662 436.057C148.711 436.118 149.697 437.21 151.253 438.423C151.515 438.628 151.783 438.825 152.047 439.027C157.5 443.213 164.048 452.753 169.688 455.394C170.689 455.863 171.853 455.859 172.934 455.859C178.754 461.649 189.043 470.588 193.527 476.896C197.476 480.459 216.147 498.317 218.039 501.614Q221.674 505.387 225.375 509.095C226.283 509.842 227.386 510.717 228.572 510.875C229.312 510.973 229.448 510.638 229.978 510.216C230.959 507.607 230.614 504.414 230.624 501.65C230.26 490.669 230.423 479.605 230.444 468.617C231.009 462.749 230.68 456.606 230.666 450.711Q230.668 433.28 230.423 415.851C230.344 399.631 231.478 383.081 230.464 366.905C229.585 372.017 230.086 377.967 230.09 383.172Q230.159 396.98 229.972 410.786C220.997 402.684 212.594 393.899 204.051 385.344L163.148 344.358L134.735 315.972C129.374 310.638 123.452 305.393 118.614 299.608ZM302.085 219.421C301.228 234.965 301.929 250.823 301.938 266.407L301.917 355.417C293.96 355.411 285.959 355.586 278.008 355.364L192.029 268.469C187.157 263.552 167.54 242.259 162.944 239.566L163.447 241.269C162.654 242.127 161.699 242.717 160.736 243.363C168.755 252.628 178.418 260.949 187.086 269.672Q214.744 297.354 241.896 325.531C251.574 335.485 261.739 345.119 270.794 355.644C257.922 355.458 245.107 354.805 232.252 355.75C230.852 359.013 230.371 361.599 230.469 365.136C230.987 363.548 231.086 362.556 232.349 361.431C233.487 361.852 233.534 362.12 234.05 363.231C234.3 363.77 234.438 364.507 234.584 365.072C234.635 363.463 234.577 362.148 235.423 360.714C241.335 359.866 247.858 360.386 253.849 360.358C261.456 360.324 269.456 359.781 277.015 360.582C280.011 360.673 282.965 360.752 285.959 360.559C291.435 359.642 297.741 360.071 303.322 360.006C317.438 356.786 335.133 361.043 349.765 358.54C343.429 358.617 310.309 358.968 306.935 357.02L306.432 354.996C305.861 355.674 306.199 355.371 305.196 355.951C304.137 356.563 304.382 356.412 303.332 356.13C302.411 354.531 302.542 353.239 302.599 351.433L302.527 264.95C302.518 249.956 303.325 234.346 302.085 219.421Z"/>
	<defs>
		<linearGradient id="gradient_2" gradientUnits="userSpaceOnUse" x1="153.45743" y1="286.39499" x2="307.67279" y2="338.09625">
			<stop offset="0" stop-color="#1B1A1A" stop-opacity="0.56078434"/>
			<stop offset="1" stop-color="#1C1B1A" stop-opacity="0.70980394"/>
		</linearGradient>
	</defs>
	<path fill="url(#gradient_2)" d="M302.085 219.421C303.325 234.346 302.518 249.956 302.527 264.95L302.599 351.433C302.542 353.239 302.411 354.531 303.332 356.13C304.382 356.412 304.137 356.563 305.196 355.951C306.199 355.371 305.861 355.674 306.432 354.996L306.935 357.02C310.309 358.968 343.429 358.617 349.765 358.54C335.133 361.043 317.438 356.786 303.322 360.006C297.741 360.071 291.435 359.642 285.959 360.559C282.965 360.752 280.011 360.673 277.015 360.582C269.456 359.781 261.456 360.324 253.849 360.358C247.858 360.386 241.335 359.866 235.423 360.714C234.577 362.148 234.635 363.463 234.584 365.072C234.438 364.507 234.3 363.77 234.05 363.231C233.534 362.12 233.487 361.852 232.349 361.431C231.086 362.556 230.987 363.548 230.469 365.136C230.371 361.599 230.852 359.013 232.252 355.75C245.107 354.805 257.922 355.458 270.794 355.644C261.739 345.119 251.574 335.485 241.896 325.531Q214.744 297.354 187.086 269.672C178.418 260.949 168.755 252.628 160.736 243.363C161.699 242.717 162.654 242.127 163.447 241.269L162.944 239.566C167.54 242.259 187.157 263.552 192.029 268.469L278.008 355.364C285.959 355.586 293.96 355.411 301.917 355.417L301.938 266.407C301.929 250.823 301.228 234.965 302.085 219.421Z"/>
	<path fill="#926700" d="M118.614 299.608Q120.058 295.387 121.804 291.281C128.772 274.937 139.527 260.867 152.183 248.551C154.031 246.753 156.72 243.578 159.163 242.802C159.906 242.567 160.138 242.98 160.736 243.363C168.755 252.628 178.418 260.949 187.086 269.672Q214.744 297.354 241.896 325.531C251.574 335.485 261.739 345.119 270.794 355.644C257.922 355.458 245.107 354.805 232.252 355.75C230.852 359.013 230.371 361.599 230.469 365.136L230.464 366.905C229.585 372.017 230.086 377.967 230.09 383.172Q230.159 396.98 229.972 410.786C220.997 402.684 212.594 393.899 204.051 385.344L163.148 344.358L134.735 315.972C129.374 310.638 123.452 305.393 118.614 299.608Z"/>
	<path fill="#926700" d="M118.614 299.608C123.452 305.393 129.374 310.638 134.735 315.972L163.148 344.358L204.051 385.344C212.594 393.899 220.997 402.684 229.972 410.786Q230.16 396.98 230.09 383.172C230.086 377.967 229.585 372.017 230.464 366.905C231.478 383.081 230.344 399.631 230.423 415.851Q230.668 433.28 230.666 450.711C230.68 456.606 231.009 462.749 230.444 468.617C230.423 479.605 230.26 490.669 230.624 501.65C230.614 504.414 230.959 507.607 229.978 510.216C229.448 510.638 229.312 510.973 228.572 510.875C227.386 510.717 226.283 509.842 225.375 509.095Q221.674 505.387 218.039 501.614C216.147 498.317 197.476 480.459 193.527 476.896C189.043 470.588 178.754 461.649 172.934 455.859C171.853 455.859 170.689 455.863 169.688 455.394C164.048 452.753 157.5 443.213 152.047 439.027C151.783 438.825 151.515 438.628 151.253 438.423C149.697 437.21 148.711 436.118 146.662 436.057C141.978 432.888 135.733 424.959 131.531 420.604C125.496 414.351 119.211 408.328 113.054 402.195C113.445 400.049 113.414 398.098 113.335 395.931C111.554 392.416 112.886 335.931 113.677 326.733C114.312 319.333 115.613 312.133 117.058 304.859L117.664 304.146C118.746 304.679 118.19 304.468 119.329 304.786C120.039 303.792 120.25 303.564 120.37 302.367C120.12 302.228 119.175 301.721 118.991 301.543C118.17 300.749 118.464 300.541 118.614 299.608ZM118.614 299.608C118.464 300.541 118.17 300.749 118.991 301.543C119.175 301.721 120.12 302.228 120.37 302.367C120.25 303.564 120.039 303.792 119.329 304.786C118.19 304.468 118.746 304.679 117.664 304.146L117.058 304.859C129.083 315.585 140.092 327.951 151.512 339.364L230.036 417.723Q230.237 434.369 230.192 451.016C230.198 456.787 229.83 462.881 230.444 468.617C231.009 462.749 230.68 456.606 230.666 450.711Q230.668 433.28 230.423 415.851C230.344 399.631 231.478 383.081 230.464 366.905C229.585 372.017 230.086 377.967 230.09 383.172Q230.159 396.98 229.972 410.786C220.997 402.684 212.594 393.899 204.051 385.344L163.148 344.358L134.735 315.972C129.374 310.638 123.452 305.393 118.614 299.608ZM113.335 395.931C113.414 398.098 113.445 400.049 113.054 402.195C119.211 408.328 125.496 414.351 131.531 420.604C135.733 424.959 141.978 432.888 146.662 436.057C148.711 436.118 149.697 437.21 151.253 438.423C151.515 438.628 151.783 438.825 152.047 439.027C157.5 443.213 164.048 452.753 169.688 455.394C170.689 455.863 171.853 455.859 172.934 455.859L140.124 422.469C131.344 413.4 123.011 404.084 113.335 395.931Z"/>
	<defs>
		<linearGradient id="gradient_3" gradientUnits="userSpaceOnUse" x1="148.68376" y1="429.95099" x2="143.72762" y2="434.19659">
			<stop offset="0" stop-color="#1B1A1A" stop-opacity="0.56862748"/>
			<stop offset="1" stop-color="#1C1B1B" stop-opacity="0.60784316"/>
		</linearGradient>
	</defs>
	<path fill="url(#gradient_3)" d="M113.335 395.931C123.011 404.084 131.344 413.4 140.124 422.469L172.934 455.859C171.853 455.859 170.689 455.863 169.688 455.394C164.048 452.753 157.5 443.213 152.047 439.027C151.783 438.825 151.515 438.628 151.253 438.423C149.697 437.21 148.711 436.118 146.662 436.057C141.978 432.888 135.733 424.959 131.531 420.604C125.496 414.351 119.211 408.328 113.054 402.195C113.445 400.049 113.414 398.098 113.335 395.931Z"/>
	<defs>
		<linearGradient id="gradient_4" gradientUnits="userSpaceOnUse" x1="169.94226" y1="370.10883" x2="183.55774" y2="351.89117">
			<stop offset="0" stop-color="#1C1C1E" stop-opacity="0.57254905"/>
			<stop offset="1" stop-color="#1C1A17" stop-opacity="0.61176473"/>
		</linearGradient>
	</defs>
	<path fill="url(#gradient_4)" d="M118.614 299.608C123.452 305.393 129.374 310.638 134.735 315.972L163.148 344.358L204.051 385.344C212.594 393.899 220.997 402.684 229.972 410.786Q230.16 396.98 230.09 383.172C230.086 377.967 229.585 372.017 230.464 366.905C231.478 383.081 230.344 399.631 230.423 415.851Q230.668 433.28 230.666 450.711C230.68 456.606 231.009 462.749 230.444 468.617C229.83 462.881 230.198 456.787 230.192 451.016Q230.237 434.369 230.036 417.723L151.512 339.364C140.092 327.951 129.083 315.585 117.058 304.859L117.664 304.146C118.746 304.679 118.19 304.468 119.329 304.786C120.039 303.792 120.25 303.564 120.37 302.367C120.12 302.228 119.175 301.721 118.991 301.543C118.17 300.749 118.464 300.541 118.614 299.608Z"/>
	<path fill="#1D1D1E" d="M720.996 217.521L767.057 217.602C802.001 217.687 830.92 218.287 860.924 239.717C862.314 240.77 863.77 241.784 865.095 242.916Q866.803 244.298 868.464 245.734Q870.126 247.171 871.739 248.661Q873.353 250.152 874.917 251.694Q876.481 253.237 877.993 254.829Q879.506 256.422 880.965 258.064Q882.425 259.706 883.83 261.394Q885.234 263.083 886.583 264.816Q887.932 266.55 889.223 268.327Q890.515 270.104 891.747 271.922Q892.98 273.74 894.152 275.598Q895.324 277.456 896.434 279.351Q897.545 281.246 898.593 283.176Q899.641 285.107 900.625 287.07Q901.609 289.034 902.528 291.029Q903.448 293.024 904.301 295.048Q905.154 297.072 905.941 299.123C906.457 301.135 906.998 303.108 907.678 305.071C913.645 325.1 913.272 347.479 912.876 368.236C912.726 376.073 912.17 384.113 912.776 391.925C913.26 395.647 912.987 399.412 912.404 403.106C913.194 475.845 912.31 548.564 912.576 621.308L912.631 629.277C913.305 636.059 912.574 643.138 912.552 649.97C912.494 668.283 913.749 704.892 907.898 721.426Q907.188 724.301 906.436 727.166C897.088 750.321 886.434 765.199 867.359 781.316L862.923 784.711C834.732 804.652 809.312 805.512 776.122 805.529C757.469 805.539 738.709 805.11 720.066 805.609L714.452 805.615C682.452 805.123 650.376 805.561 618.366 805.593L612.512 805.593C580.126 804.917 547.561 805.499 515.153 805.555L508.782 805.554C476.29 805.034 443.578 805.315 411.076 805.649C409.36 806.047 406.661 805.662 404.84 805.653C391.155 805.42 377.458 805.83 363.769 805.848L311.36 805.538C310.196 802.662 311.121 685.31 310.814 669.757C309.157 669.697 307.606 669.737 305.955 669.908Q290.348 670.065 274.741 669.992C247.006 697.862 219.785 726.261 191.819 753.892C185.593 760.043 174.338 773.111 168.02 777.376C171.41 771.683 186.737 756.966 192.166 751.466Q226.545 716.345 261.379 681.673C263.781 679.314 272.098 672.368 272.903 670.029L272.08 669.478C270.599 669.429 269.305 669.209 268.033 670.114Q249.147 669.643 230.255 669.716C230.28 651.83 230.764 633.797 229.827 615.935L167.121 678.977C157.825 688.509 148.759 698.282 139.358 707.706C136.253 710.819 132.703 715.109 128.996 717.4C131.274 713.979 134.826 710.894 137.692 707.941L153.225 691.929Q193.677 650.102 235.014 609.147C234.379 581.892 235.267 554.587 234.498 527.339C234.129 525.724 234.329 524.165 234.039 522.569C233.572 519.995 232.149 518.026 232.067 515.339C232.038 514.387 232.068 513.764 231.649 512.885C231.74 511.503 231.283 509.91 231.134 508.495C231.195 506.567 231.663 503.21 230.624 501.65C230.26 490.669 230.423 479.605 230.444 468.617C231.009 462.749 230.68 456.606 230.666 450.711Q230.668 433.28 230.423 415.851C230.344 399.631 231.478 383.081 230.464 366.905L230.469 365.136C230.987 363.548 231.086 362.556 232.349 361.431C233.487 361.852 233.534 362.12 234.05 363.231C234.3 363.77 234.438 364.507 234.584 365.072C234.635 363.463 234.577 362.148 235.423 360.714C241.335 359.866 247.858 360.386 253.849 360.358C261.456 360.324 269.456 359.781 277.015 360.582C280.011 360.673 282.965 360.752 285.959 360.559C291.435 359.642 297.741 360.071 303.322 360.006C317.438 356.786 335.133 361.043 349.765 358.54C343.429 358.617 310.309 358.968 306.935 357.02L306.432 354.996C306.657 338.534 306.54 322.056 306.576 305.592C306.594 296.896 306.328 288.072 306.927 279.4L306.892 261.106C307.339 246.656 307.48 232.047 307.46 217.594C339.473 217.176 371.539 217.55 403.558 217.585L409.503 217.566L509.517 217.564L515.005 217.545L612.007 217.7C613.802 217.518 615.696 217.61 617.504 217.584C650.15 217.634 682.868 217.259 715.507 217.897C717.328 217.696 719.167 217.625 720.996 217.521ZM230.469 365.136L230.464 366.905C231.478 383.081 230.344 399.631 230.423 415.851Q230.668 433.28 230.666 450.711C230.68 456.606 231.009 462.749 230.444 468.617C230.423 479.605 230.26 490.669 230.624 501.65C231.663 503.21 231.195 506.567 231.134 508.495C231.792 508.14 232.221 507.943 232.978 507.844C233.175 507.818 233.374 507.808 233.573 507.791C234.676 505.1 233.75 499.278 233.792 496.252C233.944 485.19 234.264 474.17 234.255 463.098C234.248 454.402 233.304 444.513 234.813 436Q235.061 400.535 234.584 365.072C234.438 364.507 234.3 363.77 234.05 363.231C233.534 362.12 233.487 361.852 232.349 361.431C231.086 362.556 230.987 363.548 230.469 365.136ZM349.765 358.54C335.133 361.043 317.438 356.786 303.322 360.006C312.18 361.147 321.985 359.993 330.959 360.01Q365.367 360.391 399.769 359.646L399.68 359.241L400.702 359.366C391.005 358.244 380.767 358.692 371.003 358.527C364.506 358.418 357.01 357.586 350.594 358.422C350.317 358.459 350.041 358.501 349.765 358.54ZM231.134 508.495C231.283 509.91 231.74 511.503 231.649 512.885C232.068 513.764 232.038 514.387 232.067 515.339C232.149 518.026 233.572 519.995 234.039 522.569C234.329 524.165 234.129 525.724 234.498 527.339C235.533 518.429 234.758 508.511 234.805 499.502L234.813 436C233.304 444.513 234.248 454.402 234.255 463.098C234.264 474.17 233.944 485.19 233.792 496.252C233.75 499.278 234.676 505.1 233.573 507.791C233.374 507.808 233.175 507.818 232.978 507.844C232.221 507.943 231.792 508.14 231.134 508.495Z"/>
	<path fill="#1D1D1E" fill-opacity="0.078431375" d="M231.134 508.495C231.792 508.14 232.221 507.943 232.978 507.844C233.175 507.818 233.374 507.808 233.573 507.791C234.676 505.1 233.75 499.278 233.792 496.252C233.944 485.19 234.264 474.17 234.255 463.098C234.248 454.402 233.304 444.513 234.813 436L234.805 499.502C234.758 508.511 235.533 518.429 234.498 527.339C234.129 525.724 234.329 524.165 234.039 522.569C233.572 519.995 232.149 518.026 232.067 515.339C232.038 514.387 232.068 513.764 231.649 512.885C231.74 511.503 231.283 509.91 231.134 508.495Z"/>
	<path fill="#1D1D1E" fill-opacity="0.91764706" d="M349.765 358.54C350.041 358.501 350.317 358.459 350.594 358.422C357.01 357.586 364.506 358.418 371.003 358.527C380.767 358.692 391.005 358.244 400.702 359.366L399.68 359.241L399.769 359.646Q365.367 360.391 330.959 360.01C321.985 359.993 312.18 361.147 303.322 360.006C317.438 356.786 335.133 361.043 349.765 358.54Z"/>
	<defs>
		<linearGradient id="gradient_5" gradientUnits="userSpaceOnUse" x1="237.09042" y1="436.2692" x2="228.37936" y2="435.83011">
			<stop offset="0" stop-color="#212022" stop-opacity="0.054901961"/>
			<stop offset="1" stop-color="#1C1D1A" stop-opacity="0.12941177"/>
		</linearGradient>
	</defs>
	<path fill="url(#gradient_5)" d="M230.469 365.136C230.987 363.548 231.086 362.556 232.349 361.431C233.487 361.852 233.534 362.12 234.05 363.231C234.3 363.77 234.438 364.507 234.584 365.072Q235.061 400.535 234.813 436C233.304 444.513 234.248 454.402 234.255 463.098C234.264 474.17 233.944 485.19 233.792 496.252C233.75 499.278 234.676 505.1 233.573 507.791C233.374 507.808 233.175 507.818 232.978 507.844C232.221 507.943 231.792 508.14 231.134 508.495C231.195 506.567 231.663 503.21 230.624 501.65C230.26 490.669 230.423 479.605 230.444 468.617C231.009 462.749 230.68 456.606 230.666 450.711Q230.668 433.28 230.423 415.851C230.344 399.631 231.478 383.081 230.464 366.905L230.469 365.136Z"/>
	<path fill="#926700" d="M795.493 616.263L863.988 685.025C878.014 699.223 891.254 714.183 906.436 727.166C897.088 750.321 886.434 765.199 867.359 781.316C863.176 777.858 859.458 773.623 855.635 769.765C846.5 760.548 837.617 751.113 828.604 741.78C818.889 731.721 808.856 721.976 799.04 712.017C785.252 698.027 771.648 683.846 757.699 670.019L795.709 669.991Q795.911 643.126 795.493 616.263Z"/>
	<path fill="#926700" d="M865.095 242.916Q866.803 244.298 868.464 245.734Q870.126 247.171 871.739 248.661Q873.353 250.152 874.917 251.694Q876.481 253.237 877.993 254.829Q879.506 256.422 880.965 258.064Q882.425 259.706 883.83 261.394Q885.234 263.083 886.583 264.816Q887.932 266.55 889.223 268.327Q890.515 270.104 891.747 271.922Q892.98 273.74 894.152 275.598Q895.324 277.456 896.434 279.351Q897.545 281.246 898.593 283.176Q899.641 285.107 900.625 287.07Q901.609 289.034 902.528 291.029Q903.448 293.024 904.301 295.048Q905.154 297.072 905.941 299.123C879.311 325.013 853.293 351.624 827.057 377.919C817.621 387.377 806.259 401.855 795.512 408.942L795.511 355.498L752.819 355.497C789.652 317.433 827.633 280.369 865.095 242.916Z"/>
	<path fill="#926700" d="M907.678 305.071C913.645 325.1 913.272 347.479 912.876 368.236C912.726 376.073 912.17 384.113 912.776 391.925C912.776 392.115 912.785 392.305 912.776 392.494C912.724 393.527 912.548 394.3 911.899 395.136C906.611 401.949 899.92 408.019 893.773 414.044L874.466 433.297L800.103 507.56C798.355 506.448 796.976 505.186 795.49 503.747L795.491 416.769L865.546 346.482C879.491 332.534 893.193 318.465 907.678 305.071Z"/>
	<path fill="#926700" d="M795.516 510.633C805.657 520.251 815.189 530.548 824.903 540.592Q840.534 556.663 856.448 572.455L886.765 602.781C895.475 611.361 904.718 619.973 912.631 629.277C913.305 636.059 912.574 643.138 912.552 649.97C912.494 668.283 913.749 704.892 907.898 721.426C906.647 721.087 905.318 719.795 904.382 718.923C895.311 710.48 886.938 700.948 878.152 692.159L795.485 608.778L795.516 510.633Z"/>
	<path fill="#926700" d="M803.649 511.607C813.773 500.896 909.887 404.087 912.404 403.106C913.194 475.845 912.31 548.564 912.576 621.308C903.649 612.979 895.209 604.114 886.633 595.429L852.84 561.169L803.649 511.607Z"/>
	<path fill="#926700" d="M720.996 217.521L767.057 217.602C802.001 217.687 830.92 218.287 860.924 239.717C849.704 252.636 836.33 264.656 824.178 276.801L745.574 355.513L720.808 355.486C720.351 341.711 720.705 327.816 720.702 314.03L720.996 217.521Z"/>
	<path fill="#926700" d="M720.246 669.987L750.872 669.993C758.863 677.085 766.017 685.725 773.604 693.321L843.437 764.424C850.021 771.094 856.17 778.224 862.923 784.711C834.732 804.652 809.312 805.512 776.122 805.529C757.469 805.539 738.709 805.11 720.066 805.609C719.247 792.074 719.974 778.009 719.972 764.42L720.246 669.987Z"/>
	<path fill="#926700" d="M311.492 669.977L405.019 669.995L405.01 763.515C404.996 777.56 404.568 791.607 404.84 805.653C391.155 805.42 377.458 805.83 363.769 805.848L311.36 805.538C311.939 790.131 311.49 774.58 311.49 759.155L311.492 669.977Z"/>
	<path fill="#926700" d="M618.482 669.991L714.556 669.961L714.458 759.759C714.442 775.001 713.97 790.395 714.452 805.615C682.452 805.123 650.376 805.561 618.366 805.593L618.482 669.991Z"/>
	<path fill="#926700" d="M515.494 669.992L612.517 669.998L612.512 805.593C580.126 804.917 547.561 805.499 515.153 805.555C516.312 760.436 515.502 715.131 515.494 669.992Z"/>
	<path fill="#926700" d="M307.46 217.594C339.473 217.176 371.539 217.55 403.558 217.585C404.287 221.153 403.82 225.529 403.82 229.187L403.802 253.148L403.497 355.242C371.309 354.526 339.119 355.566 306.944 355.219Q306.894 333.654 307.061 312.092C307.194 301.368 307.853 290.074 306.927 279.4L306.892 261.106C307.339 246.656 307.48 232.047 307.46 217.594Z"/>
	<path fill="#926700" d="M410.494 669.987L509.519 669.998L509.257 753.756L509.026 784.004C509.017 791.185 509.329 798.389 508.782 805.554C476.29 805.034 443.578 805.315 411.076 805.649C409.575 802.852 410.498 683.321 410.494 669.987Z"/>
	<path fill="#926700" d="M515.005 217.545L612.007 217.7L612.267 355.515L514.786 355.177C514.128 336.744 514.837 318.131 514.965 299.689L515.005 217.545Z"/>
	<path fill="#926700" d="M617.504 217.584C650.15 217.634 682.868 217.259 715.507 217.897L715.498 355.201L617.472 355.258L617.504 217.584Z"/>
	<path fill="#926700" d="M409.503 217.566L509.517 217.564L509.498 355.201C476.103 355.72 442.603 355.287 409.201 355.194C410.361 309.408 409.515 263.378 409.503 217.566Z"/>
	<path fill="#FE5735" d="M285.959 360.559C292.204 361.055 298.624 360.76 304.891 360.76L339.059 360.765L447.011 360.839L790.488 360.988L790.469 664.518L235.463 664.525L235.529 360.942C249.268 360.907 263.315 361.431 277.015 360.582C280.011 360.673 282.965 360.752 285.959 360.559Z"/>
	<path fill="#1D1D1E" d="M757.644 381.752C761.168 381.721 764.891 381.452 768.337 382.25C769.809 386.135 768.671 410.392 768.721 416.602L768.977 643.51L266.75 643.499L256.558 643.483C255.24 634.549 256.279 625.017 256.355 615.991L256.485 566.906L256.119 382.022L757.644 381.752Z"/>
	<path fill="#623B01" d="M529.713 390.249L764.004 389.994L764.007 638.807C734.122 638.016 704.038 638.639 674.135 638.605L498.25 638.496C419.868 638.544 341.372 637.719 263.006 638.869L263.489 390.666C293.097 391.205 322.828 390.58 352.452 390.549L529.713 390.249Z"/>
	<path fill="#1D1D1E" d="M641.975 435.036L673.704 434.738L673.661 441.244C663.048 441.771 652.374 441.284 641.746 441.538L641.975 435.036Z"/>
	<path fill="#1D1D1E" d="M441.927 608.819C448.386 595.425 456.013 582.816 463.126 569.781C468.317 560.27 472.888 549.823 479.449 541.174C481.249 544.565 483.171 547.897 485.049 551.245C471.193 571.571 460.393 594.016 448.47 615.512L407.897 615.502C409.105 613.393 410.496 611.274 411.45 609.042Q426.688 608.788 441.927 608.819Z"/>
	<path fill="#1D1D1E" d="M389.553 577.135C392.293 577.057 395.028 576.974 397.77 577.019C397.845 589.77 397.426 602.785 398.183 615.501L290.645 615.513L291.059 608.745C303.354 609.101 315.734 608.825 328.038 608.828L389.554 608.749C389.157 598.229 389.426 587.66 389.553 577.135Z"/>
	<path fill="#1D1D1E" d="M388.018 409.671C390.762 409.531 393.473 409.447 396.222 409.485C396.329 420.809 395.968 432.212 396.335 443.522L329.002 443.498C329.097 455.319 330.334 467.998 328.575 479.695C326.066 479.92 323.536 479.921 321.019 479.981C319.455 467.879 320.515 449.773 320.537 437.03L388.028 437.027L388.018 409.671Z"/>
	<path fill="#1D1D1E" d="M366.799 482.839C367.274 482.072 367.171 481.862 368.095 481.613C370.136 481.063 372.885 481.432 375.009 481.478L375.01 525.008L328.999 524.988C329.036 541.281 329.573 557.58 328.701 573.858C325.989 573.985 323.243 573.95 320.527 573.991L320.539 518.047Q343.53 518.04 366.52 517.762Q366.431 500.298 366.799 482.839Z"/>
	<path fill="#1D1D1E" d="M613.532 409.148C616.025 409.057 618.51 408.976 621.005 408.992L621.004 615.522C608.398 615.53 595.586 616.014 583.01 615.14L583.057 608.503L613.531 608.518L613.532 409.148Z"/>
	<path fill="#1D1D1E" d="M553.487 408.386L563.925 408.836Q545.218 440.194 527.493 472.118C520.411 484.593 512.779 496.949 506.1 509.631C519.384 530.688 531.109 552.927 543.572 574.493C551.357 587.964 560.778 600.767 566.898 615.129C552.204 615.843 537.399 615.552 522.69 615.482C521.547 613.183 520.405 611.077 519.936 608.525L559.268 608.524C550.614 593.548 541.359 578.912 532.689 563.937C521.452 544.531 510.587 524.573 498.367 505.768C504.978 491.986 513.447 479.094 520.964 465.787C531.747 446.699 541.998 427.04 553.487 408.386Z"/>
	<path fill="#1D1D1E" d="M744.25 407.541L751.008 407.467L751.005 441.788C740.337 441.605 729.67 442.065 718.998 441.989L719.016 558.074C719.04 577.08 719.958 596.278 719.145 615.268Q698.816 615.607 678.485 615.51L678.555 608.523L711.532 608.518L711.537 435.029L744.356 435.017L744.407 428.095C744.745 421.322 744.656 414.311 744.25 407.541Z"/>
	<path fill="#FEFEFE" d="M576.666 404.497C585.082 404.509 605.662 403.182 612.598 404.906C613.687 406.376 613.456 407.349 613.532 409.148L613.531 608.518L583.057 608.503L576.757 608.493C576.031 585.502 576.675 562.298 576.673 539.283L576.666 404.497Z"/>
	<path fill="#FEFEFE" d="M635.98 404L744.013 403.998C744.011 411.867 743.42 420.301 744.407 428.095L744.356 435.017L711.537 435.029L711.532 608.518L678.555 608.523C676.522 608.536 675.429 608.612 673.91 607.229C673.528 606.332 673.323 605.677 673.314 604.688C673.158 586.624 673.618 568.504 673.67 550.431L673.661 441.244L673.704 434.738L641.975 435.036C640.034 435.058 638.107 434.842 636.176 434.668C635.407 424.449 635.73 414.232 635.98 404Z"/>
	<path fill="#FEFEFE" d="M284.666 404.496L352.769 404.452C364.124 404.442 376.161 403.602 387.404 404.681C388.338 405.98 388.033 408.105 388.018 409.671L388.028 437.027L320.537 437.03C320.515 449.773 319.455 467.879 321.019 479.981C323.536 479.921 326.066 479.92 328.575 479.695C335.084 479.674 362.052 478.225 366.275 480.464C366.455 481.254 366.648 482.043 366.799 482.839Q366.431 500.299 366.52 517.762Q343.53 518.04 320.539 518.047L320.527 573.991C323.243 573.95 325.989 573.985 328.701 573.858C337.61 573.591 385.734 572.376 389.139 574.288C389.496 575.296 389.548 576.069 389.553 577.135C389.426 587.66 389.157 598.229 389.554 608.749L328.038 608.828C315.734 608.825 303.354 609.101 291.059 608.745L284.712 609.064C284.327 586.023 284.677 562.911 284.675 539.863L284.666 404.496Z"/>
	<path fill="#FEFEFE" d="M513.487 404.022C527.593 403.856 541.713 403.995 555.822 404.018L553.487 408.386C541.998 427.04 531.747 446.699 520.964 465.787C513.447 479.094 504.978 491.986 498.367 505.768C510.587 524.573 521.452 544.531 532.689 563.937C541.359 578.912 550.614 593.548 559.268 608.524L519.936 608.525C518.942 608.51 517.986 608.42 516.996 608.329C515.747 607.572 515.096 606.401 514.359 605.182C510.355 598.558 507.01 591.353 503.37 584.505Q494.426 567.756 485.049 551.245C483.171 547.897 481.249 544.565 479.449 541.174C472.888 549.823 468.317 560.27 463.126 569.781C456.013 582.816 448.386 595.425 441.927 608.819Q426.688 608.788 411.45 609.042L401.845 609.031C405.724 599.819 411.633 590.824 416.543 582.046L444.932 531.806C449.965 522.865 455.324 513.968 459.839 504.76C449.295 487.184 439.934 468.981 430.158 450.977C421.787 435.563 412.839 420.342 405.312 404.494L445.276 404.493C446.014 406.051 446.834 407.554 447.662 409.066C448.98 408.403 449.355 407.891 450.805 408.327C456.795 414.952 479.69 457.241 480.853 465.581L513.487 404.022Z"/>
	<path fill="#1D1D1E" d="M447.662 409.066C448.98 408.403 449.355 407.891 450.805 408.327C456.795 414.952 479.69 457.241 480.853 465.581C480.47 466.602 480.033 467.296 479.366 468.157L478.91 468.052Q478.249 466.671 477.551 465.309L477.121 465.533C477.307 463.353 450.941 415.09 447.662 409.066Z"/>
</svg>
