<?xml version="1.0" encoding="utf-8" ?>
<svg xmlns="http://www.w3.org/2000/svg" xmlns:xlink="http://www.w3.org/1999/xlink" width="1024" height="1024">
	<path fill="#D38D29" d="M136.734 431.561C158.35 336.443 222.476 246.62 304.892 194.649C393.643 138.683 496.887 120.337 599.317 143.686C614.991 147.259 630.278 152.225 645.336 157.826C723.77 187 789.726 240.563 834.184 311.465C862.476 356.584 881.019 406.531 890.172 458.951C873.315 447.297 854.791 438.298 836.134 429.978C832.741 418.125 829.155 406.3 824.672 394.807C792.853 313.254 727.839 243.832 647.333 208.743C567.31 173.863 474.734 170.508 393.142 202.569C324.349 229.6 263.393 278.568 225.043 342.092C216.775 355.786 210.071 369.989 203.678 384.626C174.062 395.225 162.216 411.369 139.74 430.132C138.562 431.116 138.274 431.705 136.734 431.561Z"/>
	<path fill="#1D1D1E" d="M203.678 384.626C210.071 369.989 216.775 355.786 225.043 342.092C263.393 278.568 324.349 229.6 393.142 202.569C474.734 170.508 567.31 173.863 647.333 208.743C727.839 243.832 792.853 313.254 824.672 394.807C829.155 406.3 832.741 418.125 836.134 429.978C854.791 438.298 873.315 447.297 890.172 458.951C890.453 461.709 890.626 464.397 891.564 467.026C887.181 465 883.281 461.105 879.079 458.596C864.388 449.821 848.863 441.397 832.901 435.136C715.457 389.068 567.481 394.83 443.454 405.623C426.413 407.106 409.166 409.241 392.256 411.819C377.318 414.096 357.92 420.771 343.226 418.269C332.931 416.517 324.909 408.824 315.959 403.978C307.074 399.167 297.834 394.995 288.282 391.7C246.909 377.427 202.147 382.965 168.372 411.914C157.774 420.998 148.564 433.51 135.769 439.629C135.595 439.712 135.419 439.791 135.244 439.873L136.734 431.561C138.274 431.705 138.562 431.116 139.74 430.132C162.216 411.369 174.062 395.225 203.678 384.626Z"/>
	<path fill="#D38D29" d="M496.098 300.728C513.366 300.713 531.094 299.895 548.319 301.075C547.739 331.697 549.253 362.409 548.393 393.04C540.956 393.944 533.121 393.808 525.625 394.119C508.716 394.67 491.853 395.937 474.978 397.099C476.036 365.134 475.499 332.982 475.49 301C482.366 301.01 489.227 301.02 496.098 300.728Z"/>
	<path fill="#926700" d="M494.522 185.712C502.171 185.023 510.234 185.292 517.926 185.397C565.587 186.046 613.59 196.986 656.476 217.94C723.035 250.46 777.185 305.414 809.511 372.028C818.318 390.176 824.995 409.241 831.534 428.293C813.334 421.751 795.075 416.278 776.43 411.202C773.274 401.265 768.722 391.848 763.715 382.725C733.918 328.425 687.808 282.515 631.182 256.641C615.358 249.411 598.837 244.193 582.154 239.359C533.49 226.934 483.465 227.861 435.138 241.665C372.43 259.576 314.924 299.65 277.505 353.2C271.786 361.383 266.867 369.951 262.029 378.674C242.501 377.261 228.122 377.646 208.957 382.929C220.288 354.882 238.287 327.754 257.851 304.814C319.861 232.104 399.564 193.294 494.522 185.712Z"/>
	<path fill="#926700" d="M506.8 235.722C540.464 235.919 573.739 240.527 605.573 251.751C664.491 272.526 714.494 313.727 748.083 366.231C757.025 380.208 764.433 395.013 771.581 409.967C705.946 393.74 620.078 389.116 552.703 393.042L552.55 296.5L530.25 296.515L470.907 296.735C470.266 330.302 470.531 363.891 470.559 397.464C445.51 399.011 420.128 401.872 395.327 405.706C382.065 407.756 368.852 411.03 355.497 412.317C351.283 412.723 346.797 412.917 342.677 411.764C333.869 409.298 326.402 402.576 318.448 398.255C302.267 389.464 284.895 383.264 266.873 379.585C274.546 364.181 286.381 348.852 297.633 335.91C341.112 285.9 398.904 252.013 464.311 240.271C478.408 237.741 492.534 236.721 506.8 235.722Z"/>
	<path fill="#1D1D1E" d="M135.244 439.873C135.419 439.791 135.595 439.712 135.769 439.629C148.564 433.51 157.774 420.998 168.372 411.914C202.147 382.965 246.909 377.427 288.282 391.7C297.834 394.995 307.074 399.167 315.959 403.978C324.909 408.824 332.931 416.517 343.226 418.269C357.92 420.771 377.318 414.096 392.256 411.819C409.166 409.241 426.413 407.106 443.454 405.623C567.481 394.83 715.457 389.068 832.901 435.136C848.863 441.397 864.388 449.821 879.079 458.596C883.281 461.105 887.181 465 891.564 467.026C918.571 486.481 941.085 514.777 951.107 546.652C965.697 597.302 956.47 649.892 931.151 695.627C888.684 772.335 811.35 825.286 728.003 849.089C703.534 856.077 677.62 860.795 652.22 862.518C645.527 863.786 638.628 863.384 631.884 864.284C635.868 865.632 641.187 866.226 644.68 868.337L644.41 868.786L644.041 868.818C621.02 878.81 594.633 883.484 569.912 886.802C466.107 900.73 366.165 876.853 282.577 812.996C215.858 762.026 166.969 689.734 144.673 608.792C139.377 589.564 135.887 570.102 133.226 550.353C132.797 548.34 132.481 546.297 132.128 544.268C120.521 540.139 102.732 538.074 92.886 531.157C85.571 527.642 79.5238 522.727 74.4941 516.367C73.3732 515.145 72.504 513.705 71.5806 512.329C70.2225 510.297 69.0052 508.093 67.9572 505.887C64.2621 498.109 62.6317 489.775 65.7359 481.436C73.5743 460.38 101.457 454.482 120.039 447.246C125.278 445.206 130.175 442.293 135.244 439.873Z"/>
	<path fill="#926700" d="M820.658 588.076L821.012 588.167C822.111 590.606 819.699 597.095 818.969 599.865L812.806 595.752C810.812 594.421 808.606 593.293 806.528 592.09C811.273 591.019 815.954 589.353 820.658 588.076Z"/>
	<path fill="#FEE172" d="M305.462 607.857C315.692 604.76 324.694 604.761 334.314 609.89C336.447 611.026 338.494 612.414 340.418 613.874C339.715 614.163 339.05 614.424 338.272 614.403C334.145 614.295 329.37 611.36 325.266 610.382C321.513 609.487 317.239 609.933 313.376 609.568C311.066 609.35 307.032 609.474 305.462 607.857Z"/>
	<path fill="#FE5F3A" d="M305.462 607.857C307.032 609.474 311.066 609.35 313.376 609.568C317.239 609.933 321.513 609.487 325.266 610.382C329.37 611.36 334.145 614.295 338.272 614.403C339.05 614.424 339.715 614.163 340.418 613.874C344.058 615.461 350.137 619.438 354.042 617.779C354.32 617.661 354.592 617.532 354.867 617.408C359.59 618.395 367.702 619.115 370.7 623.279C371.797 624.802 372.114 626.768 371.788 628.597C371.763 628.735 371.72 628.868 371.686 629.003C368.115 639.508 379.186 652.502 381.763 662.284C377.897 661.637 363.648 645.556 360.805 641.849C357.296 645.998 353.44 649.848 349.965 654.044C344.254 660.942 339.349 668.22 334.445 675.7C337.98 658.908 342.97 650.284 350.177 635.412C332.37 636.031 316.076 640.696 298.99 645.108C304.367 640.304 309.669 635.671 316.262 632.602C319.385 631.148 322.683 629.945 326.003 629.029C330.271 627.851 339.154 627.389 342.235 624.336C342.128 623.215 342.355 623.549 341.648 622.836C339.703 620.871 336.118 619.623 333.544 618.645C321.041 613.891 308.947 612.373 295.703 611.862C298.924 610.435 302.116 608.974 305.462 607.857Z"/>
	<path fill="#D38D29" d="M855.241 564.85C860.419 567.25 864.323 578.032 866.69 583.041C864.719 599.127 860.661 614.916 858.161 630.927C854.082 626.641 849.552 623.295 844.753 619.878C836.941 614.043 829.449 607.758 821.654 601.887C823.358 596.46 824.895 591.049 826.245 585.522C836.918 581.081 847.052 572.89 855.241 564.85Z"/>
	<path fill="#FE5F3A" d="M845.035 630.102C846.138 632.127 846.9 633.8 846.175 636.139C844.659 641.03 838.025 644.572 833.657 646.634C798.606 663.188 803.035 666.708 784.142 698.202C778.928 706.895 772.294 714.125 766.426 722.289C771.132 708.867 776.95 695.803 781.93 682.467C783.723 677.667 785.933 672.649 787.131 667.672C762.335 675.6 756.257 676.36 742.828 699.481C744.988 688.63 746.569 674.114 756.571 667.457C764.051 662.479 773.751 661.043 781.886 657.207C774.808 658.263 767.647 659.217 760.486 659.422C745.767 659.844 732.831 657.784 719.453 665.448C729.063 656.55 739.238 651.471 752.45 650.96C755.064 650.859 771.251 651.766 772.043 651.052C772.309 650.812 772.284 650.377 772.404 650.039C772.931 650.288 772.795 650.119 772.961 650.375C772.79 650.318 772.619 650.258 772.448 650.203C768.915 649.071 765.211 648.666 761.584 647.925C750.615 645.686 739.929 644.044 728.842 642.549C735.595 641.061 742.348 639.482 749.29 639.3C758.998 639.046 768.693 640.678 778.394 640.361C793.757 639.86 808.811 637.361 823.926 634.768C831.162 633.809 838.004 632.004 845.035 630.102Z"/>
	<path fill="#926700" d="M384.848 578.443C371.642 569.427 355.136 557.469 351.715 540.728C350.585 535.201 351.143 529.311 354.464 524.61C358.587 518.773 365.802 516.043 372.63 515.016C386.292 512.961 398.707 518.365 409.489 526.384C422.77 536.262 440.685 554.598 443.161 571.717C444.097 578.188 442.193 584.292 438.222 589.43C427.162 603.737 388.727 622.212 371.686 629.003C371.72 628.868 371.763 628.735 371.788 628.597C372.114 626.768 371.797 624.802 370.7 623.279C367.702 619.115 359.59 618.395 354.867 617.408C373.16 593.191 378.168 582.639 409.046 574.74C400.423 574.023 393.093 576.109 384.848 578.443Z"/>
	<path fill="#D38D29" d="M477.307 601.512L546.817 601.491C546.371 642.056 546.792 682.687 546.793 723.257C524.503 724.915 499.574 723.508 476.997 723.494L476.979 649.726C476.98 633.664 476.751 617.565 477.307 601.512Z"/>
	<path fill="#FAE8C2" d="M285.535 506.168C285.806 506.288 286.075 506.411 286.348 506.528C292.066 508.967 298.79 509.245 304.665 511.665C322.17 518.875 333.131 532.859 346.256 545.539C352.234 559.382 362.538 567.782 373.056 577.956C362.351 576.619 351.466 576.18 340.704 575.399C324.808 574.246 308.93 572.857 293.082 571.164C246.662 566.207 200.749 557.047 155.237 546.828C134.226 542.11 113.297 538.183 92.886 531.157C85.571 527.642 79.5238 522.727 74.4941 516.367C102.663 517.991 130.665 521.609 158.845 523.386C171.458 524.181 184.108 524.481 196.74 524.799C210.536 525.147 224.864 525.879 238.521 523.712C248.848 522.073 258.692 518.797 268.386 514.971C274.266 512.65 280.736 510.396 285.535 506.168Z"/>
	<path fill="#FE5F3A" d="M867.638 546.025C876.999 548.242 900.196 547.002 910.843 546.993C924.061 546.982 937.959 547.917 951.107 546.652C965.697 597.302 956.47 649.892 931.151 695.627C888.684 772.335 811.35 825.286 728.003 849.089C703.534 856.077 677.62 860.795 652.22 862.518C643.823 862.179 635.205 863.052 626.755 862.961C610.99 862.793 595.673 861.423 580.04 859.521C648.651 851.422 709.591 826.097 765.551 785.965C814.842 750.616 866.542 696.502 876.533 634.237C880.951 606.705 876.169 582.105 859.871 559.407C862.575 555.003 865.126 550.54 867.638 546.025Z"/>
	<path fill="#926700" d="M183.154 559.211C198.568 562.664 214.222 565.264 229.737 568.247C232.169 581.374 236.346 593.637 241.169 606.042C259.798 653.952 290.761 696.737 330.755 729.112C391.679 778.43 464.743 801.053 542.887 792.755C629.372 783.571 694.049 741.435 748.018 674.709C745.816 680.516 744.172 686.905 742.774 692.961C741.929 696.622 739.425 705.766 741.467 709.055C742.71 709.161 743.622 707.419 744.264 706.457C752.273 694.467 755.391 684.756 769.143 677.891C772.119 676.406 775.905 674.535 779.228 675.641C779.904 677.03 779.427 677.802 779.088 679.279C775.134 693.733 771.555 711.699 763.087 724.213C756.129 734.497 746.29 742.976 737.173 751.312C693.734 791.033 640.121 821.38 582.038 832.866C491.231 850.824 404.611 834.756 327.546 783.077C270.102 744.557 224.72 687.366 200.454 622.587C192.786 602.118 187.371 580.634 183.154 559.211Z"/>
	<path fill="#D38D29" d="M133.226 550.353L133.54 548.787C136.311 548.019 173.99 557.219 179.232 558.818C183.893 580.174 188.825 601.533 196.29 622.117C222.647 694.79 274.24 753.665 338.858 795.179C411.407 841.787 502.057 854.828 585.775 836.409C645.535 823.261 695.858 794.607 741.093 753.883C757.63 738.996 773.557 722.756 785.562 703.914C796.247 687.145 802.262 666.553 820.525 656.379C828.853 651.74 837.9 648.647 845.956 643.459C847.181 643.67 848.231 643.999 849.396 644.411C850.173 643.945 850.279 644.092 850.551 643.14C851.733 639.004 850.005 631.74 849.072 627.514C851.88 630.028 854.719 632.513 857.487 635.071C846.082 700.972 811.216 746.7 757.503 784.57C706.819 820.305 652.43 841.06 591.479 851.468C575.689 854.164 559.952 856.733 543.913 857.176C561.698 864.258 599.832 869.534 619.568 869.737C627.665 869.82 636.045 868.487 644.041 868.818C621.02 878.81 594.633 883.484 569.912 886.802C466.107 900.73 366.165 876.853 282.577 812.996C215.858 762.026 166.969 689.734 144.673 608.792C139.377 589.564 135.887 570.102 133.226 550.353Z"/>
	<path fill="#926700" d="M235.381 569.326C239.901 569.73 244.536 570.791 249.023 571.533C256.726 572.807 264.406 573.962 272.156 574.916C290.321 577.152 308.556 578.785 326.787 580.384C343.75 581.872 360.639 583.4 377.66 584.025C368.005 593.613 358.354 604.151 352.04 616.265C342.993 610.64 332.855 603.088 322.065 601.754C311.323 600.427 298.264 604.12 289.933 611.071C288.695 612.104 288.052 612.871 287.911 614.482C290.119 617.479 295.369 616.185 298.658 615.94C311.262 615.002 323.412 618.936 335.229 622.776C328.489 624.398 321.905 625.301 315.439 628.007C308.747 630.806 291.95 642.983 290.13 649.907C289.804 651.148 289.894 651.371 290.535 652.359C293.391 653.578 308.111 646.689 311.959 645.527C321.652 642.6 331.863 641.519 341.875 640.281L341.403 641.312C337.252 650.545 327.374 674.417 330.77 683.419C331.76 684.291 331.707 684.375 333.009 684.365C338.568 678.683 342.422 670.936 346.909 664.4C350.861 658.643 355.466 653.548 360.256 648.496C366.628 655.154 374.745 664.645 383.04 668.611C384.541 669.329 385.397 669.461 386.959 668.91C387.282 668.376 387.36 668.324 387.529 667.636C388.65 663.076 375.554 637.287 372.956 631.896C396.686 623.559 412.94 614.31 434.417 601.508L472.486 601.504L472.05 729.503L521.551 729.741C531.367 729.798 541.256 730.466 551.027 729.323C552.072 713.296 551.48 697.242 551.474 681.194L551.522 601.492L620.25 601.496L721.587 600.979C727.835 617.199 738.823 627.04 755.066 632.759C759.931 634.472 765.246 635.368 769.92 637.522C770.072 637.592 770.222 637.666 770.372 637.739C761.516 636.853 752.526 635.729 743.612 635.813C734.112 635.903 724.343 638.461 717.644 645.621C716.676 646.656 716.008 647.529 716.036 648.977C718.425 650.94 729.424 647.533 732.929 647.126C735.323 646.849 737.829 646.977 740.237 647.032C737.393 648.317 734.497 649.552 731.738 651.013C723.746 655.242 709.276 666.543 706.599 675.404C706.851 675.749 707.184 676.489 707.661 676.513C712.234 676.744 719.003 671.604 723.191 669.445C727.336 667.307 742.357 661.701 746.682 663.554C747.303 663.82 747.276 664.385 747.466 664.971C747.21 666.498 746.71 667.645 745.949 668.995C740.506 678.648 731.233 687.752 723.672 695.809C686.284 735.644 640.255 766.228 587.175 780.626C517.152 799.62 438.321 790.023 375.403 753.824C322.189 723.209 277.379 675.653 252.408 619.421C245.229 603.256 239.989 586.373 235.381 569.326Z"/>
	<path fill="#926700" d="M135.244 439.873C135.419 439.791 135.595 439.712 135.769 439.629C148.564 433.51 157.774 420.998 168.372 411.914C202.147 382.965 246.909 377.427 288.282 391.7C297.834 394.995 307.074 399.167 315.959 403.978C324.909 408.824 332.931 416.517 343.226 418.269C357.92 420.771 377.318 414.096 392.256 411.819C409.166 409.241 426.413 407.106 443.454 405.623C567.481 394.83 715.457 389.068 832.901 435.136C848.863 441.397 864.388 449.821 879.079 458.596C883.281 461.105 887.181 465 891.564 467.026C918.571 486.481 941.085 514.777 951.107 546.652C937.959 547.917 924.061 546.982 910.843 546.993C900.196 547.002 876.999 548.242 867.638 546.025C870.788 537.201 871.95 529.001 872.639 519.722C870.482 525.437 868.864 531.269 866.297 536.837C857.398 556.143 841.945 572.034 822.497 580.76C803.335 589.357 788.909 585.174 769.15 584.414C786.17 588.853 801.491 594.492 815.844 604.903C822.02 609.382 827.829 614.372 834.084 618.744C838.979 622.165 844.612 624.275 849.518 627.695C847.187 626.927 844.989 626.11 842.518 625.961L841.917 626.515C842.49 628.086 843.82 629.021 845.035 630.102C838.004 632.004 831.162 633.809 823.926 634.768C821.541 633.195 806.212 634.85 802.332 634.808C795.659 634.736 789.014 634.383 782.385 633.595C769.563 632.07 756.166 628.854 745.163 621.818C735.39 615.569 729.42 605.664 727.052 594.433C723.378 577.005 728.048 558.876 737.688 544.168C753.55 519.964 782.954 505.459 810.311 498.483C816.717 496.849 823.307 496.026 829.785 494.708L829.476 494.272C827.744 494.294 826.009 494.328 824.281 494.457C794.425 496.691 758.881 510.556 739.042 533.376C723.722 550.999 718.739 570.225 720.381 593.205C688.562 593.6 656.716 593.35 624.893 593.382L442.791 593.49C447.419 586.014 449.916 578.482 448.292 569.608C444.549 549.157 426.745 530.811 410.151 519.591C397.918 511.32 384.62 506.842 369.837 509.798C361.722 511.42 353.396 515.235 348.786 522.43C344.306 529.422 344.727 537.752 346.256 545.539C333.131 532.859 322.17 518.875 304.665 511.665C298.79 509.245 292.066 508.967 286.348 506.528C286.075 506.411 285.806 506.288 285.535 506.168C280.736 510.396 274.266 512.65 268.386 514.971C258.692 518.797 248.848 522.073 238.521 523.712C224.864 525.879 210.536 525.147 196.74 524.799C184.108 524.481 171.458 524.181 158.845 523.386C130.665 521.609 102.663 517.991 74.4941 516.367C73.3732 515.145 72.504 513.705 71.5806 512.329C70.2225 510.297 69.0052 508.093 67.9572 505.887C64.2621 498.109 62.6317 489.775 65.7359 481.436C73.5743 460.38 101.457 454.482 120.039 447.246C125.278 445.206 130.175 442.293 135.244 439.873Z"/>
	<path fill="#1D1D1E" d="M92.8421 476.916L93.418 477.757C93.1253 479.417 92.9511 480.766 93.1523 482.445C93.8582 483.647 94.2055 484.053 95.4886 484.616C96.8006 484.544 96.9213 484.545 97.9573 483.75C98.586 481.508 97.4337 479.882 97.5505 477.594C97.669 477.662 97.7965 477.716 97.9061 477.798C99.5938 479.055 100.475 481.728 100.919 483.698C100.659 485.347 100.359 487.177 99.3068 488.532C98.3934 489.708 96.9823 490.485 95.473 490.458C94.0536 490.432 92.7095 489.726 91.7125 488.75C90.3231 487.39 89.546 485.501 89.5328 483.559C89.5135 480.71 90.8557 478.799 92.8421 476.916Z"/>
	<path fill="#1D1D1E" d="M592.651 478.759C630.189 477.51 668.589 481.38 705.624 487.158C714.487 488.541 724.156 489.402 732.729 491.867C735.224 492.584 737.75 493.089 740.291 493.614L740.007 493.447C737.981 494.453 706.197 488.49 701.191 487.881C667.048 483.728 632.162 481.311 597.75 481.494C568.474 481.326 538.741 483.606 509.753 487.55C496.366 489.372 483.014 491.892 469.738 494.401C465.316 495.236 457.656 498.216 453.464 497.727C462.883 494.549 472.525 493.06 482.229 491.091C518.881 483.652 555.347 480.32 592.651 478.759Z"/>
	<path fill="#1D1D1E" d="M589.915 445.235C602.622 444.608 615.779 445.131 628.486 445.686C673.93 447.672 718.046 454.686 761.964 466.402C768.051 468.026 784.01 471.932 788.592 474.727C786.32 475.181 775.685 471.547 772.883 470.774C758.542 466.82 744.133 463.347 729.577 460.289C685.446 451.016 640.691 448.233 595.694 447.73C552.362 447.803 509.42 451.705 466.762 459.308C452.964 461.768 438.677 464.248 425.272 468.277C422.57 469.089 397.778 475.568 397.704 475.535C402.047 472.095 409.056 471.594 414.287 469.97C426.121 466.297 438.155 463.681 450.262 461.062C496.246 451.116 542.905 446.345 589.915 445.235Z"/>
	<path fill="#1D1D1E" d="M71.5806 512.329C84.3444 514.548 97.7684 514.372 110.686 515.425C137.666 517.624 164.54 519.807 191.604 520.685C207.186 521.19 223.126 521.789 238.621 519.61C248.714 518.191 258.827 514.976 268.435 511.611C273.291 509.91 279.537 506.712 284.573 506.231C284.893 506.201 285.214 506.189 285.535 506.168C280.736 510.396 274.266 512.65 268.386 514.971C258.692 518.797 248.848 522.073 238.521 523.712C224.864 525.879 210.536 525.147 196.74 524.799C184.108 524.481 171.458 524.181 158.845 523.386C130.665 521.609 102.663 517.991 74.4941 516.367C73.3732 515.145 72.504 513.705 71.5806 512.329Z"/>
	<path fill="#1D1D1E" d="M579.694 416.258C649.43 414.493 720.446 421.503 787.012 443.062C793.421 445.137 810.934 450.644 815.739 453.839C816.001 454.014 816.197 454.283 816.475 454.43C816.681 454.538 816.928 454.534 817.154 454.587C815.949 454.411 816.463 454.557 815.366 454.129C749.232 428.328 679.232 419.938 608.686 419.229C597.898 418.329 586.575 419.083 575.743 419.276C526.858 420.151 477.318 424.987 429.269 434.018C412.865 437.1 396.637 440.653 380.495 444.911C377.897 445.596 367.257 449.373 365.566 448.888C365.932 448.728 366.301 448.573 366.659 448.397C376.412 443.599 391.576 440.726 402.231 438.213C460.711 424.419 519.693 417.785 579.694 416.258Z"/>
	<path fill="#1D1D1E" d="M226.078 400.168C234.819 398.531 245.811 401.484 253.212 406.229C261.536 411.566 267.763 420.684 269.791 430.358C271.94 440.602 269.781 451.782 263.925 460.456C257.268 470.317 247.517 475.236 236.081 477.419C225.178 478.454 214.238 476.901 205.18 470.345C197.229 464.591 192.199 455.543 190.759 445.901C189.169 435.252 192.237 424.389 198.616 415.779C205.586 406.369 214.682 401.874 226.078 400.168Z"/>
	<path fill="#FE5F3A" d="M205.021 414.431C212.648 407.207 221.377 403.247 232.034 403.516C241.17 403.746 250.894 407.815 257.217 414.467C263.707 421.295 266.988 430.65 266.653 440.019C266.326 449.166 262.402 457.755 255.69 463.985C247.645 471.454 237.644 474.085 226.863 473.855C217.466 472.164 209.295 469.363 202.743 462.067C196.859 455.515 194.002 446.915 194.498 438.15C194.965 429.889 198.738 420.019 205.021 414.431Z"/>
	<path fill="#1D1D1E" d="M235.403 439.592C235.769 445.727 234.665 451.443 230.888 456.469C228.967 459.026 226.161 461.564 222.834 461.866C220.245 462.101 217.85 460.723 216.023 459.009C211.262 454.542 208.966 447.455 208.993 441.047C209.016 435.667 210.443 428.727 214.437 424.925C216.144 423.3 218.506 421.534 220.931 421.538C219.474 425.509 218.649 428.996 220.488 433.065C221.775 435.913 223.912 438.063 226.048 440.272C229.162 440.078 232.306 439.963 235.403 439.592Z"/>
	<path fill="#FEFEFE" d="M205.021 414.431C212.648 407.207 221.377 403.247 232.034 403.516C241.17 403.746 250.894 407.815 257.217 414.467C263.707 421.295 266.988 430.65 266.653 440.019C266.326 449.166 262.402 457.755 255.69 463.985C247.645 471.454 237.644 474.085 226.863 473.855C228.319 472.359 230.31 471.716 232.184 470.869C239.096 467.745 243.397 462.97 246.11 455.943C250.454 444.69 248.006 434.707 243.285 424.078C243.159 426.77 242.997 429.83 242.092 432.386C240.89 435.779 238.566 437.983 235.403 439.592C232.306 439.963 229.162 440.078 226.048 440.272C223.912 438.063 221.775 435.913 220.488 433.065C218.649 428.996 219.474 425.509 220.931 421.538C223.631 417.971 227.558 416.221 231.717 414.908C224.56 412.738 219.238 411.654 211.79 413.06C209.809 413.434 207.878 414.116 205.874 414.345C205.59 414.377 205.305 414.402 205.021 414.431Z"/>
</svg>
