<?xml version="1.0" encoding="utf-8" ?>
<svg xmlns="http://www.w3.org/2000/svg" xmlns:xlink="http://www.w3.org/1999/xlink" width="1024" height="1024">
	<path fill="#926700" d="M642.48 273.594L763.114 273.536L798.426 273.496C808.426 273.489 818.706 272.964 828.564 274.916C837.357 276.657 846.023 281.473 852.372 287.761C864.937 300.207 866.448 315.974 866.405 332.798L866.36 337.647C788.374 339.135 710.308 337.105 632.315 338.502C633.204 333.88 636.114 329.124 637.405 324.478C642.113 307.532 643.568 291.099 642.48 273.594Z"/>
	<path fill="#926700" d="M157.641 338.508L157.525 329.537C157.467 314.048 160.263 298.745 171.629 287.44C177.951 281.153 186.491 276.441 195.218 274.559C200.841 273.347 206.709 273.316 212.439 273.083C227.062 272.487 241.601 273.001 256.225 273.012L380.33 273.416C380.031 287.946 380.511 303.521 384.289 317.639C385.926 323.759 390.159 332.05 390.557 338.046C389.177 338.735 387.784 338.619 386.283 338.628C345.088 337.67 303.781 338.106 262.574 338.094C227.635 338.083 192.558 337.471 157.641 338.508Z"/>
	<path fill="#FE5B37" d="M389.58 274.51C391.899 254.454 397.244 235.978 408.403 219.001C427.236 190.347 455.902 171.45 489.406 164.613C520.36 158.296 552.516 165.419 578.705 182.888C607.445 202.058 626.125 231.783 632.917 265.407C633.405 267.684 633.803 268.698 635.596 270.189C635.764 270.329 635.929 270.473 636.098 270.613C637.985 272.167 639.971 273.595 642.48 273.594C643.568 291.099 642.113 307.532 637.405 324.478C636.114 329.124 633.204 333.88 632.315 338.502C630.586 340.802 629.037 343.723 628.098 346.447C626.444 350.645 623.333 354.928 620.724 358.603C609.056 375.036 594.632 388.815 577.071 398.825C547.558 415.649 509.808 420.293 477.037 411.276C441.249 401.428 413.892 378.563 395.662 346.506C394.795 344.664 393.687 342.223 392.305 340.738C390.499 338.798 388.803 338.813 386.283 338.628C387.784 338.619 389.177 338.735 390.557 338.046C390.159 332.05 385.926 323.759 384.289 317.639C380.511 303.521 380.031 287.946 380.33 273.416C383.374 273.727 386.539 274.458 389.58 274.51Z"/>
	<path fill="#1E1D1E" d="M632.917 265.407C633.405 267.684 633.803 268.698 635.596 270.189C635.764 270.329 635.929 270.473 636.098 270.613C637.985 272.167 639.971 273.595 642.48 273.594C643.568 291.099 642.113 307.532 637.405 324.478C636.114 329.124 633.204 333.88 632.315 338.502C630.586 340.802 629.037 343.723 628.098 346.447C626.444 350.645 623.333 354.928 620.724 358.603C609.056 375.036 594.632 388.815 577.071 398.825C547.558 415.649 509.808 420.293 477.037 411.276C441.249 401.428 413.892 378.563 395.662 346.506C394.795 344.664 393.687 342.223 392.305 340.738C390.499 338.798 388.803 338.813 386.283 338.628C387.784 338.619 389.177 338.735 390.557 338.046C390.159 332.05 385.926 323.759 384.289 317.639C380.511 303.521 380.031 287.946 380.33 273.416C383.374 273.727 386.539 274.458 389.58 274.51C389.134 282.721 388.988 290.93 389.734 299.133C392.602 330.679 409.5 359.478 433.756 379.435C458.105 399.469 491.88 410.328 523.396 407.045C556.857 403.559 587.759 387.016 608.828 360.772C632.01 331.894 636.721 301.186 632.917 265.407Z"/>
	<path fill="#1E1D1E" d="M508.024 201.545C514.262 201.211 520.208 202.118 525.725 205.22C534.305 210.044 539.953 218.502 542.479 227.88C545.748 240.019 543.914 253.656 537.5 264.458C532.422 273.008 525.165 278.013 515.606 280.45C509.687 281.175 503.693 280.297 498.406 277.451C489.657 272.743 484.149 263.32 481.452 254.032C478.104 242.505 478.621 229.318 484.602 218.709C490.093 208.969 497.416 204.472 508.024 201.545Z"/>
	<path fill="#FEFEFE" d="M510.99 204.679C516.001 204.995 520.894 206.273 525.186 208.943C532.649 213.584 537.552 221.462 539.527 229.915C542.096 240.913 540.257 253.423 534.249 263.023C528.887 271.591 521.941 275.355 512.208 277.582C507.227 277.167 502.755 275.744 498.561 272.97C490.49 267.632 485.378 258.238 483.633 248.891C481.568 237.839 483.334 226.263 489.812 216.923C495.164 209.207 502.148 206.323 510.99 204.679Z"/>
	<path fill="#1E1D1E" d="M487.792 280.544C497.046 281.199 503.759 288.917 513.678 288.095C521.476 287.448 527.349 280.841 534.238 280.525C536.397 280.426 538.432 281.018 540.363 281.947C544.227 283.806 547.57 286.87 551.173 289.195C558.507 293.928 566.555 297.312 573.109 303.267C587.751 316.57 588.155 338.902 589.079 357.174C580.84 359.24 572.787 362.189 564.607 364.501C557.147 366.609 549.275 368.123 541.622 369.361C510.685 372.923 482.994 371.61 453.28 362.005C447.33 360.082 441.158 358.21 435.498 355.54C435.212 341.812 437.363 325.067 443.922 312.818C445.736 309.431 447.981 306.264 450.82 303.658C456.15 298.763 481.333 282.538 487.792 280.544Z"/>
	<path fill="#FEFEFE" d="M488.544 283.605C494.266 286.388 500.002 289.667 506.298 290.951C516.769 293.085 525.968 288.761 534.48 283.155C540.655 285.499 545.546 289.988 551.112 293.403C557.397 297.259 564.229 300.161 569.855 305.047C583.381 316.794 584.255 337.438 585.514 354.009C571.495 359.374 557.204 363.176 542.386 365.543C512.38 370.506 482.084 367.601 453.241 358.27C448.275 356.664 443.166 355.146 438.39 353.032C439.642 344.583 440.345 336.055 442.42 327.748C443.865 321.967 445.749 315.772 449.261 310.876C455.922 301.589 478.057 289.909 488.544 283.605Z"/>
	<path fill="#926700" d="M628.098 346.447L785.168 346.56L836.382 346.584C846.228 346.602 856.138 346.403 865.971 346.863L865.746 668.232L865.65 765.207L865.714 794.575C865.735 801.871 865.999 809.351 865.056 816.599C863.716 826.891 859.498 836.727 852.223 844.206C844.88 851.755 835.096 856.812 824.639 858.147C815.536 859.309 806.114 858.897 796.949 858.9L755.324 858.771L636.689 858.473L209.126 858.983C194.299 859.044 181.632 855.199 170.977 844.503C163.856 837.355 159.69 828.224 158.401 818.263C156.326 802.224 157.864 784.496 157.925 768.278L158.045 672.246L157.68 346.938C187.685 346.407 217.793 346.883 247.808 346.897L395.662 346.506C413.892 378.563 441.249 401.428 477.037 411.276C509.808 420.293 547.558 415.649 577.071 398.825C594.632 388.815 609.056 375.036 620.724 358.603C623.333 354.928 626.444 350.645 628.098 346.447ZM260.881 561.681C254.948 562.247 249.497 563.755 245.542 568.578C243.539 571.02 242.212 574.043 241.562 577.125C239.697 585.969 239.51 607.204 240.691 616.359C241.419 622.01 243.602 627.398 248.252 630.941C253.006 634.563 258.836 634.827 264.548 635.121C281.907 636.013 299.465 635.01 316.857 634.986L425.028 635.008L764.117 635.506C769.33 635.4 774.93 633.789 778.703 630.041C786.94 621.857 785.005 600.331 784.743 589.394C784.554 581.517 784.318 572.957 778.331 567.028C774.558 563.291 769.995 562.131 764.868 561.755C756.668 561.154 748.281 561.489 740.055 561.487L697.857 561.484L566.611 561.494L364.999 561.511L300.238 561.499C288.292 561.491 276.274 561.209 264.334 561.548C263.186 561.581 262.027 561.596 260.881 561.681ZM746.916 452.239C730.383 452.786 713.789 452.509 697.248 452.507L615.838 452.491L391.107 452.793L303.98 453.028L276.776 452.975C270.955 452.918 265.033 452.528 259.228 452.974C254.532 453.335 250.913 453.548 247.444 457.084C239.571 465.108 240.412 476.467 240.401 486.789C240.396 491.933 240.312 497.107 240.477 502.248C240.659 507.894 241.99 514.545 246.201 518.59C254.263 526.336 269.476 524.318 279.848 524.252C318.989 523.039 358.424 523.994 397.596 523.988L638.521 524.254L720.668 524.26C735.305 524.315 750.378 525.438 764.952 524.313C770.023 523.921 774.61 523.069 778.311 519.265C787.211 510.118 785.025 486.897 784.507 474.71C784.252 468.697 782.886 462.35 778.332 458.071C770.767 450.964 756.666 452.321 746.916 452.239Z"/>
	<path fill="#5F4211" d="M746.916 452.239C756.666 452.321 770.767 450.964 778.332 458.071C782.886 462.35 784.252 468.697 784.507 474.71C785.025 486.897 787.211 510.118 778.311 519.265C774.61 523.069 770.023 523.921 764.952 524.313C750.378 525.438 735.305 524.315 720.668 524.26L638.521 524.254L397.596 523.988C358.424 523.994 318.989 523.039 279.848 524.252C269.476 524.318 254.263 526.336 246.201 518.59C241.99 514.545 240.659 507.894 240.477 502.248C240.312 497.107 240.396 491.933 240.401 486.789C240.412 476.467 239.571 465.108 247.444 457.084C250.913 453.548 254.532 453.335 259.228 452.974C265.033 452.528 270.955 452.918 276.776 452.975L303.98 453.028L391.107 452.793L615.838 452.491L697.248 452.507C713.789 452.509 730.383 452.786 746.916 452.239ZM259.09 460.756C255.876 461.081 253.309 461.732 251.22 464.372C249.751 466.228 248.9 468.506 248.471 470.818C247.431 476.427 247.594 499.721 248.348 505.414C248.842 509.14 250.327 512.37 253.464 514.562C256.179 516.459 260.969 516.65 264.227 516.759C287.553 517.534 311.103 516.646 334.44 516.491L433.261 516.459L765.185 516.796C768.646 516.335 771.783 515.162 773.902 512.219C778.037 506.475 777.921 478.72 776.382 471.16C775.699 467.8 774.146 464.753 771.185 462.863C768.141 460.922 764.33 460.698 760.823 460.568C734.459 459.59 707.755 460.575 681.363 460.658L552.617 460.675L358.286 460.662C325.255 460.669 292.107 460.104 259.09 460.756Z"/>
	<path fill="#5F4211" d="M285.083 470.039C288.407 469.473 292.103 469.827 295.288 470.915C300.225 472.601 304.255 476.268 306.375 481.041C308.544 485.923 308.629 491.632 306.657 496.59C304.066 503.104 299.213 506.099 293.161 508.862C288.919 509.249 285.241 509.266 281.255 507.443C276.4 505.222 272.552 500.898 270.824 495.857C269.108 490.854 269.384 484.99 271.778 480.251C274.549 474.765 279.409 471.807 285.083 470.039Z"/>
	<path fill="#FE5B37" d="M287.033 476.01C289.019 476.18 291.119 476.344 293.018 476.984C296.239 478.068 299.14 480.717 300.649 483.739C302.197 486.839 302.493 490.573 301.321 493.847C299.653 498.508 296.159 500.538 291.941 502.498C289.338 502.559 286.946 502.544 284.486 501.576C281.138 500.259 278.413 497.772 277.02 494.43C275.639 491.115 275.709 487.376 277.174 484.102C279.187 479.603 282.697 477.714 287.033 476.01Z"/>
	<path fill="#5F4211" d="M339.521 470.114C342.682 469.737 345.986 470.154 348.988 471.212C354.103 473.016 357.959 476.971 360.092 481.909C362.27 486.949 362.451 492.511 360.206 497.56C357.355 503.973 352.385 506.872 346.104 509.174C341.552 509.493 337.075 508.986 333.037 506.726C328.353 504.104 325.017 499.634 323.767 494.421C322.476 489.036 323.341 482.968 326.438 478.335C329.561 473.664 334.172 471.282 339.521 470.114Z"/>
	<path fill="#FE5B37" d="M339.302 476.579C341.195 476.319 342.928 476.24 344.8 476.704C348.615 477.651 351.931 479.958 353.815 483.455C355.551 486.679 355.87 490.546 354.616 493.995C353.017 498.391 349.894 500.525 345.779 502.343C343.138 502.984 340.801 502.922 338.188 502.112C334.922 501.099 332.337 498.857 330.842 495.782C329.217 492.439 328.946 488.331 330.262 484.838C331.979 480.284 335.076 478.399 339.302 476.579Z"/>
	<path fill="#5F4211" d="M260.881 561.681C262.027 561.596 263.186 561.581 264.334 561.548C276.274 561.209 288.292 561.491 300.238 561.499L364.999 561.511L566.611 561.494L697.857 561.484L740.055 561.487C748.281 561.489 756.668 561.154 764.868 561.755C769.995 562.131 774.558 563.291 778.331 567.028C784.318 572.957 784.554 581.517 784.743 589.394C785.005 600.331 786.94 621.857 778.703 630.041C774.93 633.789 769.33 635.4 764.117 635.506L425.028 635.008L316.857 634.986C299.465 635.01 281.907 636.013 264.548 635.121C258.836 634.827 253.006 634.563 248.252 630.941C243.602 627.398 241.419 622.01 240.691 616.359C239.51 607.204 239.697 585.969 241.562 577.125C242.212 574.043 243.539 571.02 245.542 568.578C249.497 563.755 254.948 562.247 260.881 561.681ZM264.583 569.271L256.7 569.364C252.695 571.979 249.808 574.339 248.839 579.31C247.486 586.253 247.303 608.916 248.495 616.053C248.9 618.484 249.652 620.881 251.038 622.94C253.003 625.859 255.612 626.678 258.973 627.214C265.412 628.242 272.487 627.677 279.001 627.58L308.438 627.246L419.445 627.165L629.75 626.733L729.125 627.12C739.189 627.127 749.332 627.644 759.375 627.444C765.289 627.391 769.641 627.734 774.084 623.292C774.615 622.761 775.095 622.201 775.582 621.63C777.411 612.568 778.853 581.848 774.235 574.422C772.401 571.473 769.251 570.278 765.953 569.651C758.582 568.251 750.197 569.246 742.709 569.416C734.362 569.605 725.993 569.505 717.644 569.51L590.008 569.492L365.442 569.21L296.944 569.218C286.364 569.217 275.086 568.337 264.583 569.271Z"/>
	<path fill="#5F4211" d="M285.477 579.678C289.981 579.26 294.819 580.106 298.705 582.479C302.889 585.035 305.863 589.229 307.001 593.986C308.245 599.186 307.318 604.957 304.498 609.499C301.346 614.577 296.833 617.109 291.132 618.442C287.018 618.533 283.381 618.147 279.664 616.171C274.947 613.664 271.484 609.246 270.081 604.097C268.683 598.967 269.314 593.376 272.013 588.771C275.016 583.648 279.902 581.092 285.477 579.678Z"/>
	<path fill="#FE5B37" d="M286.292 585.994C288.92 585.908 291.826 586.27 294.186 587.482C297.409 589.137 299.889 591.981 300.978 595.449C302.026 598.785 301.764 602.48 300.025 605.538C298.031 609.047 294.721 611.002 290.918 612.006C288.535 612.011 286.187 611.941 283.934 611.077C280.65 609.816 277.971 607.385 276.555 604.154C275.18 601.016 275.08 597.413 276.403 594.237C278.324 589.626 281.927 587.729 286.292 585.994Z"/>
	<path fill="#5F4211" d="M339.159 579.688C343.088 579.483 346.676 579.82 350.299 581.478C355.122 583.685 358.794 587.874 360.451 592.903C362.095 597.891 361.601 603.366 359.123 607.996C356.17 613.514 351.337 616.253 345.594 618.101C340.87 618.411 336.484 618.171 332.263 615.741C327.953 613.259 324.891 609.052 323.608 604.269C322.249 599.2 322.849 593.439 325.525 588.89C328.651 583.577 333.474 581.281 339.159 579.688Z"/>
	<path fill="#FE5B37" d="M341.26 585.632C343.582 585.65 346.005 586.287 348.045 587.387C351.156 589.066 353.47 591.757 354.461 595.172C355.445 598.562 354.967 602.252 353.196 605.301C350.823 609.386 347.295 611.163 342.892 612.38C340.437 611.956 337.969 611.508 335.783 610.245C332.706 608.466 330.358 605.515 329.507 602.05C328.676 598.667 329.296 595.005 331.204 592.089C333.564 588.481 337.173 586.603 341.26 585.632Z"/>
	<path fill="#1E1D1E" d="M308.094 690.235C343.669 689.648 379.256 690.211 414.833 690.252L587.071 690.088L675.927 690.014C693.636 690 712.351 688.741 729.86 691.387C742.343 693.273 753.354 699.105 762.51 707.706C775.542 719.946 783.016 736.881 783.432 754.751C783.83 771.794 776.739 788.724 764.921 800.907C751.12 815.136 735.757 819.364 716.473 819.721L424.1 819.503L338.502 819.498C324.524 819.511 309.835 820.858 295.968 819.082C283.338 817.463 271.575 812.455 261.947 804.07C248.805 792.625 241.223 776.193 240.215 758.864C239.241 742.146 245.05 724.853 256.335 712.401C270.215 697.087 287.928 691.167 308.094 690.235Z"/>
	<path fill="#926700" d="M298.651 698.661C298.772 698.643 298.893 698.619 299.015 698.608C309.697 697.678 320.809 698.353 331.516 698.469L375.291 698.511L538.485 698.516L666.493 698.246L701.539 698.362C709.591 698.354 718.14 697.878 726.126 698.916C737.212 700.357 747.831 705.644 756.106 713.091C767.289 723.156 774.037 737.36 774.705 752.398C775.408 768.22 770.438 783.178 759.692 794.901C750.15 805.31 737.389 811.019 723.375 811.67C715.449 812.151 707.288 811.795 699.334 811.795L645.123 811.499L477.615 811.27L350.992 811.004L317.483 811.046C310.856 811.06 304.091 811.304 297.488 810.706C288.235 809.869 279.529 806.921 271.925 801.535C259.729 792.896 251.434 779.322 248.994 764.59C246.5 749.535 250.427 733.647 259.434 721.347C268.831 708.515 283.093 700.989 298.651 698.661Z"/>
	<path fill="#1E1D1E" d="M460.814 727.631C464.874 727.168 469.054 727.163 473.068 728.007C481.773 729.836 487.86 735.402 492.595 742.629C494.748 739.736 496.735 737.141 499.583 734.855C506.999 728.905 516.857 726.573 526.22 727.666C534.766 728.664 541.094 732.227 546.431 738.958C546.436 738.345 546.44 737.733 546.455 737.121C546.509 734.827 546.762 731.82 548.872 730.37C550.313 729.379 553.09 729.151 554.79 729.034C558.672 728.768 562.64 729.414 566.533 729.436C572.266 729.467 577.864 728.241 583.565 729.446C590.04 730.814 594.686 740.531 597.948 745.793C597.964 741.14 598.111 736.693 598.831 732.087C600.106 730.772 601.552 729.75 603.026 728.671C607.527 728.428 613.509 727.688 617.543 730.082C618.93 730.904 619.889 731.944 620.259 733.538C621.972 740.916 622.377 782.323 618.907 788.011C614.631 791.093 606.414 789.702 601.303 789.432C596.946 784.435 593.298 778.979 589.676 773.445C589.777 776.093 589.935 778.788 589.694 781.431C589.425 784.378 588.531 786.725 586.22 788.62C579.672 789.98 573.741 788.674 567.203 788.833C562.501 788.947 557.742 789.952 553.038 789.664C551.386 789.562 550.162 789.336 548.718 788.534C546.926 785.441 547.445 781.616 547.484 778.164C545.438 780.725 543.121 782.858 540.378 784.642C532.479 789.779 522.053 790.973 512.96 788.901C504.215 786.907 498.048 781.576 493.321 774.156C487.075 781.99 481.717 787.859 471.442 789.881C461.778 791.783 453.657 789.537 445.629 784.052C444.059 786.037 442.26 787.723 440.429 789.457C431.162 789.84 410.779 791.787 402.584 788.413C401.567 787.365 401.127 786.376 400.704 784.976C398.759 778.549 398.327 735.549 401.658 731.193C402.797 729.703 405.539 729.234 407.269 729.021C410.946 728.566 418.121 727.969 421.019 730.527C422.188 731.559 422.625 732.782 422.887 734.262C423.747 739.118 423.122 744.563 423.052 749.482C422.961 755.817 422.996 762.159 422.991 768.495L434.045 768.503C433.587 758.768 433.673 748.279 439.382 739.909C444.569 732.304 452.145 729.189 460.814 727.631Z"/>
	<path fill="#926700" d="M517.101 747.884C518.885 748.09 520.775 748.232 522.51 748.705C524.299 749.192 526.39 750.045 527.298 751.685L526.662 752.571C524.617 753.451 522.786 753.478 520.603 753.572L519.996 764.123C519.983 765.5 519.979 765.808 519.308 766.994C518.169 767.304 517.931 767.341 516.855 766.647C515.031 765.473 513.824 762.109 513.516 760.078C512.804 755.392 514.317 751.562 517.101 747.884Z"/>
	<path fill="#FEFEFE" d="M552.974 734.995L563.513 734.998L563.504 783.245C560.004 783.339 556.486 783.285 552.984 783.3L552.974 734.995Z"/>
	<path fill="#FEFEFE" d="M406.523 735.21L416.255 735.26C416.997 748.409 416.522 761.794 416.504 774.973C423.662 774.941 430.859 775.35 438.02 775.508C438.062 778.132 438.15 780.711 437.793 783.319L406.244 783.308L406.523 735.21Z"/>
	<path fill="#FEFEFE" d="M516.604 733.576C523.026 733.045 529.751 733.498 535.22 737.267C540.461 740.879 542.611 746.316 543.851 752.3L532.869 752.293C532.043 748.851 530.874 746.123 527.941 743.963C525.206 741.95 521.871 741.324 518.558 741.963C514.721 742.702 511.358 745.079 509.295 748.386C506.743 752.478 506.174 757.75 507.241 762.4C508.181 766.499 510.523 770.638 514.205 772.844C517.795 774.997 522.414 775.268 526.378 774.087C529.13 773.267 531.409 771.904 532.751 769.32C532.685 767.846 532.67 767.927 531.618 766.879C529.632 766.067 527.672 766.436 525.587 766.615C525.374 764.027 525.506 761.294 525.487 758.69L544.861 758.705C544.72 763.642 544.702 768.263 542.451 772.804C540.075 777.597 535.8 780.887 530.745 782.491C523.791 784.697 515.619 783.89 509.219 780.401C503.607 777.342 499.566 772.273 497.855 766.111C495.846 758.871 497.017 749.853 500.939 743.424C504.58 737.457 510.154 735.201 516.604 733.576Z"/>
	<path fill="#FEFEFE" d="M575.237 734.744L583.204 734.682C590.143 745.401 596.785 756.368 604.171 766.783C604.934 756.272 604.5 745.536 604.494 734.994L614.317 734.996L614.315 768.421C614.317 772.769 615.106 778.416 614.119 782.547L613.081 783.023L604.512 783.027C597.16 772.309 590.979 760.821 583.535 750.185L583.514 783.012L573.497 783.027C573.481 774.602 572.422 740.773 573.93 735.29L575.237 734.744Z"/>
	<path fill="#FEFEFE" d="M460.79 734.076C465.698 733.744 470.539 733.997 475.161 735.837C480.984 738.155 485.984 742.751 488.337 748.609C490.987 755.203 490.686 763.876 487.671 770.298C484.337 777.399 478.494 780.87 471.44 783.414C464.329 783.915 457.687 783.945 451.423 779.88C445.989 776.352 442.328 770.748 440.983 764.439C439.485 757.406 440.711 749.593 444.855 743.644C448.658 738.183 454.442 735.348 460.79 734.076Z"/>
	<path fill="#1E1D1E" d="M463.633 741.691C465.996 741.631 468.487 742.027 470.68 742.932C474.417 744.474 477.316 747.543 478.788 751.288C480.704 756.16 480.465 762.233 478.244 766.965C475.969 771.813 472.54 773.766 467.759 775.514L467.114 775.512C464.433 775.522 462.23 775.415 459.749 774.305C455.7 772.493 452.737 769.124 451.259 764.96C449.573 760.205 449.758 754.46 452.103 749.957C454.656 745.056 458.609 743.169 463.633 741.691Z"/>
	<path fill="#926700" d="M462.75 748.496C463.602 748.463 464.466 748.45 465.316 748.536C467.713 748.776 469.802 750.283 471.207 752.187C473.116 754.774 473.746 758.206 473.149 761.339C472.514 764.666 470.943 766.501 468.237 768.41C467.405 768.47 466.571 768.526 465.736 768.52C463.24 768.5 461.05 767.466 459.375 765.614C457.418 763.451 456.734 760.409 457.056 757.559C457.529 753.377 459.528 750.975 462.75 748.496Z"/>
</svg>
