<?xml version="1.0" encoding="utf-8" ?>
<svg xmlns="http://www.w3.org/2000/svg" xmlns:xlink="http://www.w3.org/1999/xlink" width="1024" height="1024">
	<path fill="#FEFEFE" d="M617.952 223.34C619.481 223.386 620.833 223.643 622.133 224.468C623.569 225.378 624.58 226.542 624.938 228.242C625.344 230.168 624.685 231.293 623.686 232.826C622.72 232.942 622.168 232.932 621.225 232.627C619.67 232.124 618.363 230.931 617.706 229.451C616.677 227.132 617.011 225.586 617.952 223.34Z"/>
	<path fill="#FEFEFE" d="M364.806 415.187C365.396 415.235 366.103 415.274 366.655 415.495C368.162 416.097 369.436 418.168 370.08 419.577C371.579 422.86 371.695 425.66 370.356 428.934C369.834 428.836 369.504 428.794 368.983 428.595C366.919 427.809 365.535 425.724 364.761 423.742C363.652 420.901 363.549 417.954 364.806 415.187Z"/>
	<path fill="#FEFEFE" d="M511.942 493.789C515.668 494.773 519.187 501.093 521.34 504.198L513.625 504.318L502.7 504.248C505.676 500.643 508.614 497.082 511.942 493.789Z"/>
	<path fill="#FED79E" d="M584.093 364.127C585.456 356.636 587.362 349.242 588.711 341.742C589.784 335.778 590.204 329.602 591.678 323.726C592.166 321.781 592.747 320.028 593.952 318.412C594.739 318.091 595.201 317.733 596.077 317.892C598.222 318.279 599.405 319.98 600.532 321.685L596.805 323.717C594.437 324.978 593.27 326.258 592.492 328.864C590.234 336.429 590.505 347.277 592.375 354.945C590.129 358.363 586.955 361.222 584.093 364.127Z"/>
	<path fill="#FE5937" d="M600.532 321.685C602.919 333.33 598.224 345.023 592.375 354.945C590.505 347.277 590.234 336.429 592.492 328.864C593.27 326.258 594.437 324.978 596.805 323.717L600.532 321.685Z"/>
	<path fill="#FCB485" d="M426.82 316.251C427.804 316.651 428.179 316.66 428.861 317.531C431.913 321.427 439.784 356.394 439.081 361.334C438.942 362.307 439.115 361.961 438.328 362.535L436.83 361.647C435.777 360.633 434.726 359.61 433.753 358.518C426.635 350.53 421.243 336.753 422.049 325.979C422.366 321.737 423.652 319.05 426.82 316.251Z"/>
	<path fill="#F4AF25" d="M463.686 461.645C464.964 461.451 466.238 461.18 467.489 461.654C472.524 463.56 479.132 470.083 484.278 473.026C492.03 477.459 500.813 479.507 508.38 484.434C505.979 488.843 501.16 496.619 497.195 499.607L496.253 499.448C487.643 492.93 478.786 486.746 470.146 480.272C463.127 475.013 456.375 469.416 449.22 464.337C453.996 463.225 458.852 462.462 463.686 461.645Z"/>
	<path fill="#F4AF25" d="M557.239 460.877C562.912 461.718 568.52 463.062 574.123 464.271C559.896 475.691 545.627 486.931 530.955 497.774L527.487 499.906C523.594 494.99 519.255 489.902 516.163 484.438C516.29 484.353 516.419 484.269 516.545 484.182C521.666 480.662 527.847 478.814 533.346 475.932C541.715 471.546 549.469 466.226 557.239 460.877Z"/>
	<path fill="#FEFEFE" d="M401.176 224.829C402.659 225.239 403.475 225.841 404.323 227.112C404.35 228.363 403.791 229.117 403.117 230.119C400.171 234.496 396.243 238.544 392.971 242.718C386.467 251.014 380.441 260.24 375.654 269.635C359.723 300.907 352.925 339.921 358.764 374.66C359.493 378.997 363.389 396.596 362.391 399.203C362.142 399.854 361.384 400.695 360.977 401.297C359.965 400.615 358.892 399.991 358.144 399.003C354.971 394.812 354.686 387.589 354.005 382.485C351.237 361.742 350.241 341.118 353.442 320.339C357.883 291.511 369.422 265.556 386.259 241.891C390.555 235.854 395.169 229.242 401.176 224.829Z"/>
	<path fill="#FEFEFE" d="M640.721 248.205C641.783 248.333 642.428 248.458 643.337 249.073C646.952 251.518 649.562 258.252 651.42 262.136C662.021 284.289 669.067 306.745 671.8 331.214C674.683 357.022 671.334 381.974 664.041 406.759C661.704 414.701 659.687 422.533 654.424 429.115C652.862 427.74 651.315 426.594 651.548 424.279C651.944 420.332 656.684 410.875 658.25 406.337C663.629 390.755 666.563 374.455 667.092 357.985C667.969 330.655 662.945 302.361 651.974 277.286C650.542 274.012 638.967 253.141 638.896 252.005C638.789 250.268 639.746 249.485 640.721 248.205Z"/>
	<path fill="#FE5937" d="M470.415 421.405C481.537 428.574 492.386 435.719 505.876 437.368C523.505 439.523 539.882 432.207 553.526 421.634C552.862 432.3 553.068 443.129 553.794 453.788L549.904 456.894C538.129 466.081 525.552 472.405 511.557 477.416C496.513 470.931 482.51 465.008 470.27 453.765C469.836 443.064 470.355 432.131 470.415 421.405Z"/>
	<path fill="#FEFEFE" d="M583.909 465.411C599.514 468.46 623.985 472.653 638.244 478.675C650.188 483.719 660.149 492.384 665.124 504.491L617.375 504.172C590.069 503.633 562.591 503.792 535.286 504.191C550.201 489.701 568.36 479.183 583.909 465.411Z"/>
	<path fill="#FEFEFE" d="M438.134 465.694C443.892 468.328 449.458 473.374 454.526 477.185C466.357 486.082 478.019 495.125 489.491 504.48C462.917 504.608 436.26 504.388 409.686 504.024L357.645 504.044C359.065 501.32 360.647 498.702 362.454 496.215C378.834 473.669 412.507 469.573 438.134 465.694Z"/>
	<path fill="#936701" d="M506.886 203.714C521.119 202.844 537.325 203.93 550.299 210.367C560.148 215.254 566.112 222.944 569.53 233.268C574.304 233.833 579.096 234.684 583.645 236.271C590.449 238.645 596.661 242.645 599.721 249.438C606.786 265.126 595.788 285.34 590.452 299.97C582.021 281.784 582.04 276.187 563.219 265.748C566.621 258.739 570.178 251.42 568.706 243.365C566.635 246.91 567.906 252.837 564.067 258.83C556.519 270.609 538.838 275.366 526.12 278.403C503.827 283.352 483.261 280.937 462.092 272.759C453.831 269.568 445.831 265.816 437.505 262.752C441.727 266.884 446.258 271.122 451.56 273.803C449.552 277.145 447.081 280.25 444.897 283.484C439.477 291.508 437.113 299.755 435.637 309.255C432.093 298.525 429.791 286.74 428.761 275.494C427.314 259.679 429.088 245.293 439.569 232.801C456.187 212.994 482.117 205.892 506.886 203.714Z"/>
	<path fill="#FEFEFE" d="M502.546 216.666C503.562 216.7 503.364 216.656 504.246 216.805C506.679 217.217 508.039 217.532 509.486 219.61C509.654 221.204 509.329 222.173 508.331 223.388C505.468 226.877 502.497 227.409 498.27 227.838C496.858 228.073 495.256 227.919 493.888 227.475C492.574 227.049 492.172 226.46 491.507 225.315C491.364 223.688 491.694 222.568 492.674 221.286C495.311 217.839 498.5 217.228 502.546 216.666Z"/>
	<path fill="#FEFEFE" d="M458.939 234.909C459.155 234.937 459.373 234.949 459.587 234.993C461.407 235.371 463.151 236.321 464.266 237.814C464.631 238.954 464.749 239.759 464.355 240.925C462.697 245.84 457.375 249.22 453.063 251.585C452.429 251.609 451.657 251.568 451.064 251.344C449.953 250.924 448.488 249.601 447.989 248.504C447.505 247.44 447.503 246.426 447.859 245.316C449.326 240.747 454.926 237.145 458.939 234.909Z"/>
	<path fill="#FEFEFE" d="M481.201 221.5C482.331 221.462 483.413 221.455 484.535 221.609C486.413 221.867 487.852 222.251 489.054 223.799C489.194 224.935 489.283 225.396 488.793 226.475C486.574 231.365 480.261 233.763 475.62 235.634C474.446 236.105 473.555 236.205 472.312 236.298C471.041 235.812 469.896 235.123 469.15 233.941C468.449 232.83 468.432 231.772 468.782 230.53C470.04 226.064 477.418 223.15 481.201 221.5Z"/>
	<path fill="#FED79E" d="M558.75 273.464C558.884 273.439 559.017 273.403 559.152 273.39C563.234 272.993 567.879 276.327 570.76 278.929C580.607 287.825 583.237 301.052 583.855 313.746C585.476 347.016 573.509 388.613 550.703 413.319C541.28 423.528 528.332 430.023 514.363 430.468C499.172 430.952 485.349 423.86 474.509 413.661C454.596 391.586 442.2 356.445 441.447 326.9C440.977 308.424 445.28 291.887 458.222 278.321C463.499 280.687 468.814 283.105 474.323 284.886C502.488 293.988 533.197 286.66 558.75 273.464Z"/>
	<path fill="#936701" d="M716.851 512.25L739.978 512.039C754.977 511.923 769.353 511.629 780.795 522.844C789.659 531.532 792.363 542.387 792.526 554.489C792.79 574.135 792.213 593.82 792.115 613.469L792.114 712.375L792.17 761.798C792.245 772.434 793.167 783.701 791.545 794.215C790.275 802.45 786.524 810.666 780.624 816.621C775.248 822.048 768.39 825.004 760.86 825.878C754.535 826.612 748.103 826.285 741.747 826.256L714.169 826.172L618.214 826.073L309.25 826.528L286.342 826.668C271.831 826.864 255.826 828.231 244.59 817.222C239.351 812.089 235.516 804.813 234.31 797.571C232.721 788.025 233.404 777.73 233.409 768.069L233.447 722.307L233.056 561.245C232.921 547.176 234.382 533.126 244.789 522.708C250.419 517.072 257.984 513.79 265.87 512.91C271.883 512.239 278.084 512.478 284.134 512.474L312.755 512.497L407.184 512.686L716.851 512.25Z"/>
	<path fill="#1E1D1E" d="M736.724 526.234C748.221 526.336 759.872 526.513 768.809 534.822C775.282 540.841 777.62 549.217 777.988 557.757C778.801 576.623 778.549 595.593 778.587 614.476L778.465 709.292L778.198 755.253C778.195 766.428 779.048 777.843 777.377 788.928C776.481 794.868 773.581 801.52 769.381 805.871C765.039 810.368 758.896 812.185 752.848 812.769C738.649 814.142 723.902 813.136 709.645 812.991L636.279 812.501L399.966 811.58L342.197 811.298C325.376 811.113 308.513 810.666 291.697 811.267C278.66 811.253 265.853 811.057 255.807 801.551C248.521 794.656 247.428 786.438 247.135 776.943C246.613 759.982 247.055 742.888 247.059 725.915L247.058 630.826L247.029 582.765C246.997 572.858 246.24 562.38 247.632 552.577C248.516 546.345 251.487 540.853 255.796 536.315C260.643 531.208 266.862 528.062 273.888 527.239C288.374 525.541 303.262 526.965 317.818 527.022L401.469 526.999L616.34 526.808C656.408 526.75 696.688 527.438 736.724 526.234Z"/>
	<path fill="#936701" d="M277.079 536.618L278.119 537.022C279.938 541.941 278.556 619.728 278.515 631.5L278.502 802.518C273.076 801.965 268.826 800.948 264.317 797.615C260.935 794.19 258.641 790.868 257.46 786.094C254.793 775.311 256.47 760.885 256.484 749.645L256.494 685.196L256.489 602.695C256.446 589.376 255.606 575.99 256.195 562.685C256.437 557.219 256.419 551.439 259.485 546.707C263.619 540.328 270.024 538.039 277.079 536.618Z"/>
	<path fill="#936701" d="M746.044 536.563C751.508 536.834 756.623 537.702 761.198 540.955C765.452 543.98 767.503 547.911 768.392 552.983C770.679 566.035 769.012 590.085 768.833 604.115L768.615 683.75L768.77 750.821C768.835 761.499 769.812 772.378 768.992 783.025C768.595 788.19 766.862 791.832 763.934 795.994C758.55 801.084 753.057 801.741 746.003 802.422L746.044 536.563Z"/>
	<path fill="#FE5937" d="M286.975 536.275L735.845 536.491L735.52 801.917L735.225 802.24C732.204 803.252 715.206 802.428 710.739 802.415L641.126 802.212L286.99 802.014L286.975 536.275Z"/>
	<path fill="#FEFEFE" d="M518.439 596.738C547.372 596.089 576.466 597.041 605.423 596.991C634.572 596.941 663.869 595.851 693.004 596.986C694.537 597.046 696.157 597.184 697.426 598.111C698.118 599.285 698.597 599.571 698.361 600.982C694.559 604.7 659.393 602.714 652.75 602.735L533.581 602.727C515.443 602.735 497.18 603.592 479.063 602.905C476.925 602.824 475.063 602.615 473.105 601.713C472.122 600.513 471.81 600.432 471.819 598.908C473.101 597.585 474.463 597.297 476.243 597.085C480.794 596.543 485.61 596.918 490.203 596.964C499.583 597.059 509.076 597.279 518.439 596.738Z"/>
	<path fill="#1E1D1E" d="M384.77 568.728C399.296 568.458 414.018 573.79 425.388 582.771C438.604 593.211 447.394 608.67 449.196 625.437C450.939 641.646 446.131 657.642 435.849 670.254C424.157 684.595 407.303 692.61 389.086 694.501C373.077 694.612 358.113 691.123 345.717 680.518C332.944 669.591 324.531 654.063 323.23 637.231C321.925 620.352 326.942 603.419 338.017 590.493C350.244 576.223 366.409 570.114 384.77 568.728Z"/>
	<path fill="#FEFEFE" d="M381.546 577.717C394.455 577.41 406.357 580.544 417.035 587.998C428.764 596.185 437.678 609.242 440.11 623.415C442.484 637.249 438.919 651.758 430.742 663.117C421.106 676.502 406.552 683.624 390.561 686.244C377.269 687.164 364.015 683.965 353.247 675.871C341.464 667.016 333.892 653.628 331.982 639.058C330.061 624.409 334.23 609.88 343.321 598.295C352.817 586.195 366.416 579.472 381.546 577.717Z"/>
	<path fill="#1E1D1E" d="M382.42 593.12C387.447 592.811 392.6 593.314 397.085 595.776C401.816 598.373 405.336 602.918 406.681 608.143C408.859 616.597 404.717 623.699 400.442 630.602C402.852 632.788 405.386 634.902 407.693 637.192C416.908 646.333 417.405 657.853 417.504 670.096C408.024 670.708 398.262 670.234 388.75 670.232C376.788 670.143 364.823 670.458 352.859 670.487C355.73 650.482 354.308 643.748 370.889 630.126C368.018 625.9 365.317 621.645 364.447 616.51C363.566 611.307 364.606 605.808 367.714 601.495C371.214 596.638 376.656 594.113 382.42 593.12Z"/>
	<path fill="#FEFEFE" d="M380.975 599.564C383.846 599.419 386.877 599.254 389.698 599.901C394.033 600.894 397.746 603.418 400.113 607.198C402.912 611.667 403.618 617.384 402.269 622.457C400.542 628.954 395.891 632.902 390.34 636.129C387.243 637.243 385.478 637.53 382.332 636.445C377.148 634.658 373.131 630.467 370.847 625.547C368.591 620.688 368.262 615.131 370.176 610.102C372.239 604.683 375.918 601.913 380.975 599.564Z"/>
	<path fill="#FE5937" d="M395.605 638.98C398.523 639.215 402.34 640.867 404.643 642.675C411.64 648.169 412.236 657.889 413.115 666.023C404.173 665.157 394.815 665.798 385.834 666.012C388.123 660.644 390.867 656.238 394.9 652.023L389.188 645.407C387.881 647.909 386.485 650.309 385.001 652.71L380.435 646.096C378.693 647.369 377.012 648.741 375.311 650.067L374.848 650.712C378.866 655.512 382.067 659.961 384.337 665.833C375.679 665.547 366.899 665.665 358.242 665.912C359.21 660.275 359.819 653.812 362.42 648.649C365.133 643.264 369.348 641.006 374.817 639.224C377.347 641.252 379.625 643.539 382.926 644.064C384.386 643.594 384.316 643.42 385.128 642.087C386.154 642.548 386.373 644.066 386.77 645.109C389.497 642.535 392.347 640.777 395.605 638.98Z"/>
	<path fill="#1E1D1E" d="M494.132 634.734L624.557 635.017L664.441 634.964C674.69 634.884 685.029 634.362 695.241 635.491C698.533 635.854 701.375 636.883 703.85 639.198C708.191 643.257 707.714 650.844 707.749 656.342C707.801 664.505 709.658 681.36 703.412 687.323C698.206 692.293 690.734 691.371 684.125 691.272L547.039 691.503L507.765 691.497C500.301 691.524 492.64 692.029 485.202 691.317C481.097 690.923 476.592 689.785 473.463 686.953C469.923 683.75 469.257 678.593 468.997 674.073C468.47 664.902 466.89 647.562 473.551 640.533C479.007 634.776 486.825 634.902 494.132 634.734Z"/>
	<path fill="#FEFEFE" d="M499.663 647.54C502.868 650.152 503.718 654.804 504.777 658.584C506.595 658.354 508.395 658.244 510.228 658.256C512.043 658.269 513.334 658.346 514.632 659.671C514.153 662.99 509.889 665.408 507.393 667.45L510.453 679.049C507.513 677.391 504.76 675.711 502.085 673.649C498.405 671.356 495.14 676.971 491.357 677.536L490.626 676.915C490.093 673.518 491.697 669.742 492.639 666.497C490.086 664.974 487.41 663.746 485.915 661.066C485.951 660.246 485.747 659.877 486.418 659.288C488.508 657.453 492.52 657.944 495.148 657.942C496.275 654.309 498 650.949 499.663 647.54Z"/>
	<path fill="#FEFEFE" d="M671.201 648.237C673.967 650.351 674.981 655.311 676.001 658.486C680.434 658.454 684.845 658.512 689.275 658.673C685.822 661.536 682.669 664.512 678.86 666.932C680.305 671.305 681.483 675.62 682.422 680.129C679.159 677.617 675.695 675.348 672.3 673.019L671.27 672.579C667.772 673.683 663.965 677.398 661.037 679.64C661.71 675.599 662.864 671.633 664.243 667.782C661.025 665.107 657.603 662.655 655.271 659.129C659.188 658.144 662.862 657.98 666.875 657.935C668.448 654.763 669.612 651.415 671.201 648.237Z"/>
	<path fill="#FEFEFE" d="M542.209 647.324C542.454 647.499 542.704 647.667 542.944 647.848C546.023 650.163 546.337 654.731 546.811 658.254C549.636 658.167 553.561 657.6 556.191 658.735C557.308 659.217 557.344 659.323 557.734 660.399C556.588 663.471 552.637 665.009 549.925 666.466C551.064 669.669 552.825 673.424 552.681 676.858C550.13 679.606 544.852 671.953 541.269 672.347C538.155 674.679 535.157 677.117 532.173 679.613C532.638 675.325 533.759 671.312 535.022 667.202C531.513 664.501 528.127 661.602 524.703 658.791C529.168 658.651 533.639 658.558 538.092 658.182C539.683 654.687 540.898 650.934 542.209 647.324Z"/>
	<path fill="#FEFEFE" d="M628.794 647.384C631.575 650.088 632.805 654.525 633.761 658.185C637.942 658.215 642.134 658.432 646.313 658.569C643.49 661.746 640.678 664.497 637.055 666.755C638.089 670.973 639.157 675.143 640.01 679.404L629.836 672.259C625.894 674.157 622.244 676.838 618.591 679.238L621.722 667.226C618.208 664.463 614.749 661.675 611.384 658.729L624.696 657.905C625.82 654.333 627.384 650.854 628.794 647.384Z"/>
	<path fill="#FEFEFE" d="M585.34 647.314C588.189 649.579 589.015 654.61 589.819 658.004C594.18 658.242 598.581 658.348 602.875 659.198C599.895 662.255 596.731 664.835 593.341 667.427C594.593 671.315 595.391 675.305 596.24 679.294C592.824 677.2 589.449 675.042 586.071 672.886C583.783 672.568 580.112 677.65 577.122 678.011C576.401 678.098 576.559 677.95 575.946 677.352C575.412 674.138 576.965 670.562 578.026 667.558C574.889 664.639 571.425 662.014 568.098 659.311C572.524 658.329 577.137 658.2 581.65 657.887C582.652 654.191 583.517 650.715 585.34 647.314Z"/>
	<path fill="#1E1D1E" d="M445.037 724.736L622.716 724.759L669.71 724.49C678.715 724.506 689.998 723.631 698.664 725.984C699.547 726.761 699.897 727.515 700.206 728.625C701.758 734.193 702.33 769.096 699.847 773.391C697.572 775.026 694.46 775.551 691.715 775.806C679.92 776.904 666.816 776.002 654.906 776L580.75 775.971L423.938 775.733L376.615 775.504C366.666 775.527 356.349 776.376 346.47 775.218C340.649 774.536 335.458 772.988 331.014 768.932C326.208 764.544 323.544 758.327 323.249 751.871C322.928 744.873 325.576 737.913 330.403 732.843C333.287 729.813 336.775 727.668 340.852 726.692C353.787 723.597 368.514 725.176 381.748 725.213C402.773 725.27 424.03 725.466 445.037 724.736Z"/>
	<path fill="#FEFEFE" d="M343.227 736.052C355.2 735.488 367.436 736.431 379.442 736.488L455.823 736.487L689.281 736.772L689.529 763.785L678.018 763.774C644.553 764.365 611.042 764.026 577.569 764.022L438.251 764.314L371.903 764.808C363.147 764.801 349.938 765.766 341.676 763.613C338.438 762.77 335.147 760.5 333.526 757.532C331.741 754.265 331.798 749.997 332.925 746.527C334.657 741.196 338.537 738.524 343.227 736.052Z"/>
</svg>
