<?xml version="1.0" encoding="utf-8" ?>
<svg xmlns="http://www.w3.org/2000/svg" xmlns:xlink="http://www.w3.org/1999/xlink" width="1024" height="1024">
	<path fill="#F8CB84" d="M655.461 189.569C661.624 189.218 667.467 189.68 673.085 192.437C679.608 195.637 684.478 201.344 686.795 208.191C690.623 219.509 688.444 233.535 688.52 245.364C688.579 254.413 689.51 263.437 688.534 272.476C688.074 276.737 687.079 280.961 685.064 284.773C680.72 292.992 674.088 296.799 665.578 299.398C659.516 300.249 653.585 299.659 648.046 296.916C640.842 293.347 636.139 286.819 633.805 279.277C632.729 275.802 632.181 272.186 631.906 268.566C631.209 259.376 631.854 250.078 631.859 240.868C631.863 232.431 631.104 223.796 632.184 215.411C632.755 210.969 633.925 206.667 636.12 202.738C640.38 195.11 647.459 191.795 655.461 189.569Z"/>
	<path fill="#FE5734" d="M335.917 224.756C336.211 216.82 336.954 209.093 341.375 202.252C345.329 196.131 351.562 192.134 358.675 190.767C366.241 189.312 374.493 190.596 380.819 195.144C387.848 200.198 390.699 207.501 391.961 215.739C392.828 220.345 392.416 229.164 396.143 232.347C397.251 233.293 399.256 233.226 400.648 233.31C420.942 233.677 441.268 233.439 461.567 233.44L566.424 233.466C586.197 233.473 606.148 232.939 625.902 233.58C626.081 240.915 626.123 248.242 626.138 255.578C626.167 270.506 625.936 285.409 637.648 296.416C644.182 302.556 652.555 305.937 661.545 305.565C670.437 305.198 679.188 301.298 685.159 294.644C698.094 280.231 694.468 251.679 694.123 233.502L716.482 233.533C727.963 233.458 743.116 231.38 752.004 240.502C754.529 243.094 755.72 246.112 756.498 249.601C758.551 258.813 758.076 290.623 757.659 301.285C757.54 304.346 757.244 307.31 756.674 310.319C755.298 313.139 753.919 316.004 751.889 318.422C747.85 323.235 742.627 324.785 736.62 325.371C728.333 326.178 719.824 325.716 711.512 325.592C702.378 325.456 693.237 325.516 684.101 325.516L563.754 325.226L375.226 325.509L315.992 325.529C305.027 325.53 293.926 325.876 282.976 325.388C278.725 325.199 274.522 324.266 271.241 321.381C262.333 313.548 264.793 296.274 264.938 285.731C265.039 278.361 265.028 271.004 264.567 263.646C264.455 256.228 264.444 244.988 269.997 239.419C272.45 236.959 275.753 235.258 279.119 234.457C288.477 232.23 318.981 233.442 330.507 233.432L335.623 233.379C335.577 230.496 335.753 227.633 335.917 224.756Z"/>
	<path fill="#F8CB84" d="M335.917 224.756C336.211 216.82 336.954 209.093 341.375 202.252C345.329 196.131 351.562 192.134 358.675 190.767C366.241 189.312 374.493 190.596 380.819 195.144C387.848 200.198 390.699 207.501 391.961 215.739C392.828 220.345 392.416 229.164 396.143 232.347C397.251 233.293 399.256 233.226 400.648 233.31C400.263 233.365 398.453 233.565 398.259 233.738C397.372 234.528 397.716 267.29 397.352 272.559C397.106 276.109 396.552 279.694 395.516 283.104C394.07 287.869 391.502 292.355 388.039 295.942C381.881 302.324 372.915 306.259 364.035 306.326C355.212 306.393 346.547 302.66 340.332 296.442C329.749 285.852 330.455 271.18 330.465 257.303L330.507 233.432L335.623 233.379C335.577 230.496 335.753 227.633 335.917 224.756Z"/>
	<path fill="#1D1D1E" d="M391.961 215.739C392.828 220.345 392.416 229.164 396.143 232.347C397.251 233.293 399.256 233.226 400.648 233.31C400.263 233.365 398.453 233.565 398.259 233.738C397.372 234.528 397.716 267.29 397.352 272.559C397.106 276.109 396.552 279.694 395.516 283.104C394.07 287.869 391.502 292.355 388.039 295.942C381.881 302.324 372.915 306.259 364.035 306.326C355.212 306.393 346.547 302.66 340.332 296.442C329.749 285.852 330.455 271.18 330.465 257.303L330.507 233.432L335.623 233.379C335.577 230.496 335.753 227.633 335.917 224.756C336.257 232.621 336.523 240.506 336.444 248.378C336.294 263.3 333.862 281.573 345.363 293.241C350.244 298.193 356.851 300.551 363.729 300.579C371.034 300.608 378.533 297.736 383.588 292.403C395.239 280.111 392.234 260.053 392.067 244.559C391.963 234.952 392.122 225.351 391.961 215.739Z"/>
	<path fill="#926700" d="M259.495 265.372C260.305 265.403 261.236 265.504 262.036 265.393C263.653 265.167 263.698 264.922 264.567 263.646C265.028 271.004 265.039 278.361 264.938 285.731C264.793 296.274 262.333 313.548 271.241 321.381C274.522 324.266 278.725 325.199 282.976 325.388C293.926 325.876 305.027 325.53 315.992 325.529L375.226 325.509L563.754 325.226L684.101 325.516C693.237 325.516 702.378 325.456 711.512 325.592C719.824 325.716 728.333 326.178 736.62 325.371C742.627 324.785 747.85 323.235 751.889 318.422C753.919 316.004 755.298 313.139 756.674 310.319C756.324 311.867 755.735 313.374 756.428 314.891C757.677 315.647 759.047 315.529 760.47 315.166C760.626 315.127 760.776 315.067 760.929 315.018C765.515 299.921 763.772 282.638 763.499 267.008L791.868 266.987C816.267 267.008 833.296 269.314 851.24 287.33C873.124 309.303 871.603 337.85 871.59 366.488L871.644 372.505L871.585 663.114L871.771 734.025C871.867 748.924 873.289 764.942 870.822 779.664C868.244 795.048 860.728 808.745 849.591 819.608C839.098 829.843 825.257 836.318 810.776 838.327C802.216 839.515 793.377 839.093 784.749 839.089L747.277 839.069L619.559 839.047L357.439 839.063C313.362 839.067 269.133 839.853 225.072 839.035C205.41 838.67 185.756 831.12 172.03 816.798C154.451 798.455 151.423 777.812 152.051 753.486C152.648 730.333 152.462 707.166 152.474 684.005L152.502 580.674C152.513 511.325 153.34 441.878 152.423 372.543L152.485 366.967C152.46 337.424 150.403 308.771 173.111 286.225C197.922 261.593 227.704 265.366 259.495 265.372Z"/>
	<path fill="#1D1D1E" d="M152.485 366.967L871.59 366.488L871.644 372.505L390.518 372.491L232.007 372.491L179.755 372.494C170.677 372.496 161.488 372.212 152.423 372.543L152.485 366.967Z"/>
	<path fill="#926700" d="M259.495 265.372C260.305 265.403 261.236 265.504 262.036 265.393C263.653 265.167 263.698 264.922 264.567 263.646C265.028 271.004 265.039 278.361 264.938 285.731C264.793 296.274 262.333 313.548 271.241 321.381C274.522 324.266 278.725 325.199 282.976 325.388C293.926 325.876 305.027 325.53 315.992 325.529L375.226 325.509L563.754 325.226L684.101 325.516C693.237 325.516 702.378 325.456 711.512 325.592C719.824 325.716 728.333 326.178 736.62 325.371C742.627 324.785 747.85 323.235 751.889 318.422C753.919 316.004 755.298 313.139 756.674 310.319C756.324 311.867 755.735 313.374 756.428 314.891C757.677 315.647 759.047 315.529 760.47 315.166C760.626 315.127 760.776 315.067 760.929 315.018C765.515 299.921 763.772 282.638 763.499 267.008L791.868 266.987C816.267 267.008 833.296 269.314 851.24 287.33C873.124 309.303 871.603 337.85 871.59 366.488L152.485 366.967C152.46 337.424 150.403 308.771 173.111 286.225C197.922 261.593 227.704 265.366 259.495 265.372Z"/>
	<path fill="#1D1D1E" d="M259.495 265.372C260.305 265.403 261.236 265.504 262.036 265.393C263.653 265.167 263.698 264.922 264.567 263.646C265.028 271.004 265.039 278.361 264.938 285.731C264.793 296.274 262.333 313.548 271.241 321.381C274.522 324.266 278.725 325.199 282.976 325.388C293.926 325.876 305.027 325.53 315.992 325.529L375.226 325.509L563.754 325.226L684.101 325.516C693.237 325.516 702.378 325.456 711.512 325.592C719.824 325.716 728.333 326.178 736.62 325.371C742.627 324.785 747.85 323.235 751.889 318.422C753.919 316.004 755.298 313.139 756.674 310.319C756.324 311.867 755.735 313.374 756.428 314.891C757.677 315.647 759.047 315.529 760.47 315.166C760.626 315.127 760.776 315.067 760.929 315.018C759.669 318.005 757.9 320.7 755.633 323.022C748.267 330.563 738.696 331.449 728.766 331.505L428.875 331.491L331.42 331.521L301.724 331.524C295.16 331.522 288.474 331.781 281.94 331.101C275.841 330.466 269.659 328.443 265.3 323.937C262.645 321.193 261.108 317.663 260.28 313.975C258.685 306.867 259.371 299.255 259.409 292.02L259.495 265.372Z"/>
	<path fill="#1D1D1E" d="M248.093 418.746L597.914 419.018L721.875 419.007L760.493 418.982C768.91 418.978 777.437 418.715 785.83 419.418C791.081 419.858 795.831 421.344 799.753 425.049C806.158 431.099 806.305 440.935 806.39 449.136C806.544 463.844 805.908 478.628 805.91 493.358L805.905 648.487L805.911 716.98C805.929 730.092 806.801 743.835 805.346 756.848C804.675 762.855 803.126 768.242 798.659 772.605C791.976 779.134 783.376 779.609 774.632 779.464C726.393 778.006 677.927 778.706 629.661 778.64L387.335 778.562L287.724 778.89L261.509 779.033C254.839 779.125 248.076 779.487 241.416 779.039C234.982 778.607 229.331 777.379 224.32 773.002C219.359 768.668 217.435 762.969 217.114 756.532C216.747 749.185 216.997 741.732 216.997 734.373L216.997 694.813L216.966 573.573L216.872 487.33C216.847 471.568 215.837 455.092 217.424 439.435C217.926 434.488 219.551 430.472 223.044 426.793C229.891 419.58 238.865 419.151 248.093 418.746Z"/>
	<path fill="#926700" d="M222.493 559.49L800.323 559.501L800.216 586.506L425.225 586.223L292.945 586.517C269.476 586.525 245.958 586.839 222.498 586.143L222.493 559.49Z"/>
	<path fill="#CC9833" d="M222.493 591.5L428.008 591.501C428.014 652.069 428.755 712.728 427.956 773.286C385.186 772.617 342.268 773.011 299.491 773.228L259.196 773.54C251.777 773.55 244.129 773.923 236.768 772.967C233.187 772.502 230.108 771.023 227.536 768.46C224.845 765.777 223.261 762.634 222.754 758.864C221.94 752.82 222.425 746.233 222.441 740.129L222.512 706.329L222.493 591.5Z"/>
	<path fill="#1D1D1E" d="M293.618 616.748L336.483 617C348.115 616.992 359.742 616.609 371.377 616.734C378.046 616.806 387.055 616.308 391.966 621.582C393.857 623.613 395.499 626.254 395.979 629.021C397.508 637.836 396.702 651.841 396.72 661.105C396.76 681.187 396.983 701.315 396.48 721.391C396.324 727.596 396.179 734.044 391.258 738.477C386.005 743.21 379.314 743.635 372.625 743.388C351.934 742.317 330.463 743.215 309.719 743.256C301.09 743.272 291.938 743.858 283.375 742.744C280.066 742.314 276.684 741.615 274.098 739.377C269.87 735.717 268.701 730.675 268.497 725.333C267.742 705.572 268.524 685.511 268.509 665.719C268.5 655.714 267.248 639.607 268.797 630.172C269.265 627.322 271.06 624.031 273.068 621.982C278.375 616.567 286.624 616.945 293.618 616.748Z"/>
	<path fill="#CC9833" d="M358.369 621.732C366.448 621.658 381.692 619.775 388.101 625.559C390.943 628.124 391.345 634.744 391.455 638.493C391.907 653.9 391.149 669.342 391.305 684.752L391.517 713.405C391.513 718.425 391.781 723.764 391.109 728.735C390.809 730.948 389.765 732.413 388.224 733.981C386.065 736.178 383.795 736.94 380.815 737.465C372.686 738.9 363.509 738.031 355.224 738.033L306.229 738.011C298.441 738.225 284.044 740.159 277.528 735.115C274.726 732.946 273.746 729.284 273.461 725.919C272.809 718.232 273.252 710.242 273.352 702.533L273.533 669.837C273.556 662.809 273.592 655.781 273.494 648.753C273.425 643.759 272.964 638.442 273.642 633.485C274.033 630.631 275.068 627.881 277.033 625.733C278.761 623.844 280.346 623.035 282.838 622.59C290.757 621.174 299.58 621.897 307.619 621.919C324.519 621.967 341.485 622.516 358.369 621.732Z"/>
	<path fill="#CC9833" d="M431.985 591.494L800.51 591.51L800.489 707.578L800.608 738.573C800.654 745.095 801.161 752.058 800.233 758.51C799.653 762.541 797.503 765.409 795.099 768.539C791.882 771.451 788.596 773.074 784.24 773.454C773.468 774.392 762.314 773.103 751.5 773.018L679.397 772.996L431.918 773.241C431.315 712.685 431.959 652.058 431.985 591.494Z"/>
	<path fill="#1D1D1E" d="M736.279 655.743C739.433 655.719 749.118 654.57 751.398 656.609C752.38 657.486 752.372 658.022 752.466 659.232L751.58 660.221C742.967 662.796 728.145 661.095 718.776 661.028L678.431 660.967L498.25 661.233C493.504 661.237 486.625 662.396 482.395 660.123C481.691 659.066 481.688 659.148 481.904 657.901C483.511 656.386 485.941 656.181 488.055 656.042C494.674 655.605 501.524 656.018 508.168 656.017L549.776 656.004L669.022 656.251C691.386 656.257 713.931 656.624 736.279 655.743Z"/>
	<path fill="#1D1D1E" d="M738.496 715.235C742.227 715.193 747.614 714.519 750.999 716.391C752.149 717.027 752.419 717.58 752.809 718.784C752.717 718.971 752.293 719.844 752.176 719.988C751.294 721.074 748.959 721.416 747.653 721.495C744.374 721.692 740.883 721.19 737.584 721.085C731.546 720.891 725.476 720.993 719.434 720.981L655.782 721.232L558.442 721.21C537.88 721.21 517.284 720.941 496.73 721.517C493.099 721.775 488.421 722.096 484.898 721.127C483.567 720.76 483.127 720.445 482.435 719.277C482.729 717.736 482.73 717.024 483.744 715.798C490.105 714.623 497.732 715.458 504.261 715.469L546.674 715.515L670.633 715.506C693.189 715.503 715.968 716.193 738.496 715.235Z"/>
	<path fill="#FEFEFE" d="M246.092 424.726L592.701 424.985L723.282 424.978L762.002 424.959C769.185 424.931 776.488 424.461 783.657 424.894C788.095 425.162 792.542 426.249 795.752 429.515C798.135 431.938 799.643 434.931 800.226 438.27C802.192 449.532 800.474 462.049 800.455 473.492L800.504 554.507L778.25 554.515L222.502 554.507L222.479 480.749C222.435 467.992 221.238 454.424 222.781 441.767C223.258 437.857 224.059 433.904 226.766 430.886C231.748 425.334 239.171 424.955 246.092 424.726Z"/>
	<path fill="#1D1D1E" d="M490.671 461.144L497.289 461.005C497.288 468.764 497.658 519.792 496.362 521.989C494.079 522.007 491.789 521.881 489.507 521.802C489.405 510.338 489.796 498.868 489.793 487.4C489.791 478.994 489.189 470.114 489.895 461.777L490.671 461.144Z"/>
	<path fill="#1D1D1E" d="M562.872 461.511L609.324 461.506L609.164 468.484L590.974 468.495L590.967 503.25L590.977 521.469C588.492 521.506 585.999 521.655 583.515 521.756L583.507 468.502L562.738 468.498L562.872 461.511Z"/>
	<path fill="#1D1D1E" d="M533.249 460.165C538.796 459.911 544.655 462.011 549.101 465.247C552.419 467.662 554.761 470.388 555.468 474.495C555.119 475.657 554.798 476.512 553.656 477.135C548.096 480.163 545.949 468.105 536.339 466.869C531.894 466.298 526.13 466.917 522.585 469.977C521.013 471.334 519.755 473.477 519.768 475.579C519.835 486.244 546.214 487.909 553.529 494.925C556.147 497.436 557.469 500.676 557.529 504.289C557.599 508.517 555.979 513.151 552.887 516.1C546.707 521.994 538.475 522.782 530.404 522.452C527.6 521.924 524.796 521.262 522.202 520.05C515.004 516.687 512.096 510.843 509.577 503.761C512.009 503.505 514.342 503.209 516.728 502.631C518.319 505.791 519.784 509.03 522.443 511.458C526.304 514.986 531.269 515.968 536.352 515.756C540.87 515.567 544.808 513.894 547.817 510.48C549.224 508.883 550.619 506.769 550.23 504.529C548.889 496.803 524.863 492.874 518.225 487.884C515.084 485.523 512.702 482.261 512.312 478.263C511.911 474.145 513.902 469.393 516.581 466.328C520.918 461.368 527.08 460.56 533.249 460.165Z"/>
	<path fill="#1D1D1E" d="M617.788 461.309L657.494 461.347L657.473 468.475L625.492 468.498L625.504 486.714C635.464 487.015 645.522 486.771 655.491 486.783L655.496 493.961C645.831 493.976 636.21 493.6 626.547 494.025C626.425 494.1 626.289 494.155 626.181 494.249C624.756 495.508 625.478 511.096 625.496 514.026L658.32 514.028L658.163 521.484L617.504 521.483L617.788 461.309Z"/>
	<path fill="#1D1D1E" d="M408.727 460.71L409.65 461.035C410.386 463.108 410.027 465.783 409.982 467.972C398.672 468.116 387.577 467.532 376.261 468.368L376.228 486.294C386.399 486.492 396.568 486.497 406.74 486.505L406.492 493.488L376.27 493.507L376.228 514.285L391.375 514.514L410.986 514.511L410.97 521.498C396.763 521.4 382.525 521.694 368.311 521.693L368.33 461.025C381.73 461.034 395.358 461.533 408.727 460.71Z"/>
	<path fill="#1D1D1E" d="M445.257 460.569C450.742 460.231 455.965 460.048 461.168 462.229C468.135 465.149 471.825 470.931 474.445 477.675L467.586 478.594C464.259 473.479 460.102 468.831 453.857 467.548C448.547 466.457 442.033 467.93 437.578 470.975C432.734 474.287 430.144 479.604 429.17 485.269C427.918 492.558 429.202 500.818 433.67 506.831C437.033 511.357 442.198 514.633 447.83 515.346C455.431 516.308 461.732 512.372 467.365 507.828C467.399 505.106 468.08 499.564 466.827 497.235L465.625 496.976L451.464 496.986L451.763 491.218C459.235 489.968 466.969 490.55 474.508 490.761L474.489 512.654C469.19 516.437 463.918 519.917 457.537 521.562C449.893 523.532 441.682 522.538 434.894 518.42C427.952 514.21 423.539 507.313 421.688 499.521C419.619 490.812 420.792 480.783 425.618 473.152C430.276 465.787 437.084 462.464 445.257 460.569Z"/>
	<path fill="#1D1D1E" d="M685.463 460.745C692.88 460.697 701.58 460.255 708.461 463.497C712.023 465.175 714.925 468.003 716.202 471.774C717.641 476.019 717.269 481.184 715.11 485.127C712.097 490.632 707.352 492.369 701.679 493.924C710.087 502.006 714.731 511.284 719.74 521.651C717.251 521.73 714.268 522.208 711.93 521.253C708.188 519.725 706.57 513.359 704.971 509.885C703.23 506.229 701.248 502.425 698.299 499.586C693.006 494.492 686.062 494.947 679.274 494.98C679.131 503.803 679.225 512.643 679.205 521.468C676.479 521.456 673.756 521.629 671.035 521.762C671.011 501.515 671.163 481.292 671.533 461.048L685.463 460.745Z"/>
	<path fill="#FEFEFE" d="M684.761 467.732C690.423 467.674 697.28 466.836 702.586 469.095C705.425 470.303 707.725 472.595 708.819 475.494C709.657 477.715 709.811 479.983 708.741 482.156C707.654 484.364 705.637 486.043 703.332 486.794C695.492 489.379 687.096 488.574 678.98 488.236C678.947 481.716 678.544 474.908 679.184 468.431C680.767 467.686 683.007 467.84 684.761 467.732Z"/>
	<path fill="#1D1D1E" d="M323.417 460.744C329.756 460.696 338.057 460.187 343.949 462.59C348.08 464.275 351.746 467.429 353.481 471.596C355.127 475.548 354.916 480.215 353.176 484.097C350.37 490.358 345.134 492.684 339.083 494.849C345.035 503.988 351.975 512.471 358.112 521.489L348.331 521.477C345.929 518.592 343.946 515.125 341.859 511.994C338.16 506.53 334.382 501.412 329.752 496.695C325.517 496.15 321.241 495.921 316.982 495.624C317.008 504.241 316.791 512.864 316.665 521.48L308.504 521.481L308.511 461.041C313.478 461.007 318.451 460.847 323.417 460.744Z"/>
	<path fill="#FEFEFE" d="M323.072 467.782C329.442 467.311 335.014 467.531 341.226 469.036C342.765 470.479 344.354 471.857 345.153 473.864C346.932 478.332 345.193 482.435 343.358 486.534C342.068 487.225 340.726 487.821 339.403 488.445C332.391 490.648 324.153 489.797 316.97 488.898L316.977 468.313L323.072 467.782Z"/>
</svg>
