<?xml version="1.0" encoding="utf-8" ?>
<svg xmlns="http://www.w3.org/2000/svg" xmlns:xlink="http://www.w3.org/1999/xlink" width="1024" height="1024">
	<path fill="#926700" d="M656.317 132.322C663.977 141.329 669.709 151.563 674.86 162.154C690.468 194.252 698.168 229.491 695.27 265.201C690.865 319.492 669.527 359.348 629.007 395.306L628.402 394.849C628.648 392.838 637.988 375.382 639.727 371.337C652.663 341.234 658.34 307.178 655.653 274.555C653.543 248.936 645.873 222.466 625.67 205.303C639.063 182.388 647.174 157.12 656.317 132.322Z"/>
	<path fill="#926700" d="M365.27 132.535C366.45 133.424 366.962 134.334 367.573 135.672C369.919 140.805 371.425 146.631 373.228 151.985C375.777 159.554 378.736 167.139 381.985 174.439C386.738 185.117 392.778 194.934 398.05 205.316C380.752 218.252 374.008 245.985 371.059 266.606C365.826 303.205 371.992 340.362 386.002 374.385C388.115 379.517 390.573 387.246 393.996 391.544C394.013 391.566 394.041 391.577 394.063 391.593L397.971 397.55C397.077 396.96 396.2 396.351 395.345 395.705C390.981 392.405 387.02 388.421 383.114 384.598C353.933 356.037 333.517 315.554 327.927 275.057C320.783 223.301 333.805 174.106 365.27 132.535Z"/>
	<path fill="#1D1D1E" d="M370.698 125.29C408.237 85.8266 454.021 62.7055 508.992 61.1711C554.744 59.894 605.721 80.0353 638.683 111.483C643.218 115.809 648.285 120.595 651.931 125.676C652.531 128.777 654.136 130.152 656.317 132.322C647.174 157.12 639.063 182.388 625.67 205.303C645.873 222.466 653.543 248.936 655.653 274.555C658.34 307.178 652.663 341.234 639.727 371.337C637.988 375.382 628.648 392.838 628.402 394.849L629.007 395.306C620.078 405.015 612.949 416.506 604.562 426.72C601.185 430.833 589.737 442.172 588.469 445.926L589.037 476.329C590.094 481.851 589.499 488.265 589.403 493.905C591.996 494.333 594.035 494.745 596.609 493.839C602.669 493.86 622.147 502.091 629.863 503.888C635.699 504.494 639.168 508.23 644.173 509.114C648.863 510.532 653.589 512.175 658.379 513.198C657.313 518.51 649.041 533.238 646.162 538.601C622.829 582.076 589.65 619.809 553.528 653.128C539.922 665.679 525.684 677.447 511.902 689.785C506.84 684.704 500.979 680.3 495.542 675.61C486.61 667.908 477.796 660.024 469.15 652.002C427.406 613.275 388.165 565.919 366.486 512.896C370.629 511.684 374.687 509.918 378.644 508.208C380.958 506.148 383.711 506.755 386.528 506.374L387.351 506.259C400.315 501.042 413.72 496.809 426.905 492.181C428.394 492.06 429.572 491.996 430.919 491.267C434.198 485.018 432.602 463.35 432.913 455.151C433.12 449.698 433.606 444.384 434.583 439.016C428.525 432.425 422.836 425.933 418.6 417.967C413.21 410.512 408.098 402.951 403.43 395.02C400.295 393.753 397.512 391.866 394.063 391.593C394.041 391.577 394.013 391.566 393.996 391.544C390.573 387.246 388.115 379.517 386.002 374.385C371.992 340.362 365.826 303.205 371.059 266.606C374.008 245.985 380.752 218.252 398.05 205.316C392.778 194.934 386.738 185.117 381.985 174.439C378.736 167.139 375.777 159.554 373.228 151.985C371.425 146.631 369.919 140.805 367.573 135.672C366.962 134.334 366.45 133.424 365.27 132.535C366.79 129.91 368.785 127.633 370.698 125.29Z"/>
	<path fill="#FEFEFE" d="M426.905 492.181C428.435 495.919 430.399 498.664 433.289 501.463C444.723 512.534 469.713 524.395 484.667 530.635C492.057 533.718 500.135 535.45 507.13 539.377C501.774 549.842 495.031 559.555 489.199 569.754C483.871 579.072 478.552 588.681 473.622 598.206C471.066 603.145 469.022 608.668 466.133 613.389C465.508 614.411 465.05 615.212 463.942 615.758C459.534 614.71 454.15 606.963 451.237 603.613C435.111 585.069 420.242 566.071 407.328 545.119C401.764 536.093 390.026 516.146 387.351 506.259C400.315 501.042 413.72 496.809 426.905 492.181Z"/>
	<path fill="#FEFEFE" d="M596.609 493.839C602.669 493.86 622.147 502.091 629.863 503.888L637.758 506.887C620.977 541.983 603.883 567.066 579.026 596.875C573.278 603.768 567.04 612.209 559.637 617.338C552.938 603.574 546.274 589.494 538.75 576.174C531.776 563.826 523.792 551.91 517.175 539.4C524.096 535.749 531.752 533.424 539.006 530.519C559.071 522.483 583.579 511.587 596.609 493.839Z"/>
	<path fill="#F5CE9A" d="M434.11 445.136C453.383 464.402 479.927 481.109 507.721 482.535C539.302 484.156 565.988 466.149 588.469 445.926L589.037 476.329C588.639 482.507 589.517 488.54 588.299 494.688C571.361 510.659 533.891 527.582 511.959 534.168C484.38 523.157 455.686 512.938 433.484 492.42C434.469 476.677 432.653 460.892 434.11 445.136Z"/>
	<path fill="#FEFEFE" d="M378.644 508.208C380.081 508.479 380.459 508.524 381.25 509.775C383.772 513.76 385.631 518.519 387.686 522.774C390.443 528.481 393.469 534.076 396.676 539.542C411.366 564.582 428.393 587.221 447.378 609.11C452.564 615.089 458.382 623.548 465.854 626.557C471.664 620.053 475.226 609.968 479.186 602.161C484.864 590.965 491.052 580.009 497.289 569.117C501.892 561.08 506.438 552.44 512.371 545.299C520.59 557.881 528.449 570.786 535.477 584.074C541.413 595.295 550.969 618.486 558.394 626.83C565.915 623.228 572.165 614.567 577.658 608.387C596.649 587.024 614.085 564.854 628.34 539.988C634.081 529.973 639.042 519.454 644.173 509.114C648.863 510.532 653.589 512.175 658.379 513.198C657.313 518.51 649.041 533.238 646.162 538.601C622.829 582.076 589.65 619.809 553.528 653.128C539.922 665.679 525.684 677.447 511.902 689.785C506.84 684.704 500.979 680.3 495.542 675.61C486.61 667.908 477.796 660.024 469.15 652.002C427.406 613.275 388.165 565.919 366.486 512.896C370.629 511.684 374.687 509.918 378.644 508.208Z"/>
	<path fill="#926700" d="M370.698 125.29C408.237 85.8266 454.021 62.7055 508.992 61.1711C554.744 59.894 605.721 80.0353 638.683 111.483C643.218 115.809 648.285 120.595 651.931 125.676C647.198 135.613 643.332 149.64 639.229 160.366C633.26 175.972 625.962 190.749 618.47 205.66C610.863 210.53 601.689 213.95 593.187 216.958C543.052 234.698 484.676 234.596 434.303 217.811C424.57 214.568 415.39 210.48 406.143 206.066C396.072 190.458 387.569 172.453 381.245 155.02C377.683 145.202 374.888 134.837 370.698 125.29Z"/>
	<path fill="#F5CE9A" d="M400.2 211.185C412.515 216.347 424.556 222.082 437.346 226.03C490.032 242.293 551.114 241.712 602.371 220.791C609.02 218.077 615.488 215.011 621.731 211.456C636.966 221.676 642.868 240.03 646.263 257.246C656.673 310.037 640.718 364.227 611.133 408.177C591.239 437.73 560.821 468.028 524.716 475.092C502.298 479.478 479.672 471.085 461.277 458.523C449.64 450.576 439.428 440.975 429.92 430.622C426.11 426.474 422.559 421.955 418.6 417.967C413.21 410.512 408.098 402.951 403.43 395.02C398.34 385.327 393.421 375.554 389.556 365.297C375.058 326.826 370.913 281.251 383.193 241.635C386.756 230.138 391.571 219.73 400.2 211.185Z"/>
	<path fill="#926700" d="M359.991 516.525C362.05 514.903 364.052 513.864 366.486 512.896C388.165 565.919 427.406 613.275 469.15 652.002C477.796 660.024 486.61 667.908 495.542 675.61C500.979 680.3 506.84 684.704 511.902 689.785C525.684 677.447 539.922 665.679 553.528 653.128C589.65 619.809 622.829 582.076 646.162 538.601C649.041 533.238 657.313 518.51 658.379 513.198C660.546 513.955 662.518 515.099 664.648 515.87C696.934 528.377 730.01 539.279 762.749 550.557C779.665 556.384 804.239 562.781 818.851 572.162C829.505 579.003 837.914 588.801 843.02 600.371C846.114 607.38 847.354 614.989 847.797 622.601C848.642 637.108 847.682 651.976 847.689 666.533L847.696 763.07L847.884 855.342C847.93 870.861 848.726 886.761 847.891 902.235C847.543 908.703 846.291 914.94 843.944 920.984C837.823 936.749 826.059 949.43 810.514 956.21C802.119 959.871 793.614 961.212 784.527 961.688C773.544 962.263 762.55 961.686 751.564 961.566L705.343 961.446L538.11 961.458L346.113 961.424L281.795 961.41C266.662 961.398 251.517 961.568 236.397 960.871C229.076 960.534 222.336 959.265 215.504 956.567C199.81 950.37 187.05 938.539 180.36 922.973C177.263 915.769 175.794 908.405 175.275 900.605C174.145 883.622 174.902 866.287 174.963 849.259L174.93 769.189L174.944 673.995C174.936 657.518 174.089 640.963 175.047 624.506C175.47 617.249 176.391 610.253 179.134 603.474C185.901 586.752 200.391 574.675 216.729 567.86C230.355 562.176 244.624 557.858 258.509 552.842L359.991 516.525Z"/>
	<path fill="#1D1D1E" d="M420.495 810.018L658.39 810.013L728.652 810.006C734.566 810.005 740.484 810.045 746.398 809.944C749.407 809.893 752.63 809.445 755.614 809.842C757.591 810.104 758.509 810.684 759.681 812.275C760.027 813.958 759.271 815.281 758.64 816.801C750.738 818.005 736.515 816.916 727.987 816.958L653.451 817.253L420.51 818.009L420.495 810.018Z"/>
	<path fill="#1D1D1E" d="M359.991 516.525C362.05 514.903 364.052 513.864 366.486 512.896C388.165 565.919 427.406 613.275 469.15 652.002C477.796 660.024 486.61 667.908 495.542 675.61C500.979 680.3 506.84 684.704 511.902 689.785C525.684 677.447 539.922 665.679 553.528 653.128C589.65 619.809 622.829 582.076 646.162 538.601C649.041 533.238 657.313 518.51 658.379 513.198C660.546 513.955 662.518 515.099 664.648 515.87C636.34 577.838 600.26 620.697 549.962 665.91C537.559 677.059 525.491 688.431 511.79 698.014C465.085 660.082 422 618.996 388.801 568.375C382.201 558.311 375.748 548.02 370.238 537.308C366.788 530.602 364.442 522.607 359.991 516.525Z"/>
	<path fill="#1D1D1E" d="M426.062 730.743L759.957 730.489C760.82 736.409 761.667 767.954 759.556 772.28L758.125 772.497L420.028 772.281L420.003 730.938L426.062 730.743Z"/>
	<path fill="#FEFEFE" d="M602.911 737.742C624.171 737.324 645.514 737.718 666.783 737.708C695.689 737.694 724.593 737.412 753.5 737.792L753.518 765.338L576.75 765.312L426.494 765.506L426.486 738.224L538.575 737.978L578.251 737.994C586.441 737.998 594.737 738.258 602.911 737.742Z"/>
	<path fill="#1D1D1E" d="M420.005 857.02L623.518 857.002C669.175 857.001 714.853 856.701 760.506 857.282C760.49 866.494 760.634 875.702 760.554 884.915C760.517 889.269 760.792 894.015 760.042 898.3C759.923 898.982 760.053 898.656 759.287 899.197C747.25 899.979 734.965 899.517 722.902 899.521L648.435 899.231L420.029 899.28L420.005 857.02Z"/>
	<path fill="#FEFEFE" d="M433.398 864.241C472.838 863.752 512.348 864.217 551.795 864.216L753.318 864.261L753.28 892.509L746.75 892.515L426.669 892.518C426.58 883.204 426.927 873.871 426.966 864.553L433.398 864.241Z"/>
	<path fill="#1D1D1E" d="M282.946 721.768L286.022 721.652C304.957 721.083 323.927 722.018 342.869 722.034C355.06 722.044 377.149 720.751 388.305 722.703C392.316 723.404 396.75 725.732 399.647 728.584C402.646 731.537 404.563 735.425 405.242 739.565C406.16 745.164 405.626 751.135 405.576 756.793L405.473 781.606L405.729 871.612C405.714 880.195 406.832 892.964 400.059 899.357C394.543 904.565 386.371 903.794 379.375 903.73C354.816 903.192 330.183 903.399 305.617 903.462C294.723 903.49 282.876 904.774 272.102 903.226C269.181 902.806 266.749 901.599 264.558 899.633C259.909 895.462 258.634 890.917 258.336 884.894C257.878 875.648 258.52 866.207 258.66 856.946L259.035 807.561C259.038 794.529 259.131 781.488 258.968 768.457C258.847 758.783 258.015 747.829 259.33 738.256C259.856 734.426 261.544 730.255 264.223 727.425C269.256 722.107 276.152 721.96 282.946 721.768Z"/>
	<path fill="#FEFEFE" d="M280.373 728.723C298.748 727.742 319.073 728.721 337.727 728.721C351.562 728.721 370.663 727.617 383.735 729.009C387.144 729.372 390.65 730.227 393.415 732.351C396.403 734.647 397.798 738.074 398.226 741.737C399.036 748.682 398.515 756.134 398.516 763.148L398.509 802.557L398.812 858.146C398.822 866.295 399.11 874.561 398.716 882.697C398.572 885.663 398.544 890.393 396.644 892.737C393.499 896.614 389.344 896.981 384.71 897.401C373.675 897.881 362.56 897.336 351.521 897.114C341.59 896.915 331.645 897.015 321.712 897.012C312.323 897.009 302.925 896.947 293.537 897.081C287.528 897.167 281.203 897.72 275.219 897.16C272.44 896.9 269.767 895.237 267.519 893.699C266.796 892.019 266.198 890.403 265.934 888.583C264.57 879.182 265.285 868.828 265.426 859.326C265.571 849.565 265.474 839.79 265.473 830.028L265.656 768.236C265.713 759.522 265.105 750.641 265.748 741.958C265.998 738.582 266.263 735.457 268.455 732.691C271.327 729.069 276.17 729.104 280.373 728.723Z"/>
	<path fill="#FE5734" d="M327.244 754.119C333.977 753.693 340.616 755.053 346.294 758.823C353.255 763.447 358.278 771.125 359.916 779.304C361.52 787.313 359.715 795.488 355.138 802.222C350.09 809.65 342.121 813.677 333.485 815.284C326.525 815.53 319.668 814.04 313.805 810.19C306.853 805.625 301.704 798.448 300.091 790.241C298.553 782.421 300.535 774.06 305.04 767.535C310.361 759.826 318.201 755.804 327.244 754.119Z"/>
	<path fill="#FE5734" d="M308.77 826.628C315.279 826.046 322.033 826.388 328.56 826.462C334.878 826.535 341.202 826.363 347.518 826.497C357.88 826.718 368.737 828.19 376.145 836.252C387.247 848.333 384.866 867.395 384.48 882.501L355.75 882.484C330.034 882.465 304.251 882.105 278.545 882.743C278.015 868.85 276.377 851.721 284.805 839.729C290.607 831.474 299.193 828.224 308.77 826.628Z"/>
</svg>
