<?xml version="1.0" encoding="UTF-8"?>
<!DOCTYPE svg PUBLIC "-//W3C//DTD SVG 1.1//EN" "http://www.w3.org/Graphics/SVG/1.1/DTD/svg11.dtd">
<svg xmlns="http://www.w3.org/2000/svg" version="1.1" width="512px" height="512px" style="shape-rendering:geometricPrecision; text-rendering:geometricPrecision; image-rendering:optimizeQuality; fill-rule:evenodd; clip-rule:evenodd" xmlns:xlink="http://www.w3.org/1999/xlink">
<g><path style="opacity:0.982" fill="#ee6621" d="M 138.5,-0.5 C 139.833,-0.5 141.167,-0.5 142.5,-0.5C 152.833,10.1667 163.167,20.8333 173.5,31.5C 161.829,31.6665 150.162,31.4999 138.5,31C 129.97,26.774 126.803,19.9407 129,10.5C 130.599,5.40601 133.766,1.73934 138.5,-0.5 Z"/></g>
<g><path style="opacity:1" fill="#ee6022" d="M 142.5,-0.5 C 154.5,-0.5 166.5,-0.5 178.5,-0.5C 188.833,10.1667 199.167,20.8333 209.5,31.5C 197.5,31.5 185.5,31.5 173.5,31.5C 163.167,20.8333 152.833,10.1667 142.5,-0.5 Z"/></g>
<g><path style="opacity:1" fill="#ed5a23" d="M 178.5,-0.5 C 190.167,-0.5 201.833,-0.5 213.5,-0.5C 223.833,10.1667 234.167,20.8333 244.5,31.5C 232.833,31.5 221.167,31.5 209.5,31.5C 199.167,20.8333 188.833,10.1667 178.5,-0.5 Z"/></g>
<g><path style="opacity:1" fill="#ec5423" d="M 213.5,-0.5 C 225.5,-0.5 237.5,-0.5 249.5,-0.5C 259.833,10.1667 270.167,20.8333 280.5,31.5C 268.5,31.5 256.5,31.5 244.5,31.5C 234.167,20.8333 223.833,10.1667 213.5,-0.5 Z"/></g>
<g><path style="opacity:1" fill="#eb4e24" d="M 249.5,-0.5 C 263.167,-0.5 276.833,-0.5 290.5,-0.5C 300.833,10.1667 311.167,20.8333 321.5,31.5C 307.833,31.5 294.167,31.5 280.5,31.5C 270.167,20.8333 259.833,10.1667 249.5,-0.5 Z"/></g>
<g><path style="opacity:1" fill="#eb4725" d="M 290.5,-0.5 C 302.5,-0.5 314.5,-0.5 326.5,-0.5C 336.833,10.1667 347.167,20.8333 357.5,31.5C 345.5,31.5 333.5,31.5 321.5,31.5C 311.167,20.8333 300.833,10.1667 290.5,-0.5 Z"/></g>
<g><path style="opacity:0.995" fill="#ea4126" d="M 326.5,-0.5 C 341.833,-0.5 357.167,-0.5 372.5,-0.5C 381.936,4.96379 384.769,12.9638 381,23.5C 379.093,27.0388 376.26,29.5388 372.5,31C 367.511,31.4993 362.511,31.6659 357.5,31.5C 347.167,20.8333 336.833,10.1667 326.5,-0.5 Z"/></g>
<g><path style="opacity:0.981" fill="#f1801e" d="M 60.5,65.5 C 75.1315,80.6319 89.9648,95.6319 105,110.5C 105.198,108.618 105.698,106.952 106.5,105.5C 106.5,121.5 106.5,137.5 106.5,153.5C 95.8683,143.369 85.3683,133.035 75,122.5C 74.8019,124.382 74.3019,126.048 73.5,127.5C 73.5,117.833 73.5,108.167 73.5,98.5C 65.6772,97.6708 57.6772,97.1708 49.5,97C 40.2977,87.965 31.2977,78.7984 22.5,69.5C 23.7489,67.8639 25.4156,66.6972 27.5,66C 38.495,65.5002 49.495,65.3335 60.5,65.5 Z"/></g>
<g><path style="opacity:0.952" fill="#f0791e" d="M 60.5,65.5 C 72.1667,65.5 83.8333,65.5 95.5,65.5C 105.631,76.1317 115.965,86.6317 126.5,97C 138.495,97.4999 150.495,97.6665 162.5,97.5C 162.833,97.5 163.167,97.5 163.5,97.5C 163.5,97.8333 163.5,98.1667 163.5,98.5C 144.5,98.5 125.5,98.5 106.5,98.5C 106.5,100.833 106.5,103.167 106.5,105.5C 105.698,106.952 105.198,108.618 105,110.5C 89.9648,95.6319 75.1315,80.6319 60.5,65.5 Z"/></g>
<g><path style="opacity:0.997" fill="#f0731f" d="M 95.5,65.5 C 109.5,65.5 123.5,65.5 137.5,65.5C 136.048,66.3019 134.382,66.8019 132.5,67C 142.702,77.0349 152.702,87.2016 162.5,97.5C 150.495,97.6665 138.495,97.4999 126.5,97C 115.965,86.6317 105.631,76.1317 95.5,65.5 Z"/></g>
<g><path style="opacity:0.998" fill="#ef6d20" d="M 137.5,65.5 C 147.5,65.5 157.5,65.5 167.5,65.5C 177.631,76.1317 187.965,86.6317 198.5,97C 186.838,97.4999 175.171,97.6665 163.5,97.5C 163.167,97.5 162.833,97.5 162.5,97.5C 152.702,87.2016 142.702,77.0349 132.5,67C 134.382,66.8019 136.048,66.3019 137.5,65.5 Z"/></g>
<g><path style="opacity:0.998" fill="#ee6721" d="M 167.5,65.5 C 181.167,65.5 194.833,65.5 208.5,65.5C 218.631,76.1317 228.965,86.6317 239.5,97C 243.821,97.499 248.154,97.6657 252.5,97.5C 252.5,97.8333 252.5,98.1667 252.5,98.5C 222.833,98.5 193.167,98.5 163.5,98.5C 163.5,98.1667 163.5,97.8333 163.5,97.5C 175.171,97.6665 186.838,97.4999 198.5,97C 187.965,86.6317 177.631,76.1317 167.5,65.5 Z"/></g>
<g><path style="opacity:0.998" fill="#ee6022" d="M 208.5,65.5 C 220.5,65.5 232.5,65.5 244.5,65.5C 254.631,76.1317 264.965,86.6317 275.5,97C 267.841,97.4997 260.174,97.6664 252.5,97.5C 248.154,97.6657 243.821,97.499 239.5,97C 228.965,86.6317 218.631,76.1317 208.5,65.5 Z"/></g>
<g><path style="opacity:0.998" fill="#ed5a22" d="M 244.5,65.5 C 256.167,65.5 267.833,65.5 279.5,65.5C 289.631,76.1317 299.965,86.6317 310.5,97C 320.828,97.4998 331.161,97.6665 341.5,97.5C 341.5,97.8333 341.5,98.1667 341.5,98.5C 311.833,98.5 282.167,98.5 252.5,98.5C 252.5,98.1667 252.5,97.8333 252.5,97.5C 260.174,97.6664 267.841,97.4997 275.5,97C 264.965,86.6317 254.631,76.1317 244.5,65.5 Z"/></g>
<g><path style="opacity:0.998" fill="#ec5423" d="M 279.5,65.5 C 291.5,65.5 303.5,65.5 315.5,65.5C 325.631,76.1317 335.965,86.6317 346.5,97C 344.866,97.4935 343.199,97.6602 341.5,97.5C 331.161,97.6665 320.828,97.4998 310.5,97C 299.965,86.6317 289.631,76.1317 279.5,65.5 Z"/></g>
<g><path style="opacity:0.999" fill="#ec4d24" d="M 315.5,65.5 C 329.167,65.5 342.833,65.5 356.5,65.5C 366.631,76.1317 376.965,86.6317 387.5,97C 393.348,97.1728 399.015,97.6728 404.5,98.5C 383.5,98.5 362.5,98.5 341.5,98.5C 341.5,98.1667 341.5,97.8333 341.5,97.5C 343.199,97.6602 344.866,97.4935 346.5,97C 335.965,86.6317 325.631,76.1317 315.5,65.5 Z"/></g>
<g><path style="opacity:0.989" fill="#eb4725" d="M 356.5,65.5 C 368.5,65.5 380.5,65.5 392.5,65.5C 406.798,80.2985 421.298,94.9652 436,109.5C 436.198,107.618 436.698,105.952 437.5,104.5C 437.5,118.5 437.5,132.5 437.5,146.5C 426.868,136.369 416.368,126.035 406,115.5C 405.825,110.981 405.325,106.647 404.5,102.5C 404.5,101.167 404.5,99.8333 404.5,98.5C 399.015,97.6728 393.348,97.1728 387.5,97C 376.965,86.6317 366.631,76.1317 356.5,65.5 Z"/></g>
<g><path style="opacity:0.997" fill="#ea4126" d="M 392.5,65.5 C 404.5,65.5 416.5,65.5 428.5,65.5C 438.631,76.1317 448.965,86.6317 459.5,97C 451.989,97.1712 444.655,97.6712 437.5,98.5C 437.5,100.5 437.5,102.5 437.5,104.5C 436.698,105.952 436.198,107.618 436,109.5C 421.298,94.9652 406.798,80.2985 392.5,65.5 Z"/></g>
<g><path style="opacity:0.995" fill="#e93a27" d="M 428.5,65.5 C 446.836,65.3334 465.17,65.5001 483.5,66C 494.06,72.1334 496.56,80.6334 491,91.5C 489.062,94.1059 486.562,95.9392 483.5,97C 468.225,98.4354 452.891,98.9354 437.5,98.5C 444.655,97.6712 451.989,97.1712 459.5,97C 448.965,86.6317 438.631,76.1317 428.5,65.5 Z"/></g>
<g><path style="opacity:0.898" fill="#f1851d" d="M 22.5,69.5 C 31.2977,78.7984 40.2977,87.965 49.5,97C 57.6772,97.1708 65.6772,97.6708 73.5,98.5C 59.496,98.6666 45.496,98.4999 31.5,98C 19.6774,94.8505 15.1774,87.3505 18,75.5C 18.7918,72.8936 20.2918,70.8936 22.5,69.5 Z"/></g>
<g><path style="opacity:0.968" fill="#eb4e24" d="M 404.5,102.5 C 405.325,106.647 405.825,110.981 406,115.5C 416.368,126.035 426.868,136.369 437.5,146.5C 437.5,158.167 437.5,169.833 437.5,181.5C 436.698,182.952 436.198,184.618 436,186.5C 425.632,175.965 415.132,165.631 404.5,155.5C 404.5,137.833 404.5,120.167 404.5,102.5 Z"/></g>
<g><path style="opacity:0.974" fill="#f2861d" d="M 106.5,153.5 C 106.5,163.5 106.5,173.5 106.5,183.5C 105.698,184.952 105.198,186.618 105,188.5C 94.6317,177.965 84.1317,167.631 73.5,157.5C 73.5,147.5 73.5,137.5 73.5,127.5C 74.3019,126.048 74.8019,124.382 75,122.5C 85.3683,133.035 95.8683,143.369 106.5,153.5 Z"/></g>
<g><path style="opacity:0.997" fill="#ef6c20" d="M 271.5,205.5 C 260.833,195.167 250.167,184.833 239.5,174.5C 239.083,165.085 239.583,155.752 241,146.5C 247.351,138.311 255.184,136.477 264.5,141C 267.433,143.264 269.6,146.098 271,149.5C 271.5,168.164 271.667,186.83 271.5,205.5 Z"/></g>
<g><path style="opacity:0.976" fill="#ec5423" d="M 404.5,155.5 C 415.132,165.631 425.632,175.965 436,186.5C 436.198,184.618 436.698,182.952 437.5,181.5C 437.5,195.5 437.5,209.5 437.5,223.5C 426.868,213.369 416.368,203.035 406,192.5C 405.825,187.981 405.325,183.647 404.5,179.5C 404.5,171.5 404.5,163.5 404.5,155.5 Z"/></g>
<g><path style="opacity:0.962" fill="#f28c1c" d="M 73.5,157.5 C 84.1317,167.631 94.6317,177.965 105,188.5C 105.198,186.618 105.698,184.952 106.5,183.5C 106.5,199.167 106.5,214.833 106.5,230.5C 105.686,228.369 105.186,226.036 105,223.5C 94.6317,212.965 84.1317,202.631 73.5,192.5C 73.5,180.833 73.5,169.167 73.5,157.5 Z"/></g>
<g><path style="opacity:0.981" fill="#ed6121" d="M 356.5,213.5 C 345.833,203.167 335.167,192.833 324.5,182.5C 326.557,174.621 331.724,170.621 340,170.5C 348.637,170.806 353.97,175.14 356,183.5C 356.5,193.494 356.666,203.494 356.5,213.5 Z"/></g>
<g><path style="opacity:0.972" fill="#f17f1e" d="M 187.5,234.5 C 176.868,224.369 166.368,214.035 156,203.5C 155.802,205.382 155.302,207.048 154.5,208.5C 154.334,200.16 154.5,191.827 155,183.5C 159.622,171.062 168.122,167.562 180.5,173C 183.869,175.365 186.036,178.532 187,182.5C 187.5,199.83 187.667,217.163 187.5,234.5 Z"/></g>
<g><path style="opacity:1" fill="#f0731f" d="M 239.5,174.5 C 250.167,184.833 260.833,195.167 271.5,205.5C 271.5,217.5 271.5,229.5 271.5,241.5C 260.833,231.167 250.167,220.833 239.5,210.5C 239.5,198.5 239.5,186.5 239.5,174.5 Z"/></g>
<g><path style="opacity:0.958" fill="#ed5a23" d="M 404.5,179.5 C 405.325,183.647 405.825,187.981 406,192.5C 416.368,203.035 426.868,213.369 437.5,223.5C 437.5,235.167 437.5,246.833 437.5,258.5C 426.868,248.369 416.368,238.035 406,227.5C 405.802,229.382 405.302,231.048 404.5,232.5C 404.5,214.833 404.5,197.167 404.5,179.5 Z"/></g>
<g><path style="opacity:0.976" fill="#ee6621" d="M 324.5,182.5 C 335.167,192.833 345.833,203.167 356.5,213.5C 356.5,229.167 356.5,244.833 356.5,260.5C 355.686,258.369 355.186,256.036 355,253.5C 344.632,242.965 334.132,232.631 323.5,222.5C 323.171,208.99 323.504,195.656 324.5,182.5 Z"/></g>
<g><path style="opacity:0.964" fill="#f3921b" d="M 73.5,192.5 C 84.1317,202.631 94.6317,212.965 105,223.5C 105.186,226.036 105.686,228.369 106.5,230.5C 106.5,240.5 106.5,250.5 106.5,260.5C 95.8683,250.369 85.3683,240.035 75,229.5C 74.8138,226.964 74.3138,224.631 73.5,222.5C 73.5,212.5 73.5,202.5 73.5,192.5 Z"/></g>
<g><path style="opacity:0.971" fill="#f2861d" d="M 187.5,234.5 C 187.5,248.167 187.5,261.833 187.5,275.5C 186.691,273.708 186.191,271.708 186,269.5C 175.632,258.965 165.132,248.631 154.5,238.5C 154.5,228.5 154.5,218.5 154.5,208.5C 155.302,207.048 155.802,205.382 156,203.5C 166.368,214.035 176.868,224.369 187.5,234.5 Z"/></g>
<g><path style="opacity:1" fill="#f0791e" d="M 239.5,210.5 C 250.167,220.833 260.833,231.167 271.5,241.5C 271.5,253.167 271.5,264.833 271.5,276.5C 260.833,266.167 250.167,255.833 239.5,245.5C 239.5,233.833 239.5,222.167 239.5,210.5 Z"/></g>
<g><path style="opacity:0.992" fill="#f3991a" d="M 73.5,222.5 C 74.3138,224.631 74.8138,226.964 75,229.5C 85.3683,240.035 95.8683,250.369 106.5,260.5C 106.5,276.167 106.5,291.833 106.5,307.5C 105.686,305.369 105.186,303.036 105,300.5C 94.6317,289.965 84.1317,279.631 73.5,269.5C 73.5,253.833 73.5,238.167 73.5,222.5 Z"/></g>
<g><path style="opacity:0.979" fill="#ef6d20" d="M 323.5,222.5 C 334.132,232.631 344.632,242.965 355,253.5C 355.186,256.036 355.686,258.369 356.5,260.5C 356.5,270.5 356.5,280.5 356.5,290.5C 345.868,280.369 335.368,270.035 325,259.5C 324.814,256.964 324.314,254.631 323.5,252.5C 323.5,242.5 323.5,232.5 323.5,222.5 Z"/></g>
<g><path style="opacity:0.993" fill="#ed6022" d="M 437.5,258.5 C 437.5,270.5 437.5,282.5 437.5,294.5C 426.868,284.369 416.368,274.035 406,263.5C 405.814,260.964 405.314,258.631 404.5,256.5C 404.5,248.5 404.5,240.5 404.5,232.5C 405.302,231.048 405.802,229.382 406,227.5C 416.368,238.035 426.868,248.369 437.5,258.5 Z"/></g>
<g><path style="opacity:0.974" fill="#f28c1c" d="M 154.5,238.5 C 165.132,248.631 175.632,258.965 186,269.5C 186.191,271.708 186.691,273.708 187.5,275.5C 187.5,285.5 187.5,295.5 187.5,305.5C 176.868,295.369 166.368,285.035 156,274.5C 155.814,271.964 155.314,269.631 154.5,267.5C 154.5,257.833 154.5,248.167 154.5,238.5 Z"/></g>
<g><path style="opacity:1" fill="#f1801e" d="M 239.5,245.5 C 250.167,255.833 260.833,266.167 271.5,276.5C 271.5,290.5 271.5,304.5 271.5,318.5C 260.833,308.167 250.167,297.833 239.5,287.5C 239.5,273.5 239.5,259.5 239.5,245.5 Z"/></g>
<g><path style="opacity:0.981" fill="#f0731f" d="M 323.5,252.5 C 324.314,254.631 324.814,256.964 325,259.5C 335.368,270.035 345.868,280.369 356.5,290.5C 356.5,300.5 356.5,310.5 356.5,320.5C 355.698,321.952 355.198,323.618 355,325.5C 344.632,314.965 334.132,304.631 323.5,294.5C 323.5,280.5 323.5,266.5 323.5,252.5 Z"/></g>
<g><path style="opacity:0.993" fill="#ee6621" d="M 404.5,256.5 C 405.314,258.631 405.814,260.964 406,263.5C 416.368,274.035 426.868,284.369 437.5,294.5C 437.5,308.167 437.5,321.833 437.5,335.5C 426.868,325.369 416.368,315.035 406,304.5C 405.802,306.382 405.302,308.048 404.5,309.5C 404.5,291.833 404.5,274.167 404.5,256.5 Z"/></g>
<g><path style="opacity:0.96" fill="#f3921b" d="M 154.5,267.5 C 155.314,269.631 155.814,271.964 156,274.5C 166.368,285.035 176.868,295.369 187.5,305.5C 187.5,317.5 187.5,329.5 187.5,341.5C 176.868,331.369 166.368,321.035 156,310.5C 155.802,312.382 155.302,314.048 154.5,315.5C 154.5,299.5 154.5,283.5 154.5,267.5 Z"/></g>
<g><path style="opacity:0.974" fill="#f59f19" d="M 73.5,269.5 C 84.1317,279.631 94.6317,289.965 105,300.5C 105.186,303.036 105.686,305.369 106.5,307.5C 106.5,317.5 106.5,327.5 106.5,337.5C 95.8683,327.369 85.3683,317.035 75,306.5C 74.8138,303.964 74.3138,301.631 73.5,299.5C 73.5,289.5 73.5,279.5 73.5,269.5 Z"/></g>
<g><path style="opacity:1" fill="#f2861d" d="M 239.5,287.5 C 250.167,297.833 260.833,308.167 271.5,318.5C 271.5,330.5 271.5,342.5 271.5,354.5C 260.833,344.167 250.167,333.833 239.5,323.5C 239.5,311.5 239.5,299.5 239.5,287.5 Z"/></g>
<g><path style="opacity:0.965" fill="#f0791e" d="M 323.5,294.5 C 334.132,304.631 344.632,314.965 355,325.5C 355.198,323.618 355.698,321.952 356.5,320.5C 356.5,334.167 356.5,347.833 356.5,361.5C 345.868,351.369 335.368,341.035 325,330.5C 324.802,332.382 324.302,334.048 323.5,335.5C 323.5,321.833 323.5,308.167 323.5,294.5 Z"/></g>
<g><path style="opacity:0.976" fill="#f5a519" d="M 73.5,299.5 C 74.3138,301.631 74.8138,303.964 75,306.5C 85.3683,317.035 95.8683,327.369 106.5,337.5C 106.5,345.5 106.5,353.5 106.5,361.5C 105.677,364.977 105.177,368.644 105,372.5C 94.6317,361.965 84.1317,351.631 73.5,341.5C 73.5,327.5 73.5,313.5 73.5,299.5 Z"/></g>
<g><path style="opacity:0.994" fill="#ef6d20" d="M 437.5,335.5 C 437.5,345.5 437.5,355.5 437.5,365.5C 436.698,366.952 436.198,368.618 436,370.5C 425.632,359.965 415.132,349.631 404.5,339.5C 404.5,329.5 404.5,319.5 404.5,309.5C 405.302,308.048 405.802,306.382 406,304.5C 416.368,315.035 426.868,325.369 437.5,335.5 Z"/></g>
<g><path style="opacity:0.987" fill="#f3991a" d="M 187.5,341.5 C 187.5,355.167 187.5,368.833 187.5,382.5C 176.868,372.369 166.368,362.035 156,351.5C 155.814,348.964 155.314,346.631 154.5,344.5C 154.5,334.833 154.5,325.167 154.5,315.5C 155.302,314.048 155.802,312.382 156,310.5C 166.368,321.035 176.868,331.369 187.5,341.5 Z"/></g>
<g><path style="opacity:1" fill="#f28c1c" d="M 239.5,323.5 C 250.167,333.833 260.833,344.167 271.5,354.5C 271.5,366.167 271.5,377.833 271.5,389.5C 260.833,379.167 250.167,368.833 239.5,358.5C 239.5,346.833 239.5,335.167 239.5,323.5 Z"/></g>
<g><path style="opacity:0.974" fill="#f17f1e" d="M 356.5,361.5 C 356.666,371.172 356.5,380.839 356,390.5C 355.157,394.2 353.324,397.2 350.5,399.5C 342.222,389.553 333.222,380.22 323.5,371.5C 323.5,359.5 323.5,347.5 323.5,335.5C 324.302,334.048 324.802,332.382 325,330.5C 335.368,341.035 345.868,351.369 356.5,361.5 Z"/></g>
<g><path style="opacity:0.991" fill="#f0731f" d="M 404.5,339.5 C 415.132,349.631 425.632,359.965 436,370.5C 436.198,368.618 436.698,366.952 437.5,365.5C 437.5,379.5 437.5,393.5 437.5,407.5C 426.868,397.369 416.368,387.035 406,376.5C 405.825,371.981 405.325,367.647 404.5,363.5C 404.5,355.5 404.5,347.5 404.5,339.5 Z"/></g>
<g><path style="opacity:0.964" fill="#f59f19" d="M 154.5,344.5 C 155.314,346.631 155.814,348.964 156,351.5C 166.368,362.035 176.868,372.369 187.5,382.5C 188.34,396.825 181.674,403.658 167.5,403C 160.667,401.5 156.5,397.333 155,390.5C 154.5,375.17 154.333,359.837 154.5,344.5 Z"/></g>
<g><path style="opacity:0.993" fill="#f6ab18" d="M 73.5,341.5 C 84.1317,351.631 94.6317,361.965 105,372.5C 105.177,368.644 105.677,364.977 106.5,361.5C 106.5,378.833 106.5,396.167 106.5,413.5C 105.691,411.708 105.191,409.708 105,407.5C 94.6317,396.965 84.1317,386.631 73.5,376.5C 73.5,364.833 73.5,353.167 73.5,341.5 Z"/></g>
<g><path style="opacity:1" fill="#f3921b" d="M 239.5,358.5 C 250.167,368.833 260.833,379.167 271.5,389.5C 271.828,401.345 271.495,413.012 270.5,424.5C 260.167,414.5 249.833,404.5 239.5,394.5C 239.5,382.5 239.5,370.5 239.5,358.5 Z"/></g>
<g><path style="opacity:0.959" fill="#f0791e" d="M 404.5,363.5 C 405.325,367.647 405.825,371.981 406,376.5C 416.368,387.035 426.868,397.369 437.5,407.5C 438.07,418.133 437.07,428.466 434.5,438.5C 424.587,430.091 415.087,421.091 406,411.5C 405.722,412.416 405.222,413.082 404.5,413.5C 404.5,396.833 404.5,380.167 404.5,363.5 Z"/></g>
<g><path style="opacity:0.952" fill="#f2851d" d="M 323.5,371.5 C 333.222,380.22 342.222,389.553 350.5,399.5C 341.547,405.527 333.38,404.527 326,396.5C 325.138,394.913 324.471,393.246 324,391.5C 323.5,384.842 323.334,378.175 323.5,371.5 Z"/></g>
<g><path style="opacity:0.986" fill="#f7b217" d="M 73.5,376.5 C 84.1317,386.631 94.6317,396.965 105,407.5C 105.191,409.708 105.691,411.708 106.5,413.5C 106.866,442.751 120.199,463.584 146.5,476C 156.665,478.592 166.998,479.759 177.5,479.5C 187.833,490.167 198.167,500.833 208.5,511.5C 194.5,511.5 180.5,511.5 166.5,511.5C 135.833,480.167 104.833,449.167 73.5,418.5C 73.5,404.5 73.5,390.5 73.5,376.5 Z"/></g>
<g><path style="opacity:0.985" fill="#f4971a" d="M 239.5,394.5 C 249.833,404.5 260.167,414.5 270.5,424.5C 268.08,431.576 263.08,435.243 255.5,435.5C 248.158,434.911 242.992,431.245 240,424.5C 239.5,414.506 239.334,404.506 239.5,394.5 Z"/></g>
<g><path style="opacity:0.981" fill="#f17f1d" d="M 434.5,438.5 C 432.259,449.227 428.259,459.227 422.5,468.5C 414.167,461.167 405.833,453.833 397.5,446.5C 402.203,436.019 404.536,425.019 404.5,413.5C 405.222,413.082 405.722,412.416 406,411.5C 415.087,421.091 424.587,430.091 434.5,438.5 Z"/></g>
<g><path style="opacity:0.986" fill="#f7b816" d="M 73.5,418.5 C 104.833,449.167 135.833,480.167 166.5,511.5C 161.167,511.5 155.833,511.5 150.5,511.5C 102.976,498.871 77.3093,467.871 73.5,418.5 Z"/></g>
<g><path style="opacity:0.982" fill="#f2861d" d="M 397.5,446.5 C 405.833,453.833 414.167,461.167 422.5,468.5C 417.674,476.471 411.674,483.471 404.5,489.5C 404.631,488.761 404.464,488.094 404,487.5C 396.911,479.906 389.411,472.906 381.5,466.5C 387.325,460.159 392.658,453.492 397.5,446.5 Z"/></g>
<g><path style="opacity:0.986" fill="#f38d1c" d="M 381.5,466.5 C 389.411,472.906 396.911,479.906 404,487.5C 404.464,488.094 404.631,488.761 404.5,489.5C 398.571,495.139 391.904,499.806 384.5,503.5C 376.167,494.833 367.833,486.167 359.5,477.5C 367.381,474.893 374.714,471.226 381.5,466.5 Z"/></g>
<g><path style="opacity:0.989" fill="#f3921b" d="M 359.5,477.5 C 367.833,486.167 376.167,494.833 384.5,503.5C 376.614,506.795 368.614,509.462 360.5,511.5C 359.167,511.5 357.833,511.5 356.5,511.5C 346.167,500.833 335.833,490.167 325.5,479.5C 336.907,479.8 348.24,479.133 359.5,477.5 Z"/></g>
<g><path style="opacity:1" fill="#f6ab18" d="M 177.5,479.5 C 189.167,479.5 200.833,479.5 212.5,479.5C 222.833,490.167 233.167,500.833 243.5,511.5C 231.833,511.5 220.167,511.5 208.5,511.5C 198.167,500.833 187.833,490.167 177.5,479.5 Z"/></g>
<g><path style="opacity:1" fill="#f5a519" d="M 212.5,479.5 C 224.5,479.5 236.5,479.5 248.5,479.5C 258.833,490.167 269.167,500.833 279.5,511.5C 267.5,511.5 255.5,511.5 243.5,511.5C 233.167,500.833 222.833,490.167 212.5,479.5 Z"/></g>
<g><path style="opacity:1" fill="#f59f19" d="M 248.5,479.5 C 260.5,479.5 272.5,479.5 284.5,479.5C 294.833,490.167 305.167,500.833 315.5,511.5C 303.5,511.5 291.5,511.5 279.5,511.5C 269.167,500.833 258.833,490.167 248.5,479.5 Z"/></g>
<g><path style="opacity:1" fill="#f4991a" d="M 284.5,479.5 C 298.167,479.5 311.833,479.5 325.5,479.5C 335.833,490.167 346.167,500.833 356.5,511.5C 342.833,511.5 329.167,511.5 315.5,511.5C 305.167,500.833 294.833,490.167 284.5,479.5 Z"/></g>
</svg>
