<?xml version="1.0" encoding="utf-8" ?>
<svg xmlns="http://www.w3.org/2000/svg" xmlns:xlink="http://www.w3.org/1999/xlink" width="1024" height="1024">
	<path fill="#FEDF57" d="M454.242 84.7804L569.583 84.8403C569.469 86.9029 569.358 88.9456 569.412 91.0132L460.009 91.023C459.964 96.7983 459.438 102.533 459.326 108.305C459.018 124.18 458.994 140.059 458.994 155.936L459.063 188.865C459.078 194.712 459.364 200.696 458.981 206.523C458.879 208.07 458.857 208.686 457.854 209.894C456.685 210.349 455.737 210.626 454.477 210.792C453.868 202.53 454.4 193.981 454.47 185.692L454.459 148.541C454.459 127.4 453.084 105.864 454.242 84.7804Z"/>
	<path fill="#FF6B44" d="M275.649 238.072C276.105 235.619 276.71 233.02 277.7 230.717C280.374 224.502 284.904 219.758 291.357 217.472C298.523 214.933 336.573 216.072 346.758 216.065L421.533 216.038L611.178 216.062C646.831 216.06 682.568 215.528 718.212 216.184C724.645 216.303 731.258 215.842 737.209 218.703C743.165 221.566 746.745 226.527 748.876 232.618L748.183 233.332C743.913 231.835 743.897 224.203 732.781 223.041C725.335 222.264 717.715 222.853 710.251 222.981C702.037 223.121 693.804 223.013 685.587 223.017L580.533 223.033L382.229 223.021L328.419 222.997C320.968 222.939 313.505 222.299 306.061 222.454C300.396 222.572 294.223 222.612 289.003 225.084C281.781 228.503 277.756 238.773 276.077 239.098L275.649 238.072Z"/>
	<path fill="#936701" d="M304.658 907.505C308.325 910.948 311.906 914.192 316.852 915.679C325.032 918.138 381.377 917.252 392.331 916.929C421.51 916.07 450.735 916.467 479.928 916.468L625.733 916.345C653.669 916.241 681.913 918.25 709.787 916.189C713.998 915.877 717.421 915.067 721.29 913.403C720.722 914.918 720.122 916.375 719.256 917.749C715.713 923.364 709.172 927.243 702.763 928.725C693.828 930.79 683.378 929.643 674.251 929.627L640.939 929.829L495.396 929.544L381.66 929.92C366.087 929.93 350.181 930.811 334.652 929.995C328.247 929.659 321.887 927.898 316.444 924.443C309.985 920.343 306.363 914.873 304.658 907.505Z"/>
	<path fill="#FF6B44" d="M569.583 84.8403C571.43 99.802 569.781 115.609 569.633 130.656L569.52 211.058C545.74 210.982 521.991 210.53 498.202 210.696C483.848 210.796 468.714 212.256 454.477 210.792C455.737 210.626 456.685 210.349 457.854 209.894C458.857 208.686 458.879 208.07 458.981 206.523C459.364 200.696 459.078 194.712 459.063 188.865L458.994 155.936C458.994 140.059 459.018 124.18 459.326 108.305C459.438 102.533 459.964 96.7983 460.009 91.023L569.412 91.0132C569.358 88.9456 569.469 86.9029 569.583 84.8403Z"/>
	<path fill="#936701" d="M275.649 238.072L276.077 239.098C277.756 238.773 281.781 228.503 289.003 225.084C294.223 222.612 300.396 222.572 306.061 222.454C313.505 222.299 320.968 222.939 328.419 222.997L382.229 223.021L580.533 223.033L685.587 223.017C693.804 223.013 702.037 223.121 710.251 222.981C717.715 222.853 725.335 222.264 732.781 223.041C743.897 224.203 743.913 231.835 748.183 233.332L748.876 232.618C750.504 240.938 749.592 249.453 749.524 257.879C748.788 258.849 748.847 259.009 747.651 259.19C743.911 259.753 739.613 259.148 735.81 259.077C729.068 258.95 722.317 259.003 715.574 258.994L623.605 258.767L377.454 259L308.561 259.003C297.581 259.007 286.313 259.542 275.362 258.923C275.724 252.022 274.741 244.939 275.649 238.072Z"/>
	<path fill="#936701" d="M275.362 258.923C286.313 259.542 297.581 259.007 308.561 259.003L377.454 259L623.605 258.767L715.574 258.994C722.317 259.003 729.068 258.95 735.81 259.077C739.613 259.148 743.911 259.753 747.651 259.19C748.847 259.009 748.788 258.849 749.524 257.879L749.681 264.029C759.645 264.013 769.616 263.921 779.579 264.067C790.156 263.971 802.309 263.117 810.623 270.947C813.416 273.578 815.674 277.225 816.757 280.905C819.419 290.041 818.019 312.34 817.955 322.729C806.716 321.684 794.806 322.513 783.495 322.51L715.128 322.501L497.664 322.494L316.426 322.769L262.091 322.759C253.225 322.74 243.348 321.872 234.58 322.959C225.054 323.563 215.202 323.064 205.639 323.079C205.374 311.266 203.442 290.158 206.232 279.543C207.102 276.044 208.833 272.881 211.421 270.358C220.569 261.44 242.662 263.996 254.897 264.055C261.579 263.698 268.371 263.917 275.067 263.908L275.362 258.923Z"/>
	<path fill="#FF6B44" d="M275.362 258.923C286.313 259.542 297.581 259.007 308.561 259.003L377.454 259L623.605 258.767L715.574 258.994C722.317 259.003 729.068 258.95 735.81 259.077C739.613 259.148 743.911 259.753 747.651 259.19C748.847 259.009 748.788 258.849 749.524 257.879L749.681 264.029C759.645 264.013 769.616 263.921 779.579 264.067C790.156 263.971 802.309 263.117 810.623 270.947C813.416 273.578 815.674 277.225 816.757 280.905C816.465 281.064 816.084 281.171 815.77 281.06C813.023 280.086 810.427 273.58 802.8 272.319C798.623 271.629 793.991 272.03 789.741 271.885C773.247 271.322 757.34 272.171 741 272.007L546.344 271.452L321.782 271.462L251.456 271.475C240.749 271.471 229.341 270.496 218.723 271.547C212.501 272.163 211.484 276.143 206.952 279.095C206.715 279.249 206.472 279.393 206.232 279.543C207.102 276.044 208.833 272.881 211.421 270.358C220.569 261.44 242.662 263.996 254.897 264.055C261.579 263.698 268.371 263.917 275.067 263.908L275.362 258.923Z"/>
	<path fill="#1D1D1E" d="M275.362 258.923C286.313 259.542 297.581 259.007 308.561 259.003L377.454 259L623.605 258.767L715.574 258.994C722.317 259.003 729.068 258.95 735.81 259.077C739.613 259.148 743.911 259.753 747.651 259.19C748.847 259.009 748.788 258.849 749.524 257.879L749.681 264.029C759.645 264.013 769.616 263.921 779.579 264.067C771.119 265.214 761.799 264.516 753.257 264.514L703.234 264.487L532.415 264.483L342.444 264.489L285.357 264.521C275.385 264.526 264.782 265.25 254.897 264.055C261.579 263.698 268.371 263.917 275.067 263.908L275.362 258.923Z"/>
	<path fill="#1D1D1E" d="M234.58 322.959C243.348 321.872 253.225 322.74 262.091 322.759L316.426 322.769L497.664 322.494L715.128 322.501L783.495 322.51C794.806 322.513 806.716 321.684 817.955 322.729C808.304 323.69 798.315 322.705 788.599 323.14C788.339 324.895 788.1 326.655 787.77 328.399L746.109 717.115L734.118 832.795L730.412 868.737C729.692 875.682 729.23 882.816 727.95 889.682C727.015 894.698 724.833 898.891 720.88 902.185C720.779 902.269 720.673 902.345 720.569 902.425C721.158 903.993 721.895 905.209 722.839 906.588L721.29 913.403C717.421 915.067 713.998 915.877 709.787 916.189C681.913 918.25 653.669 916.241 625.733 916.345L479.928 916.468C450.735 916.467 421.51 916.07 392.331 916.929C381.377 917.252 325.032 918.138 316.852 915.679C311.906 914.192 308.325 910.948 304.658 907.505L304.468 905.648C305.42 905.391 305.094 905.437 305.908 905.343C307.205 905.192 308.217 905.036 309.448 904.538C309.336 903.027 307.521 901.34 306.543 900.123C306.474 900.07 306.4 900.022 306.335 899.963C300.736 894.984 295.634 889.55 293.98 882.002C292.374 874.671 292.051 866.925 291.364 859.459L288.296 828.817L276.628 713.227L235.73 328.155C235.475 326.345 235.27 324.661 234.58 322.959Z"/>
	<path fill="#936701" d="M584.25 567.863C586.066 573.591 584.571 582.106 584.095 588.026L580.674 583.954L574.974 577.881C577.813 574.263 580.931 571.042 584.25 567.863Z"/>
	<path fill="#936701" d="M437.787 567.166C442.242 570.215 445.736 574.774 449.696 578.457L444.994 582.957C443.014 585.015 440.904 586.951 438.836 588.92C438.317 581.668 438.024 574.432 437.787 567.166Z"/>
	<path fill="#936701" d="M601.228 550.925L601.469 551.169C602.618 554.44 599.922 596.564 599.751 603.55L594.938 598.628C592.844 595.972 590.302 593.57 587.954 591.133C588.928 582.066 588.565 572.529 588.706 563.391C592.831 559.186 596.923 554.948 601.228 550.925Z"/>
	<path fill="#936701" d="M420.972 550.23C425.444 553.777 429.545 558.492 433.621 562.527C434.759 572.542 434.103 582.757 435.319 592.768C433.254 594.607 431.276 596.557 429.269 598.46C427.07 600.604 425.075 602.905 423.06 605.22C422.385 586.896 421.368 568.563 420.972 550.23Z"/>
	<path fill="#936701" d="M414.482 328.497L427.986 328.502C428.115 351.685 429.143 374.955 430.053 398.12C430.586 411.711 430.59 425.544 431.856 439.071C429.999 441.185 428.037 443.221 426.119 445.281C424.058 447.769 421.731 450.094 419.53 452.463C419.527 440.205 418.447 427.793 417.919 415.54C416.67 386.571 415.174 357.474 414.482 328.497Z"/>
	<path fill="#936701" d="M598.001 328.249C602.061 328.218 606.05 328.294 610.099 328.61C608.519 345.749 608.5 362.846 607.84 380.025C607.215 396.271 605.901 412.489 605.24 428.733C605.097 432.245 604.904 453.09 604.395 454.277C604.262 454.588 604.022 454.84 603.835 455.121C599.892 451.069 595.754 447.282 591.483 443.583C591.437 432.97 594.826 331.33 596.295 328.443L598.001 328.249Z"/>
	<path fill="#FF6B44" d="M304.468 905.648C304.647 905.676 304.827 905.701 305.006 905.733C310.588 906.753 315.044 910.334 320.867 910.638C328.564 911.04 336.418 910.737 344.133 910.736L388.092 910.721L521.286 910.708L648.483 910.709C668.11 910.714 687.862 911.95 707.462 910.905C713.234 910.597 717.731 909.277 722.839 906.588L721.29 913.403C717.421 915.067 713.998 915.877 709.787 916.189C681.913 918.25 653.669 916.241 625.733 916.345L479.928 916.468C450.735 916.467 421.51 916.07 392.331 916.929C381.377 917.252 325.032 918.138 316.852 915.679C311.906 914.192 308.325 910.948 304.658 907.505L304.468 905.648Z"/>
	<path fill="#936701" d="M511.654 328.25L519.016 328.309C519.33 351.13 518.999 373.977 518.904 396.798L518.271 510.441L512.693 516.667C510.331 513.853 507.666 511.395 505.397 508.466C506.452 486.945 505.517 465.429 505.477 443.892L505.507 328.318L511.654 328.25Z"/>
	<path fill="#936701" d="M424.602 704.83C427.563 706.298 434.122 713.598 437.5 716.212C437.334 724.196 438.119 732.383 438.574 740.371L440.286 775.064L446.388 905.996L433.31 906.006C432.586 896.423 432.663 886.71 432.221 877.101L428.838 802.385L426.217 744.27C425.582 731.172 424.585 717.943 424.602 704.83Z"/>
	<path fill="#936701" d="M598.868 703.936C599.272 704.355 599.406 704.818 599.477 705.406C600.044 710.105 599.214 715.858 599.028 720.631L597.39 757.514L592.808 851.139C591.913 869.311 590.666 887.57 590.471 905.758L578.625 905.74L578.126 905.451C577.195 904.256 577.41 902.245 577.431 900.775C577.744 879.662 579.552 858.321 580.61 837.21L586.577 715.618C590.026 711.38 594.929 707.78 598.868 703.936Z"/>
	<path fill="#936701" d="M512.238 641.829C514.526 643.429 516.496 645.473 518.52 647.389L518.884 845.881C518.879 854.854 519.843 900.524 518.153 905.245C516.636 906.159 515.576 905.966 513.826 906.012L505.99 906.023L505.997 648.154C507.895 645.919 510.148 643.891 512.238 641.829Z"/>
	<path fill="#936701" d="M692.051 328.493L704.159 328.508C702.344 366.598 699 404.602 696.113 442.621L682.647 619.589L666.497 829.39C664.458 854.899 663.174 880.55 660.649 906.008L647.868 906.008L671.517 596.02L684.814 421.887C687.193 390.761 689.32 359.589 692.051 328.493Z"/>
	<path fill="#936701" d="M322.288 328.252L333.496 328.225C333.367 337.761 334.599 347.465 335.297 356.98C336.251 369.998 336.908 383.026 337.94 396.041L346.314 505.88L370.142 836.498C370.701 843.518 375.686 902.531 374.625 905.219C374.509 905.514 374.214 905.701 374.008 905.943L372.125 906.009L362.073 905.993C361.696 890.599 360.148 875.001 359.037 859.637L352.84 775.795L330.343 471.825L323.022 372.788C321.947 358.263 320.058 343.578 319.596 329.038C320.524 328.113 321.039 328.337 322.288 328.252Z"/>
	<path fill="#936701" d="M523.33 328.259L592.013 328.312C592.101 341.635 591.069 354.791 590.496 368.079L587.467 439.968C578.384 450.964 567.425 460.867 557.313 470.941C547.626 481.69 535.855 493.156 525.224 503.015L525.284 502.676L522.319 505.912L521.97 505.258C522.907 499.042 522.505 492.514 522.488 486.242L522.483 458.267L522.748 367.112L522.845 340.98C522.888 336.885 522.533 332.27 523.33 328.259Z"/>
	<path fill="#936701" d="M431.463 328.499L502.005 328.502L502.035 442.034C502.037 463.237 502.402 484.517 501.895 505.71C497.733 503.064 490.619 494.601 486.841 490.816C475.458 479.411 463.904 468.155 452.659 456.617C446.87 450.677 441.478 444.348 435.496 438.601C435.649 427.641 434.95 416.533 434.614 405.568C433.827 379.874 432.64 354.177 431.463 328.499Z"/>
	<path fill="#936701" d="M522.519 652.152C525.71 653.635 575.165 705.132 582.856 713.131C581.113 738.807 580.164 764.562 578.881 790.267L573.456 897.624L573.121 905.797L522.484 905.814L522.519 652.152Z"/>
	<path fill="#936701" d="M501.255 652.868C502.636 654.381 502.429 659.603 502.491 661.743C502.926 676.614 502.473 691.603 502.298 706.478L502.028 754.415L502.028 905.925C484.947 904.728 467.428 905.691 450.31 905.762C450.147 904.225 450.098 902.669 450.014 901.125C449.961 881.729 448.47 862.118 447.615 842.729L441.191 713.158C460.509 692.331 480.991 672.759 501.255 652.868Z"/>
	<path fill="#936701" d="M339.436 328.248L410.477 328.218C410.744 343.844 411.82 359.51 412.399 375.13L415.471 456.357C407.229 465.775 396.77 475.48 387.797 484.254C382.535 489.4 376.794 494.458 372.541 500.499C379.236 508.25 386.733 514.997 393.964 522.215C401.832 530.07 409.453 538.189 417.315 546.062C417.172 561.087 417.846 575.88 418.532 590.876C418.814 597.05 418.581 603.397 419.426 609.513C404.945 624.495 389.921 639.028 375.164 653.744C380.63 660.853 387.258 666.602 393.593 672.881C402.677 681.884 411.632 691.18 420.504 700.398C420.536 740.306 424.686 780.186 425.554 820.074C426.449 829.964 426.647 839.997 427.069 849.92L429.032 905.807C412.404 905.166 395.735 905.592 379.101 905.825C378.292 900.666 378.207 895.282 377.849 890.064L375.901 862.121L369.701 774.914L348.972 486.357L340.847 378.167L338.629 345.452C338.316 340.953 337.541 336.421 337.472 331.916C337.452 330.631 337.404 329.651 338.066 328.504L339.436 328.248Z"/>
	<path fill="#936701" d="M613.744 328.224L687.525 328.506C686.962 354.044 684.062 379.645 682.073 405.117L671.819 537.326L643.541 905.711C627.151 906.1 610.591 905.733 594.179 905.737L595.068 892.877C597.027 868.692 597.329 844.243 598.398 820L604.055 698.971C612.468 691.033 620.66 682.848 629.009 674.842C635.887 668.246 643.065 662.02 649.236 654.74C643.577 647.413 636.523 640.754 630 634.174L603.418 607.165C604.33 586.754 605.012 566.298 606.417 545.915C612.232 539.205 618.953 533.061 625.287 526.841C633.918 518.365 642.383 509.789 650.717 501.023C645.6 495.528 639.881 490.675 634.5 485.448C625.534 476.737 616.776 467.793 607.965 458.925C608.061 441.138 609.395 423.326 610.193 405.562L613.744 328.224Z"/>
	<path fill="#FF6B44" d="M433.967 443.961C441.244 450.246 447.6 458.185 454.462 464.991L512.653 523.433C522.352 514.3 531.231 504.284 540.572 494.785L588.478 446.76C606.549 465.4 625.116 483.452 643.79 501.485C618.039 526.564 592.918 552.182 567.622 577.715C579.505 588.906 590.604 600.724 601.914 612.474L642.509 654.444L588.842 706.787C588.175 707.501 587.54 707.873 586.683 708.333C585.029 708.21 584.152 707.684 582.937 706.61C576.306 700.746 570.417 693.487 564.219 687.126L537.52 660.008C529.11 651.335 520.923 642.544 512.201 634.173C504.248 641.754 496.954 649.957 489.234 657.766L437.568 709.511C429.673 701.434 421.384 693.764 413.329 685.85C402.583 675.291 392.076 664.546 381.022 654.298C398.412 637.506 415.17 620.216 432.004 602.875C439.972 594.666 448.185 586.717 455.95 578.311C430.718 551.827 404.499 526.279 379.077 499.969C397.73 481.663 416.03 462.968 433.967 443.961Z"/>
	<path fill="#936701" d="M708.536 328.249C734.854 328.228 761.49 327.344 787.77 328.399L746.109 717.115L734.118 832.795L730.412 868.737C729.692 875.682 729.23 882.816 727.95 889.682C727.015 894.698 724.833 898.891 720.88 902.185C720.779 902.269 720.673 902.345 720.569 902.425C717.176 902.949 713.923 905.226 710.325 905.719C705.001 906.449 699.239 906.048 693.854 906.046L664.391 906.001C666.372 892.175 667.066 878.082 668.053 864.157L672.12 809.387L686.418 621.443L701.338 425.731L705.94 365.498C706.924 353.084 708.354 340.712 708.536 328.249Z"/>
	<path fill="#936701" d="M235.73 328.155L315.425 328.249C316.25 342.736 318.082 357.103 319.073 371.558L333.609 569.89L349.651 791.333C352.418 829.553 354.761 867.85 358.015 906.027C341.106 905.154 321.757 908.965 306.543 900.123C306.474 900.07 306.4 900.022 306.335 899.963C300.736 894.984 295.634 889.55 293.98 882.002C292.374 874.671 292.051 866.925 291.364 859.459L288.296 828.817L276.628 713.227L235.73 328.155Z"/>
</svg>
