<?xml version="1.0" encoding="utf-8" ?>
<svg xmlns="http://www.w3.org/2000/svg" xmlns:xlink="http://www.w3.org/1999/xlink" width="1024" height="1024">
	<path fill="#FF6640" d="M216.294 752.402C173.483 698.935 145.147 634.944 135.78 566.966C121.737 465.061 147.902 362.739 210.182 280.737C270.448 201.386 362.663 148.454 461.226 135.097C545.095 123.732 632.137 141.556 705.088 184.337C719.85 192.995 733.686 202.858 747.293 213.212C734.68 225.085 722.782 237.984 710.85 250.553C707.047 254.559 703.516 258.88 699.521 262.692C684.335 251.775 669.007 241.518 652.375 232.89C595.064 203.16 527.543 192.405 463.787 202.836C407.525 212.041 359.477 233.569 314.369 268.461C336.402 289.628 357.32 312.145 379.875 332.759C383.507 336.907 387.751 340.674 391.714 344.513L413.295 365.328L483.524 433.401C495.004 444.546 507.465 455.313 518.226 467.113C517.721 473.57 517.143 480.049 517.029 486.526C516.859 496.189 518.035 555.829 516.386 558.879C510.068 553.01 504.138 546.565 498.081 540.421L462.289 504.048L349.072 389.652C335.231 375.903 321.619 361.801 307.441 348.406L271.728 313.121C257.655 330.399 245.059 348.244 234.605 367.978C206.505 421.024 195.15 483.83 201.199 543.424C206.579 596.419 225.773 649.112 257.215 692.242C246.936 707.675 236.127 722.792 225.824 738.232C222.681 742.943 219.213 747.561 216.294 752.402Z"/>
	<path fill="#C03523" d="M747.293 213.212C829.009 279.561 879.703 370.393 890.656 475.38C901.253 576.943 869.169 677.319 804.939 756.186C742.083 833.367 647.51 881.667 548.972 891.513C446.065 901.795 346.14 868.849 266.454 803.664C250.267 790.422 228.15 769.564 216.294 752.402C219.213 747.561 222.681 742.943 225.824 738.232C236.127 722.792 246.936 707.675 257.215 692.242C306.909 762.117 377.805 805.892 462.267 820.216C511.171 828.509 564.357 823.818 610.937 806.728C626.903 800.869 642.104 793.36 657.028 785.247C669.999 778.196 682.683 770.706 694.724 762.143C699.301 758.889 703.807 755.483 707.845 751.57C693.239 735.936 677.549 721.156 662.238 706.217C659.727 702.073 654.485 697.921 651.016 694.439L625.642 668.997C589.181 632.388 552.252 596.063 516.386 558.879C518.035 555.829 516.859 496.189 517.029 486.526C517.143 480.049 517.721 473.57 518.226 467.113L632.302 580.236L653.067 600.931C655.682 603.542 659.011 607.731 662.101 609.607C678.917 627.587 697.001 644.519 714.494 661.84C728.568 675.776 742.143 690.256 756.46 703.939C769.652 687.24 781.82 668.949 791.34 649.894C817.176 598.184 827.72 536.098 821.426 478.702C811.873 391.603 767.444 317.117 699.521 262.692C703.516 258.88 707.047 254.559 710.85 250.553C722.782 237.984 734.68 225.085 747.293 213.212Z"/>
	<path fill="#936701" d="M413.209 328.776C415.589 320.949 418.126 309.139 425.996 305.024C429.632 303.122 435.443 302.8 439.519 302.598C448.162 302.17 456.954 302.495 465.61 302.498L514.341 302.52L564.491 302.523C572.137 302.499 579.769 302.047 587.417 302.33C591.07 302.465 595.581 302.55 599.057 303.815C606.24 306.431 611.815 321.669 614.888 328.154C610.22 330.197 488.814 328.284 475.577 328.256C454.79 328.212 433.996 328.866 413.209 328.776Z"/>
	<path fill="#936701" d="M614.888 328.154L616.341 331.563L694.644 331.563C702.13 331.226 709.889 331.193 716.242 335.682C721.11 340.457 721.425 346.365 721.485 352.824C721.534 358.145 720.669 363.78 716.866 367.79C711.777 373.157 703.948 373.03 697.107 373.02C695.112 373.017 693.047 373.119 691.072 372.855C683.311 371.516 673.909 372.465 665.987 372.476L614.67 372.536L426.492 372.492C422.385 368.291 417.868 364.402 413.619 360.333C405.859 352.902 398.222 345.347 390.343 338.04C388.036 336.234 385.912 334.036 383.757 332.042L384.92 331.876C391.055 330.748 407.956 333.325 412.207 330.861C412.899 330.46 412.971 329.492 413.209 328.776C433.996 328.866 454.79 328.212 475.577 328.256C488.814 328.284 610.22 330.197 614.888 328.154Z"/>
	<path fill="#FF6640" d="M614.888 328.154L616.341 331.563L694.644 331.563C702.13 331.226 709.889 331.193 716.242 335.682C707.542 338.453 666.471 337.115 653.806 337.113L536.548 336.997L390.343 338.04C388.036 336.234 385.912 334.036 383.757 332.042L384.92 331.876C391.055 330.748 407.956 333.325 412.207 330.861C412.899 330.46 412.971 329.492 413.209 328.776C433.996 328.866 454.79 328.212 475.577 328.256C488.814 328.284 610.22 330.197 614.888 328.154Z"/>
	<path fill="#1E1D1E" d="M614.888 328.154L616.341 331.563L694.644 331.563C684.575 333.099 668.992 331.967 658.368 331.962L581.86 331.964L437.772 331.977L402.268 331.964C396.521 331.968 390.652 332.222 384.92 331.876C391.055 330.748 407.956 333.325 412.207 330.861C412.899 330.46 412.971 329.492 413.209 328.776C433.996 328.866 454.79 328.212 475.577 328.256C488.814 328.284 610.22 330.197 614.888 328.154Z"/>
	<path fill="#1E1D1E" d="M379.875 332.759C381.185 332.368 382.407 332.187 383.757 332.042C385.912 334.036 388.036 336.234 390.343 338.04C398.222 345.347 405.859 352.902 413.619 360.333C417.868 364.402 422.385 368.291 426.492 372.492L614.67 372.536L665.987 372.476C673.909 372.465 683.311 371.516 691.072 372.855C689.762 373.046 688.977 372.862 688.082 373.903L687.723 376.37C687.149 385.461 686.483 394.649 685.444 403.699C683.228 403.97 681.049 404.268 678.856 404.697C678.279 405.608 678.429 405.159 678.282 405.997C678.694 417.917 677.283 430.406 676.518 442.332L671.469 513.939L666.912 578.413C666.206 587.552 666.172 597.489 664.535 606.477L662.101 609.607C659.011 607.731 655.682 603.542 653.067 600.931L632.302 580.236L518.226 467.113C507.465 455.313 495.004 444.546 483.524 433.401L413.295 365.328L391.714 344.513C387.751 340.674 383.507 336.907 379.875 332.759Z"/>
	<path fill="#FF6640" d="M462.058 406.031C474.443 405.785 486.908 406.279 499.302 406.337L499.22 441.874L498.198 441.755C493.647 438.067 489.712 433.623 485.475 429.585C477.524 422.009 468.643 414.878 462.058 406.031Z"/>
	<path fill="#936701" d="M503.647 406.127C509.926 405.925 516.218 405.955 522.498 406.127C522.321 425.586 521.599 445.068 521.788 464.526L521.118 464.881C514.748 458.461 508.857 451.715 502.245 445.522C502.177 437.142 502.262 428.76 502.338 420.38C502.376 416.271 502.044 411.734 502.632 407.676C502.802 406.504 502.795 406.768 503.647 406.127Z"/>
	<path fill="#936701" d="M672.248 406.254C674.283 406.276 676.256 406.19 678.282 405.997C678.694 417.917 677.283 430.406 676.518 442.332L671.469 513.939L666.912 578.413C666.206 587.552 666.172 597.489 664.535 606.477C662.293 604.296 660.19 601.976 658.06 599.687C660.897 576.923 662.125 553.677 663.794 530.798L672.248 406.254Z"/>
	<path fill="#936701" d="M593.484 406.237C599.929 406.293 606.36 406.149 612.803 405.987C612.636 423.717 611.199 441.604 610.495 459.335C609.303 489.39 608.528 519.451 607.049 549.497C599.8 544.006 593.54 536.277 587.481 529.527C587.487 501.59 589.179 473.401 590.364 445.479L591.462 419.966C591.65 415.648 591.479 410.894 592.205 406.649L593.484 406.237Z"/>
	<path fill="#936701" d="M525.517 406.23C546.853 406.219 568.204 406.051 589.539 406.327C587.127 445.007 586.83 483.768 584.596 522.439L584.419 525.561L583.907 526.016C576.408 520.773 566.894 510.114 560.125 503.37C548.381 491.668 536.128 480.174 525.01 467.881C524.959 447.315 525.322 426.789 525.517 406.23Z"/>
	<path fill="#936701" d="M429.65 375.504L593.448 375.484L655.951 375.5C665.177 375.501 674.487 375.205 683.7 375.431C685.287 375.47 686.592 375.174 687.723 376.37C687.149 385.461 686.483 394.649 685.444 403.699C677.852 403.127 670.053 403.579 662.43 403.478L603.792 403.234L458.105 403.021C448.756 393.705 438.889 384.987 429.65 375.504Z"/>
	<path fill="#936701" d="M615.862 406.253L669.093 406.207C668.387 425.041 666.751 443.943 665.508 462.757C662.716 505.051 659.485 547.268 655.849 589.499L654.916 597.048C640.296 581.634 623.947 568.249 610.139 551.964L614.122 445.326C614.564 435.046 614.001 415.267 615.862 406.253Z"/>
	<path fill="#D38516" d="M306.048 352.334C312.933 358.699 318.905 366.578 326.009 372.523C323.539 373.113 320.612 373.052 318.105 372.708C314.209 372.172 310.595 370.333 308.28 367.089C305.192 362.762 305.139 357.363 306.048 352.334Z"/>
	<path fill="#936701" d="M653.172 702.154L659.593 708.59C658.833 717.07 658.137 725.545 657.54 734.038C656.597 747.45 657.339 764.763 646.032 774.217C641.551 777.964 635.374 780.768 629.599 781.664C622.914 782.701 615.912 782.096 609.165 782.062C599.974 782.016 590.776 782.128 581.586 782.204C562.156 782.365 542.738 782.609 523.306 782.469C517.522 782.428 509.317 783.108 503.774 782.249C503.542 782.213 503.324 782.113 503.099 782.045C507.18 781.158 512.441 783.478 515.939 781.188C516.94 779.703 516.615 777.968 516.55 776.259C525.652 775.954 534.808 776.446 543.918 776.476L595.74 776.467C605.859 776.489 616.857 777.843 626.826 775.951C631.901 774.988 637.032 772.543 641.01 769.243C644.074 766.7 645.603 763.973 646.829 760.256C649.564 751.962 649.579 742.353 650.293 733.684C651.159 723.161 652.036 712.652 653.172 702.154Z"/>
	<path fill="#FF6640" d="M344.255 406.935C346.602 406.14 349.357 406.469 351.815 406.505C353.374 417.831 354.106 429.355 354.992 440.75L359.287 499.737L372.25 669.965L376.169 723.289C376.833 733.601 376.272 744.076 378.494 754.235C380.015 761.189 384.713 768.472 390.402 772.77C393.294 774.954 397.506 775.836 401.077 776.226C412.343 777.454 424.666 776.528 436.044 776.526C462.858 776.521 489.748 775.998 516.55 776.259C516.615 777.968 516.94 779.703 515.939 781.188C512.441 783.478 507.18 781.158 503.099 782.045C481.75 781.857 460.407 781.782 439.056 782.068C426.18 782.24 412.782 783.325 399.947 782.273C396.075 781.956 391.718 781.439 388.482 779.168C381.135 774.015 375.929 765.801 373.595 757.217C370.376 745.375 370.301 732.652 369.433 720.468L366.419 683.21L351.185 487.365L346.949 435.267C346.208 426.187 346.084 416.422 344.369 407.499C344.333 407.311 344.293 407.123 344.255 406.935Z"/>
	<path fill="#1E1D1E" d="M307.441 348.406C321.619 361.801 335.231 375.903 349.072 389.652L462.289 504.048L498.081 540.421C504.138 546.565 510.068 553.01 516.386 558.879C552.252 596.063 589.181 632.388 625.642 668.997L651.016 694.439C654.485 697.921 659.727 702.073 662.238 706.217L660.718 706.034C659.815 706.933 659.889 707.384 659.593 708.59L653.172 702.154C652.036 712.652 651.159 723.161 650.293 733.684C649.579 742.353 649.564 751.962 646.829 760.256C645.603 763.973 644.074 766.7 641.01 769.243C637.032 772.543 631.901 774.988 626.826 775.951C616.857 777.843 605.859 776.489 595.74 776.467L543.918 776.476C534.808 776.446 525.652 775.954 516.55 776.259C489.748 775.998 462.858 776.521 436.044 776.526C424.666 776.528 412.343 777.454 401.077 776.226C397.506 775.836 393.294 774.954 390.402 772.77C384.713 768.472 380.015 761.189 378.494 754.235C376.272 744.076 376.833 733.601 376.169 723.289L372.25 669.965L359.287 499.737L354.992 440.75C354.106 429.355 353.374 417.831 351.815 406.505C349.357 406.469 346.602 406.14 344.255 406.935C343.588 404.889 342.829 403.733 341.305 402.196C339.623 401.218 338.119 400.113 336.829 398.639C332.455 393.641 332.695 386.138 333.083 379.93C333.045 379.191 332.941 378.701 332.583 378.022C331.267 375.518 328.786 373.154 326.009 372.523C318.905 366.578 312.933 358.699 306.048 352.334L307.441 348.406Z"/>
	<path fill="#936701" d="M333.083 379.93C337.586 381.631 352.9 398.922 357.363 403.493C351.846 403.515 346.689 403.658 341.305 402.196C339.623 401.218 338.119 400.113 336.829 398.639C332.455 393.641 332.695 386.138 333.083 379.93Z"/>
	<path fill="#936701" d="M584.395 633.099C588.587 635.067 600.865 648.818 604.77 652.745C604.662 682.999 603.267 713.278 602.85 743.536L582.008 743.51C581.677 706.767 583.151 669.822 584.395 633.099Z"/>
	<path fill="#936701" d="M607.19 655.764C613.061 659.551 618.166 666.007 623.062 670.973C632.17 680.211 641.371 689.32 650.112 698.914C649.101 713.572 648.091 728.245 646.31 742.833C641.742 745.221 612.31 743.849 605.049 743.457C605.835 730.911 605.774 718.28 606.076 705.713C606.477 689.069 607.116 672.412 607.19 655.764Z"/>
	<path fill="#936701" d="M502.259 550.573C509.329 555.032 515.193 562.604 520.748 568.77C521.069 585.942 520.535 603.231 520.536 620.419L520.497 743.354C514.923 744.25 508.203 743.532 502.508 743.508L502.259 550.573Z"/>
	<path fill="#936701" d="M412.085 459.299C418.236 462.91 428.798 475.469 433.946 481.292C435.021 495.988 435.081 510.706 435.479 525.426L437.426 583.844C439.316 637.085 442.061 690.226 443.308 743.494C437.042 743.695 430.782 743.757 424.513 743.797C424.347 732.254 423.508 720.647 422.988 709.11L420.201 645.553L412.085 459.299Z"/>
	<path fill="#936701" d="M528.138 746.219C540.886 745.916 553.69 746.216 566.444 746.155C592.983 746.027 619.564 745.881 646.101 746.298C645.269 753.613 644.791 761.802 639.113 767.223C635.857 770.33 630.405 772.796 626.029 773.596C616.964 775.254 599.113 774.014 589.03 774.004C559.225 773.972 529.544 773.98 499.75 773.096C479.508 772.493 459.003 772.784 438.75 773.125C427.236 773.319 415.495 774.049 403.997 773.37C401.192 773.204 397.235 773.022 394.836 771.53C385.813 765.919 382.98 757.094 380.677 747.314C395.94 747.043 411.232 747.324 426.499 747.259L488.751 746.543C501.826 746.408 515.101 747.037 528.138 746.219Z"/>
	<path fill="#936701" d="M523.512 572.206C528.118 574.91 538.859 586.849 543.181 591.163C556.002 603.961 569.466 616.51 581.599 629.936C580.487 667.644 579.986 705.444 579.445 743.167C573.23 744.89 564.979 743.599 558.497 743.566L523.155 743.484L523.512 572.206Z"/>
	<path fill="#FF6640" d="M437.465 485.203C442.5 487.993 449.744 496.659 454.125 501.049L498.512 546.271L499.032 743.504C481.774 744.262 464.15 743.503 446.85 743.487C446.018 730.746 445.903 717.855 445.481 705.088L443.427 647.582L437.465 485.203Z"/>
	<path fill="#FF6640" d="M355.442 406.522C356.369 406.411 357.324 406.277 358.258 406.269C359.782 406.256 360.653 406.869 361.798 407.778C367.055 411.95 371.439 417.235 376.134 422.016L408.492 455.25C408.5 463.47 409.064 471.759 409.364 479.977C410.165 501.907 411.338 523.823 412.431 545.74L417.818 669.807L419.963 718.505C420.325 726.655 421.39 735.376 420.873 743.497C407.536 743.738 394.22 743.767 380.881 743.715L355.442 406.522Z"/>
</svg>
